%TF.GenerationSoftware,KiCad,Pcbnew,10.0.3*%
%TF.CreationDate,2026-07-11T19:07:48-04:00*%
%TF.ProjectId,espond32-offboard-ssr,6573706f-6e64-4333-922d-6f6666626f61,rev?*%
%TF.SameCoordinates,Original*%
%TF.FileFunction,Soldermask,Bot*%
%TF.FilePolarity,Negative*%
%FSLAX46Y46*%
G04 Gerber Fmt 4.6, Leading zero omitted, Abs format (unit mm)*
G04 Created by KiCad (PCBNEW 10.0.3) date 2026-07-11 19:07:48*
%MOMM*%
%LPD*%
G01*
G04 APERTURE LIST*
G04 Aperture macros list*
%AMRoundRect*
0 Rectangle with rounded corners*
0 $1 Rounding radius*
0 $2 $3 $4 $5 $6 $7 $8 $9 X,Y pos of 4 corners*
0 Add a 4 corners polygon primitive as box body*
4,1,4,$2,$3,$4,$5,$6,$7,$8,$9,$2,$3,0*
0 Add four circle primitives for the rounded corners*
1,1,$1+$1,$2,$3*
1,1,$1+$1,$4,$5*
1,1,$1+$1,$6,$7*
1,1,$1+$1,$8,$9*
0 Add four rect primitives between the rounded corners*
20,1,$1+$1,$2,$3,$4,$5,0*
20,1,$1+$1,$4,$5,$6,$7,0*
20,1,$1+$1,$6,$7,$8,$9,0*
20,1,$1+$1,$8,$9,$2,$3,0*%
G04 Aperture macros list end*
%ADD10C,1.100000*%
%ADD11RoundRect,0.249999X0.850001X-0.850001X0.850001X0.850001X-0.850001X0.850001X-0.850001X-0.850001X0*%
%ADD12C,2.200000*%
%ADD13RoundRect,0.250000X-0.600000X-0.725000X0.600000X-0.725000X0.600000X0.725000X-0.600000X0.725000X0*%
%ADD14O,1.700000X1.950000*%
%ADD15C,0.650000*%
%ADD16O,2.100000X1.000000*%
%ADD17O,1.600000X1.000000*%
%ADD18RoundRect,0.249999X-0.850001X0.850001X-0.850001X-0.850001X0.850001X-0.850001X0.850001X0.850001X0*%
%ADD19C,3.200000*%
%ADD20R,1.700000X1.700000*%
%ADD21C,1.700000*%
G04 APERTURE END LIST*
D10*
%TO.C,J3*%
X127540000Y-98000000D03*
X127540000Y-95460000D03*
D11*
X125000000Y-98000000D03*
D12*
X125000000Y-95460000D03*
%TD*%
D13*
%TO.C,J_VALVE1*%
X166000000Y-155500000D03*
D14*
X168500000Y-155500000D03*
X171000000Y-155500000D03*
%TD*%
D15*
%TO.C,J2*%
X194900000Y-119570000D03*
X194900000Y-113790000D03*
D16*
X194370000Y-121000000D03*
D17*
X198550000Y-121000000D03*
D16*
X194370000Y-112360000D03*
D17*
X198550000Y-112360000D03*
%TD*%
D13*
%TO.C,J_PUMP1*%
X136000000Y-155500000D03*
D14*
X138500000Y-155500000D03*
X141000000Y-155500000D03*
%TD*%
D10*
%TO.C,J4*%
X127500000Y-105000000D03*
X127500000Y-102460000D03*
D11*
X124960000Y-105000000D03*
D12*
X124960000Y-102460000D03*
%TD*%
D10*
%TO.C,J7*%
X193960000Y-133960000D03*
X193960000Y-136500000D03*
D18*
X196500000Y-133960000D03*
D12*
X196500000Y-136500000D03*
%TD*%
D19*
%TO.C,H4*%
X198000000Y-85000000D03*
%TD*%
D20*
%TO.C,J1*%
X199000000Y-105540000D03*
D21*
X196460000Y-105540000D03*
X199000000Y-103000000D03*
X196460000Y-103000000D03*
X199000000Y-100460000D03*
X196460000Y-100460000D03*
X199000000Y-97920000D03*
X196460000Y-97920000D03*
X199000000Y-95380000D03*
X196460000Y-95380000D03*
%TD*%
D19*
%TO.C,H1*%
X124500000Y-156000000D03*
%TD*%
D10*
%TO.C,J6*%
X127500000Y-119000000D03*
X127500000Y-116460000D03*
D11*
X124960000Y-119000000D03*
D12*
X124960000Y-116460000D03*
%TD*%
D19*
%TO.C,H2*%
X198000000Y-156000000D03*
%TD*%
D13*
%TO.C,J_PUMP2*%
X151000000Y-155500000D03*
D14*
X153500000Y-155500000D03*
X156000000Y-155500000D03*
%TD*%
D10*
%TO.C,J5*%
X127500000Y-112000000D03*
X127500000Y-109460000D03*
D11*
X124960000Y-112000000D03*
D12*
X124960000Y-109460000D03*
%TD*%
D13*
%TO.C,J_LIGHT1*%
X181000000Y-155500000D03*
D14*
X183500000Y-155500000D03*
X186000000Y-155500000D03*
%TD*%
D19*
%TO.C,H3*%
X124500000Y-85000000D03*
%TD*%
M02*
