%TF.GenerationSoftware,KiCad,Pcbnew,10.0.4*%
%TF.CreationDate,2026-07-12T19:36:23-04:00*%
%TF.ProjectId,espond32-offboard-ssr,6573706f-6e64-4333-922d-6f6666626f61,rev?*%
%TF.SameCoordinates,Original*%
%TF.FileFunction,Copper,L1,Top*%
%TF.FilePolarity,Positive*%
%FSLAX46Y46*%
G04 Gerber Fmt 4.6, Leading zero omitted, Abs format (unit mm)*
G04 Created by KiCad (PCBNEW 10.0.4) date 2026-07-12 19:36:23*
%MOMM*%
%LPD*%
G01*
G04 APERTURE LIST*
G04 Aperture macros list*
%AMRoundRect*
0 Rectangle with rounded corners*
0 $1 Rounding radius*
0 $2 $3 $4 $5 $6 $7 $8 $9 X,Y pos of 4 corners*
0 Add a 4 corners polygon primitive as box body*
4,1,4,$2,$3,$4,$5,$6,$7,$8,$9,$2,$3,0*
0 Add four circle primitives for the rounded corners*
1,1,$1+$1,$2,$3*
1,1,$1+$1,$4,$5*
1,1,$1+$1,$6,$7*
1,1,$1+$1,$8,$9*
0 Add four rect primitives between the rounded corners*
20,1,$1+$1,$2,$3,$4,$5,0*
20,1,$1+$1,$4,$5,$6,$7,0*
20,1,$1+$1,$6,$7,$8,$9,0*
20,1,$1+$1,$8,$9,$2,$3,0*%
G04 Aperture macros list end*
%TA.AperFunction,SMDPad,CuDef*%
%ADD10RoundRect,0.250000X-2.600000X0.600000X-2.600000X-0.600000X2.600000X-0.600000X2.600000X0.600000X0*%
%TD*%
%TA.AperFunction,ComponentPad*%
%ADD11RoundRect,0.249999X-0.850001X0.850001X-0.850001X-0.850001X0.850001X-0.850001X0.850001X0.850001X0*%
%TD*%
%TA.AperFunction,ComponentPad*%
%ADD12C,2.200000*%
%TD*%
%TA.AperFunction,SMDPad,CuDef*%
%ADD13RoundRect,0.225000X-0.250000X0.225000X-0.250000X-0.225000X0.250000X-0.225000X0.250000X0.225000X0*%
%TD*%
%TA.AperFunction,SMDPad,CuDef*%
%ADD14RoundRect,0.200000X-0.275000X0.200000X-0.275000X-0.200000X0.275000X-0.200000X0.275000X0.200000X0*%
%TD*%
%TA.AperFunction,ComponentPad*%
%ADD15RoundRect,0.250000X-0.600000X-0.725000X0.600000X-0.725000X0.600000X0.725000X-0.600000X0.725000X0*%
%TD*%
%TA.AperFunction,ComponentPad*%
%ADD16O,1.700000X1.950000*%
%TD*%
%TA.AperFunction,SMDPad,CuDef*%
%ADD17R,0.700000X0.700000*%
%TD*%
%TA.AperFunction,SMDPad,CuDef*%
%ADD18RoundRect,0.150000X-0.150000X0.825000X-0.150000X-0.825000X0.150000X-0.825000X0.150000X0.825000X0*%
%TD*%
%TA.AperFunction,SMDPad,CuDef*%
%ADD19RoundRect,0.200000X0.275000X-0.200000X0.275000X0.200000X-0.275000X0.200000X-0.275000X-0.200000X0*%
%TD*%
%TA.AperFunction,SMDPad,CuDef*%
%ADD20RoundRect,0.150000X0.150000X-0.587500X0.150000X0.587500X-0.150000X0.587500X-0.150000X-0.587500X0*%
%TD*%
%TA.AperFunction,SMDPad,CuDef*%
%ADD21RoundRect,0.200000X-0.200000X-0.275000X0.200000X-0.275000X0.200000X0.275000X-0.200000X0.275000X0*%
%TD*%
%TA.AperFunction,SMDPad,CuDef*%
%ADD22RoundRect,0.062500X0.062500X-0.117500X0.062500X0.117500X-0.062500X0.117500X-0.062500X-0.117500X0*%
%TD*%
%TA.AperFunction,SMDPad,CuDef*%
%ADD23RoundRect,0.150000X0.575000X-0.150000X0.575000X0.150000X-0.575000X0.150000X-0.575000X-0.150000X0*%
%TD*%
%TA.AperFunction,SMDPad,CuDef*%
%ADD24RoundRect,0.075000X0.650000X-0.075000X0.650000X0.075000X-0.650000X0.075000X-0.650000X-0.075000X0*%
%TD*%
%TA.AperFunction,ComponentPad*%
%ADD25O,2.100000X1.000000*%
%TD*%
%TA.AperFunction,ComponentPad*%
%ADD26O,1.600000X1.000000*%
%TD*%
%TA.AperFunction,SMDPad,CuDef*%
%ADD27RoundRect,0.250000X-0.550000X1.500000X-0.550000X-1.500000X0.550000X-1.500000X0.550000X1.500000X0*%
%TD*%
%TA.AperFunction,SMDPad,CuDef*%
%ADD28RoundRect,0.225000X-0.225000X-0.250000X0.225000X-0.250000X0.225000X0.250000X-0.225000X0.250000X0*%
%TD*%
%TA.AperFunction,ComponentPad*%
%ADD29RoundRect,0.249999X0.850001X-0.850001X0.850001X0.850001X-0.850001X0.850001X-0.850001X-0.850001X0*%
%TD*%
%TA.AperFunction,SMDPad,CuDef*%
%ADD30R,1.700000X1.000000*%
%TD*%
%TA.AperFunction,ComponentPad*%
%ADD31R,1.700000X1.700000*%
%TD*%
%TA.AperFunction,ComponentPad*%
%ADD32C,1.700000*%
%TD*%
%TA.AperFunction,SMDPad,CuDef*%
%ADD33R,1.000000X1.700000*%
%TD*%
%TA.AperFunction,SMDPad,CuDef*%
%ADD34R,1.500000X0.900000*%
%TD*%
%TA.AperFunction,SMDPad,CuDef*%
%ADD35R,0.900000X1.500000*%
%TD*%
%TA.AperFunction,HeatsinkPad*%
%ADD36C,0.600000*%
%TD*%
%TA.AperFunction,HeatsinkPad*%
%ADD37R,3.900000X3.900000*%
%TD*%
%TA.AperFunction,SMDPad,CuDef*%
%ADD38RoundRect,0.225000X0.225000X0.250000X-0.225000X0.250000X-0.225000X-0.250000X0.225000X-0.250000X0*%
%TD*%
%TA.AperFunction,SMDPad,CuDef*%
%ADD39RoundRect,0.225000X0.250000X-0.225000X0.250000X0.225000X-0.250000X0.225000X-0.250000X-0.225000X0*%
%TD*%
%TA.AperFunction,SMDPad,CuDef*%
%ADD40RoundRect,0.250000X0.650000X-1.000000X0.650000X1.000000X-0.650000X1.000000X-0.650000X-1.000000X0*%
%TD*%
%TA.AperFunction,ViaPad*%
%ADD41C,0.600000*%
%TD*%
%TA.AperFunction,Conductor*%
%ADD42C,0.200000*%
%TD*%
G04 APERTURE END LIST*
D10*
%TO.P,L1,1*%
%TO.N,Net-(D9-K)*%
X153500000Y-111500000D03*
%TO.P,L1,2*%
%TO.N,+3V3*%
X153500000Y-116000000D03*
%TD*%
D11*
%TO.P,J3,1,Pin_1_1*%
%TO.N,GND*%
X125000000Y-94960000D03*
D12*
%TO.P,J3,2,Pin_2_2*%
%TO.N,Net-(D8-COM)*%
X125000000Y-97500000D03*
%TD*%
D13*
%TO.P,C11,1*%
%TO.N,GND*%
X140500000Y-85225000D03*
%TO.P,C11,2*%
%TO.N,/MCU_EN*%
X140500000Y-86775000D03*
%TD*%
D14*
%TO.P,R1,1*%
%TO.N,Net-(J2-CC1)*%
X188500000Y-118675000D03*
%TO.P,R1,2*%
%TO.N,GND*%
X188500000Y-120325000D03*
%TD*%
D15*
%TO.P,J_VALVE1,1,Pin_1_1*%
%TO.N,/VALVE1_SW_B*%
X166000000Y-155500000D03*
D16*
%TO.P,J_VALVE1,2,Pin_2_2*%
%TO.N,+3V3*%
X168500000Y-155500000D03*
%TO.P,J_VALVE1,3,Pin_3_3*%
%TO.N,/VALVE1_SW_A*%
X171000000Y-155500000D03*
%TD*%
D13*
%TO.P,C13,1*%
%TO.N,/MCU_EN*%
X189000000Y-90225000D03*
%TO.P,C13,2*%
%TO.N,GND*%
X189000000Y-91775000D03*
%TD*%
%TO.P,C1,1*%
%TO.N,GND*%
X143000000Y-82225000D03*
%TO.P,C1,2*%
%TO.N,+3V3*%
X143000000Y-83775000D03*
%TD*%
D17*
%TO.P,D_SYS1,1,DOUT_1*%
%TO.N,unconnected-(D_SYS1-DOUT-Pad1)*%
X181085000Y-84950000D03*
%TO.P,D_SYS1,2,VSS_2*%
%TO.N,GND*%
X181085000Y-86050000D03*
%TO.P,D_SYS1,3,DIN_3*%
%TO.N,Net-(D_FLOAT1-DOUT)*%
X182915000Y-86050000D03*
%TO.P,D_SYS1,4,VDD_4*%
%TO.N,+3V3*%
X182915000Y-84950000D03*
%TD*%
D13*
%TO.P,C19,1*%
%TO.N,+3V3*%
X178000000Y-84725000D03*
%TO.P,C19,2*%
%TO.N,GND*%
X178000000Y-86275000D03*
%TD*%
D18*
%TO.P,U2,1,VIN_1*%
%TO.N,VBUS*%
X163405000Y-123025000D03*
%TO.P,U2,2,OUT_2*%
%TO.N,Net-(D9-K)*%
X162135000Y-123025000D03*
%TO.P,U2,3,FB_3*%
%TO.N,+3V3*%
X160865000Y-123025000D03*
%TO.P,U2,4,~{EN}_4*%
%TO.N,GND*%
X159595000Y-123025000D03*
%TO.P,U2,5,GND_5*%
X159595000Y-127975000D03*
%TO.P,U2,6,GND_6*%
X160865000Y-127975000D03*
%TO.P,U2,7,GND_7*%
X162135000Y-127975000D03*
%TO.P,U2,8,GND_8*%
X163405000Y-127975000D03*
%TD*%
D19*
%TO.P,R4,1*%
%TO.N,Net-(D1-A1)*%
X148500000Y-100825000D03*
%TO.P,R4,2*%
%TO.N,/USB_D+*%
X148500000Y-99175000D03*
%TD*%
D20*
%TO.P,D6,1,A_1*%
%TO.N,GND*%
X131050000Y-119000000D03*
%TO.P,D6,2,K_2*%
%TO.N,+3V3*%
X132950000Y-119000000D03*
%TO.P,D6,3,COM_3*%
%TO.N,Net-(D6-COM)*%
X132000000Y-117125000D03*
%TD*%
D21*
%TO.P,R10,1*%
%TO.N,Net-(D8-COM)*%
X146175000Y-87000000D03*
%TO.P,R10,2*%
%TO.N,/PUMP1_SSR*%
X147825000Y-87000000D03*
%TD*%
D22*
%TO.P,D1,1,A1_1*%
%TO.N,Net-(D1-A1)*%
X185500000Y-119500000D03*
%TO.P,D1,2,A2_2*%
%TO.N,GND*%
X185500000Y-120340000D03*
%TD*%
D23*
%TO.P,J2,A1,GND_A1*%
%TO.N,GND*%
X193455000Y-119930000D03*
%TO.P,J2,A4,VBUS_A4*%
%TO.N,VBUS*%
X193455000Y-119130000D03*
D24*
%TO.P,J2,A5,CC1_A5*%
%TO.N,Net-(J2-CC1)*%
X193455000Y-117930000D03*
%TO.P,J2,A6,D+_A6*%
%TO.N,Net-(D1-A1)*%
X193455000Y-116930000D03*
%TO.P,J2,A7,D-_A7*%
%TO.N,Net-(D2-A1)*%
X193455000Y-116430000D03*
%TO.P,J2,A8,SBU1_A8*%
%TO.N,unconnected-(J2-SBU1-PadA8)*%
X193455000Y-115430000D03*
D23*
%TO.P,J2,A9,VBUS_A9*%
%TO.N,VBUS*%
X193455000Y-114230000D03*
%TO.P,J2,A12,GND_A12*%
%TO.N,GND*%
X193455000Y-113430000D03*
%TO.P,J2,B1,GND_B1*%
X193455000Y-113430000D03*
%TO.P,J2,B4,VBUS_B4*%
%TO.N,VBUS*%
X193455000Y-114230000D03*
D24*
%TO.P,J2,B5,CC2_B5*%
%TO.N,Net-(J2-CC2)*%
X193455000Y-114930000D03*
%TO.P,J2,B6,D+_B6*%
%TO.N,Net-(D1-A1)*%
X193455000Y-115930000D03*
%TO.P,J2,B7,D-_B7*%
%TO.N,Net-(D2-A1)*%
X193455000Y-117430000D03*
%TO.P,J2,B8,SBU2_B8*%
%TO.N,unconnected-(J2-SBU2-PadB8)*%
X193455000Y-118430000D03*
D23*
%TO.P,J2,B9,VBUS_B9*%
%TO.N,VBUS*%
X193455000Y-119130000D03*
%TO.P,J2,B12,GND_B12*%
%TO.N,GND*%
X193455000Y-119930000D03*
D25*
%TO.P,J2,SH,SHIELD_SH*%
X194370000Y-121000000D03*
D26*
X198550000Y-121000000D03*
D25*
X194370000Y-112360000D03*
D26*
X198550000Y-112360000D03*
%TD*%
D19*
%TO.P,R8,1*%
%TO.N,Net-(D6-COM)*%
X158000000Y-105000000D03*
%TO.P,R8,2*%
%TO.N,/LIGHT1_SSR*%
X158000000Y-103350000D03*
%TD*%
D15*
%TO.P,J_PUMP1,1,Pin_1_1*%
%TO.N,/PUMP1_SW_B*%
X136000000Y-155500000D03*
D16*
%TO.P,J_PUMP1,2,Pin_2_2*%
%TO.N,+3V3*%
X138500000Y-155500000D03*
%TO.P,J_PUMP1,3,Pin_3_3*%
%TO.N,/PUMP1_SW_A*%
X141000000Y-155500000D03*
%TD*%
D11*
%TO.P,J4,1,Pin_1_1*%
%TO.N,GND*%
X124960000Y-101960000D03*
D12*
%TO.P,J4,2,Pin_2_2*%
%TO.N,Net-(D4-COM)*%
X124960000Y-104500000D03*
%TD*%
D27*
%TO.P,C8,1*%
%TO.N,VBUS*%
X173500000Y-123300000D03*
%TO.P,C8,2*%
%TO.N,GND*%
X173500000Y-128700000D03*
%TD*%
D20*
%TO.P,D7,1,A_1*%
%TO.N,GND*%
X187550000Y-138437500D03*
%TO.P,D7,2,K_2*%
%TO.N,+3V3*%
X189450000Y-138437500D03*
%TO.P,D7,3,COM_3*%
%TO.N,Net-(D7-COM)*%
X188500000Y-136562500D03*
%TD*%
D28*
%TO.P,C17,1*%
%TO.N,+3V3*%
X182950000Y-139000000D03*
%TO.P,C17,2*%
%TO.N,GND*%
X184500000Y-139000000D03*
%TD*%
D17*
%TO.P,D_PUMP1,1,DOUT_1*%
%TO.N,Net-(D_PUMP1-DOUT)*%
X139330000Y-144550000D03*
%TO.P,D_PUMP1,2,VSS_2*%
%TO.N,GND*%
X139330000Y-143450000D03*
%TO.P,D_PUMP1,3,DIN_3*%
%TO.N,Net-(D_PUMP1-DIN)*%
X137500000Y-143450000D03*
%TO.P,D_PUMP1,4,VDD_4*%
%TO.N,+3V3*%
X137500000Y-144550000D03*
%TD*%
D29*
%TO.P,J7,1,Pin_1_1*%
%TO.N,GND*%
X197000000Y-137000000D03*
D12*
%TO.P,J7,2,Pin_2_2*%
%TO.N,Net-(D7-COM)*%
X197000000Y-134460000D03*
%TD*%
D30*
%TO.P,SW_GPIO0,1,1_1*%
%TO.N,/GPIO0*%
X185150000Y-102900000D03*
X178850000Y-102900000D03*
%TO.P,SW_GPIO0,2,2_2*%
%TO.N,GND*%
X185150000Y-99100000D03*
X178850000Y-99100000D03*
%TD*%
D17*
%TO.P,D_FLOAT1,1,DOUT_1*%
%TO.N,Net-(D_FLOAT1-DOUT)*%
X197915000Y-144550000D03*
%TO.P,D_FLOAT1,2,VSS_2*%
%TO.N,GND*%
X197915000Y-143450000D03*
%TO.P,D_FLOAT1,3,DIN_3*%
%TO.N,Net-(D_FLOAT1-DIN)*%
X196085000Y-143450000D03*
%TO.P,D_FLOAT1,4,VDD_4*%
%TO.N,+3V3*%
X196085000Y-144550000D03*
%TD*%
D21*
%TO.P,R11,1*%
%TO.N,Net-(D4-COM)*%
X146175000Y-91500000D03*
%TO.P,R11,2*%
%TO.N,/PUMP2_SSR*%
X147825000Y-91500000D03*
%TD*%
D19*
%TO.P,R3,1*%
%TO.N,Net-(D2-A1)*%
X146500000Y-100825000D03*
%TO.P,R3,2*%
%TO.N,/USB_D-*%
X146500000Y-99175000D03*
%TD*%
D31*
%TO.P,J1,1,Pin_1_1*%
%TO.N,/DEBUG_NET*%
X199000000Y-105540000D03*
D32*
%TO.P,J1,2,Pin_2_2*%
%TO.N,/DEBUG_OPERATE*%
X196460000Y-105540000D03*
%TO.P,J1,3,Pin_3_3*%
%TO.N,/DEBUG_RESET*%
X199000000Y-103000000D03*
%TO.P,J1,4,Pin_4_4*%
%TO.N,/DEBUG_CFG*%
X196460000Y-103000000D03*
%TO.P,J1,5,Pin_5_5*%
%TO.N,/DEBUG_EVAL*%
X199000000Y-100460000D03*
%TO.P,J1,6,Pin_6_6*%
%TO.N,/DEBUG_TASKS*%
X196460000Y-100460000D03*
%TO.P,J1,7,Pin_7_7*%
%TO.N,/DEBUG_IO*%
X199000000Y-97920000D03*
%TO.P,J1,8,Pin_8_8*%
%TO.N,/DEBUG_SYS_LED*%
X196460000Y-97920000D03*
%TO.P,J1,9,Pin_9_9*%
%TO.N,unconnected-(J1-Pin_9-Pad9)*%
X199000000Y-95380000D03*
%TO.P,J1,10,Pin_10_10*%
%TO.N,/DEBUG_LEAK*%
X196460000Y-95380000D03*
%TD*%
D13*
%TO.P,C5,1*%
%TO.N,VBUS*%
X180500000Y-115725000D03*
%TO.P,C5,2*%
%TO.N,GND*%
X180500000Y-117275000D03*
%TD*%
D20*
%TO.P,D4,1,A_1*%
%TO.N,GND*%
X131100000Y-104437500D03*
%TO.P,D4,2,K_2*%
%TO.N,+3V3*%
X133000000Y-104437500D03*
%TO.P,D4,3,COM_3*%
%TO.N,Net-(D4-COM)*%
X132050000Y-102562500D03*
%TD*%
D33*
%TO.P,SW_RESET1,1,1_1*%
%TO.N,/RESET_BTN*%
X128800000Y-130700000D03*
X128800000Y-137000000D03*
%TO.P,SW_RESET1,2,2_2*%
%TO.N,GND*%
X125000000Y-130700000D03*
X125000000Y-137000000D03*
%TD*%
D13*
%TO.P,C4,1*%
%TO.N,GND*%
X148500000Y-82225000D03*
%TO.P,C4,2*%
%TO.N,+3V3*%
X148500000Y-83775000D03*
%TD*%
D20*
%TO.P,D5,1,A_1*%
%TO.N,GND*%
X131050000Y-111937500D03*
%TO.P,D5,2,K_2*%
%TO.N,+3V3*%
X132950000Y-111937500D03*
%TO.P,D5,3,COM_3*%
%TO.N,Net-(D5-COM)*%
X132000000Y-110062500D03*
%TD*%
D11*
%TO.P,J6,1,Pin_1_1*%
%TO.N,GND*%
X125000000Y-116000000D03*
D12*
%TO.P,J6,2,Pin_2_2*%
%TO.N,Net-(D6-COM)*%
X125000000Y-118540000D03*
%TD*%
D34*
%TO.P,U1,1,GND_1*%
%TO.N,GND*%
X151000000Y-82420000D03*
%TO.P,U1,2,3V3_2*%
%TO.N,+3V3*%
X151000000Y-83690000D03*
%TO.P,U1,3,EN_3*%
%TO.N,/MCU_EN*%
X151000000Y-84960000D03*
%TO.P,U1,4,IO4_4*%
%TO.N,/PUMP1_SSR*%
X151000000Y-86230000D03*
%TO.P,U1,5,IO5_5*%
%TO.N,/PUMP1_SW_A*%
X151000000Y-87500000D03*
%TO.P,U1,6,IO6_6*%
%TO.N,/PUMP1_SW_B*%
X151000000Y-88770000D03*
%TO.P,U1,7,IO7_7*%
%TO.N,/PUMP2_SSR*%
X151000000Y-90040000D03*
%TO.P,U1,8,IO15_8*%
%TO.N,/PUMP2_SW_A*%
X151000000Y-91310000D03*
%TO.P,U1,9,IO16_9*%
%TO.N,/PUMP2_SW_B*%
X151000000Y-92580000D03*
%TO.P,U1,10,IO17_10*%
%TO.N,/VALVE1_SSR*%
X151000000Y-93850000D03*
%TO.P,U1,11,IO18_11*%
%TO.N,/VALVE1_SW_A*%
X151000000Y-95120000D03*
%TO.P,U1,12,IO8_12*%
%TO.N,/VALVE1_SW_B*%
X151000000Y-96390000D03*
%TO.P,U1,13,USB_D-_13*%
%TO.N,/USB_D-*%
X151000000Y-97660000D03*
%TO.P,U1,14,USB_D+_14*%
%TO.N,/USB_D+*%
X151000000Y-98930000D03*
D35*
%TO.P,U1,15,IO3_15*%
%TO.N,unconnected-(U1-IO3-Pad15)*%
X152765000Y-100180000D03*
%TO.P,U1,16,IO46_16*%
%TO.N,unconnected-(U1-IO46-Pad16)*%
X154035000Y-100180000D03*
%TO.P,U1,17,IO9_17*%
%TO.N,/FLOAT_SENS*%
X155305000Y-100180000D03*
%TO.P,U1,18,IO10_18*%
%TO.N,/LED_DATA*%
X156575000Y-100180000D03*
%TO.P,U1,19,IO11_19*%
%TO.N,/LIGHT1_SSR*%
X157845000Y-100180000D03*
%TO.P,U1,20,IO12_20*%
%TO.N,/LIGHT1_SW_A*%
X159115000Y-100180000D03*
%TO.P,U1,21,IO13_21*%
%TO.N,/LIGHT1_SW_B*%
X160385000Y-100180000D03*
%TO.P,U1,22,IO14_22*%
%TO.N,/RESET_BTN*%
X161655000Y-100180000D03*
%TO.P,U1,23,IO21_23*%
%TO.N,/DEBUG_OPERATE*%
X162925000Y-100180000D03*
%TO.P,U1,24,IO47_24*%
%TO.N,/DEBUG_RESET*%
X164195000Y-100180000D03*
%TO.P,U1,25,IO48_25*%
%TO.N,/DEBUG_NET*%
X165465000Y-100180000D03*
%TO.P,U1,26,IO45_26*%
%TO.N,unconnected-(U1-IO45-Pad26)*%
X166735000Y-100180000D03*
D34*
%TO.P,U1,27,IO0_27*%
%TO.N,/GPIO0*%
X168500000Y-98930000D03*
%TO.P,U1,28,IO35_28*%
%TO.N,/DEBUG_CFG*%
X168500000Y-97660000D03*
%TO.P,U1,29,IO36_29*%
%TO.N,/DEBUG_TASKS*%
X168500000Y-96390000D03*
%TO.P,U1,30,IO37_30*%
%TO.N,/DEBUG_SYS_LED*%
X168500000Y-95120000D03*
%TO.P,U1,31,IO38_31*%
%TO.N,/DEBUG_LEAK*%
X168500000Y-93850000D03*
%TO.P,U1,32,IO39_32*%
%TO.N,unconnected-(U1-IO39-Pad32)*%
X168500000Y-92580000D03*
%TO.P,U1,33,IO40_33*%
%TO.N,unconnected-(U1-IO40-Pad33)*%
X168500000Y-91310000D03*
%TO.P,U1,34,IO41_34*%
%TO.N,unconnected-(U1-IO41-Pad34)*%
X168500000Y-90040000D03*
%TO.P,U1,35,IO42_35*%
%TO.N,unconnected-(U1-IO42-Pad35)*%
X168500000Y-88770000D03*
%TO.P,U1,36,RXD0_36*%
%TO.N,unconnected-(U1-RXD0-Pad36)*%
X168500000Y-87500000D03*
%TO.P,U1,37,TXD0_37*%
%TO.N,unconnected-(U1-TXD0-Pad37)*%
X168500000Y-86230000D03*
%TO.P,U1,38,IO2_38*%
%TO.N,/DEBUG_IO*%
X168500000Y-84960000D03*
%TO.P,U1,39,IO1_39*%
%TO.N,/DEBUG_EVAL*%
X168500000Y-83690000D03*
%TO.P,U1,40,GND_40*%
%TO.N,GND*%
X168500000Y-82420000D03*
D36*
%TO.P,U1,41,GND_41*%
X156850000Y-89440000D03*
X156850000Y-90840000D03*
X157550000Y-88740000D03*
X157550000Y-90140000D03*
X157550000Y-91540000D03*
X158250000Y-89440000D03*
D37*
X158250000Y-90140000D03*
D36*
X158250000Y-90840000D03*
X158950000Y-88740000D03*
X158950000Y-90140000D03*
X158950000Y-91540000D03*
X159650000Y-89440000D03*
X159650000Y-90840000D03*
%TD*%
D17*
%TO.P,D_VALVE1,1,DOUT_1*%
%TO.N,Net-(D_LIGHT1-DIN)*%
X169500000Y-144550000D03*
%TO.P,D_VALVE1,2,VSS_2*%
%TO.N,GND*%
X169500000Y-143450000D03*
%TO.P,D_VALVE1,3,DIN_3*%
%TO.N,Net-(D_PUMP2-DOUT)*%
X167670000Y-143450000D03*
%TO.P,D_VALVE1,4,VDD_4*%
%TO.N,+3V3*%
X167670000Y-144550000D03*
%TD*%
D20*
%TO.P,D8,1,A_1*%
%TO.N,GND*%
X131050000Y-97500000D03*
%TO.P,D8,2,K_2*%
%TO.N,+3V3*%
X132950000Y-97500000D03*
%TO.P,D8,3,COM_3*%
%TO.N,Net-(D8-COM)*%
X132000000Y-95625000D03*
%TD*%
D19*
%TO.P,R6,1*%
%TO.N,Net-(D7-COM)*%
X147500000Y-106500000D03*
%TO.P,R6,2*%
%TO.N,/FLOAT_SENS*%
X147500000Y-104850000D03*
%TD*%
D15*
%TO.P,J_PUMP2,1,Pin_1_1*%
%TO.N,/PUMP2_SW_B*%
X151000000Y-155500000D03*
D16*
%TO.P,J_PUMP2,2,Pin_2_2*%
%TO.N,+3V3*%
X153500000Y-155500000D03*
%TO.P,J_PUMP2,3,Pin_3_3*%
%TO.N,/PUMP2_SW_A*%
X156000000Y-155500000D03*
%TD*%
D13*
%TO.P,C2,1*%
%TO.N,GND*%
X145500000Y-82225000D03*
%TO.P,C2,2*%
%TO.N,+3V3*%
X145500000Y-83775000D03*
%TD*%
D27*
%TO.P,C9,1*%
%TO.N,+3V3*%
X145500000Y-122800000D03*
%TO.P,C9,2*%
%TO.N,GND*%
X145500000Y-128200000D03*
%TD*%
D11*
%TO.P,J5,1,Pin_1_1*%
%TO.N,GND*%
X125000000Y-109000000D03*
D12*
%TO.P,J5,2,Pin_2_2*%
%TO.N,Net-(D5-COM)*%
X125000000Y-111540000D03*
%TD*%
D14*
%TO.P,R5,1*%
%TO.N,/FLOAT_SENS*%
X151000000Y-104850000D03*
%TO.P,R5,2*%
%TO.N,+3V3*%
X151000000Y-106500000D03*
%TD*%
D17*
%TO.P,D_LIGHT1,1,DOUT_1*%
%TO.N,Net-(D_FLOAT1-DIN)*%
X184500000Y-144550000D03*
%TO.P,D_LIGHT1,2,VSS_2*%
%TO.N,GND*%
X184500000Y-143450000D03*
%TO.P,D_LIGHT1,3,DIN_3*%
%TO.N,Net-(D_LIGHT1-DIN)*%
X182670000Y-143450000D03*
%TO.P,D_LIGHT1,4,VDD_4*%
%TO.N,+3V3*%
X182670000Y-144550000D03*
%TD*%
D38*
%TO.P,C20,1*%
%TO.N,/RESET_BTN*%
X127550000Y-139500000D03*
%TO.P,C20,2*%
%TO.N,GND*%
X126000000Y-139500000D03*
%TD*%
D13*
%TO.P,C10,1*%
%TO.N,/FLOAT_SENS*%
X144500000Y-104950000D03*
%TO.P,C10,2*%
%TO.N,GND*%
X144500000Y-106500000D03*
%TD*%
D19*
%TO.P,R7,1*%
%TO.N,/MCU_EN*%
X143000000Y-86825000D03*
%TO.P,R7,2*%
%TO.N,+3V3*%
X143000000Y-85175000D03*
%TD*%
D28*
%TO.P,C16,1*%
%TO.N,+3V3*%
X167725000Y-139000000D03*
%TO.P,C16,2*%
%TO.N,GND*%
X169275000Y-139000000D03*
%TD*%
%TO.P,C14,1*%
%TO.N,+3V3*%
X137450000Y-139000000D03*
%TO.P,C14,2*%
%TO.N,GND*%
X139000000Y-139000000D03*
%TD*%
D13*
%TO.P,C7,1*%
%TO.N,+3V3*%
X153000000Y-123725000D03*
%TO.P,C7,2*%
%TO.N,GND*%
X153000000Y-125275000D03*
%TD*%
D22*
%TO.P,D3,1,A1_1*%
%TO.N,VBUS*%
X183500000Y-119500000D03*
%TO.P,D3,2,A2_2*%
%TO.N,GND*%
X183500000Y-120340000D03*
%TD*%
D28*
%TO.P,C15,1*%
%TO.N,+3V3*%
X152950000Y-139000000D03*
%TO.P,C15,2*%
%TO.N,GND*%
X154500000Y-139000000D03*
%TD*%
D19*
%TO.P,R2,1*%
%TO.N,Net-(J2-CC2)*%
X188500000Y-114325000D03*
%TO.P,R2,2*%
%TO.N,GND*%
X188500000Y-112675000D03*
%TD*%
D17*
%TO.P,D_PUMP2,1,DOUT_1*%
%TO.N,Net-(D_PUMP2-DOUT)*%
X154500000Y-144550000D03*
%TO.P,D_PUMP2,2,VSS_2*%
%TO.N,GND*%
X154500000Y-143450000D03*
%TO.P,D_PUMP2,3,DIN_3*%
%TO.N,Net-(D_PUMP1-DOUT)*%
X152670000Y-143450000D03*
%TO.P,D_PUMP2,4,VDD_4*%
%TO.N,+3V3*%
X152670000Y-144550000D03*
%TD*%
D28*
%TO.P,C18,1*%
%TO.N,+3V3*%
X196225000Y-148500000D03*
%TO.P,C18,2*%
%TO.N,GND*%
X197775000Y-148500000D03*
%TD*%
D39*
%TO.P,C12,1*%
%TO.N,/GPIO0*%
X188650000Y-102375000D03*
%TO.P,C12,2*%
%TO.N,GND*%
X188650000Y-100825000D03*
%TD*%
D13*
%TO.P,C3,1*%
%TO.N,GND*%
X147000000Y-82225000D03*
%TO.P,C3,2*%
%TO.N,+3V3*%
X147000000Y-83775000D03*
%TD*%
D40*
%TO.P,D9,1,K_1*%
%TO.N,Net-(D9-K)*%
X162000000Y-116000000D03*
%TO.P,D9,2,A_2*%
%TO.N,GND*%
X162000000Y-112000000D03*
%TD*%
D15*
%TO.P,J_LIGHT1,1,Pin_1_1*%
%TO.N,/LIGHT1_SW_B*%
X181000000Y-155500000D03*
D16*
%TO.P,J_LIGHT1,2,Pin_2_2*%
%TO.N,+3V3*%
X183500000Y-155500000D03*
%TO.P,J_LIGHT1,3,Pin_3_3*%
%TO.N,/LIGHT1_SW_A*%
X186000000Y-155500000D03*
%TD*%
D21*
%TO.P,R12,1*%
%TO.N,Net-(D_PUMP1-DIN)*%
X154350000Y-107500000D03*
%TO.P,R12,2*%
%TO.N,/LED_DATA*%
X156000000Y-107500000D03*
%TD*%
%TO.P,R9,1*%
%TO.N,Net-(D5-COM)*%
X146175000Y-94500000D03*
%TO.P,R9,2*%
%TO.N,/VALVE1_SSR*%
X147825000Y-94500000D03*
%TD*%
D13*
%TO.P,C6,1*%
%TO.N,VBUS*%
X167500000Y-124225000D03*
%TO.P,C6,2*%
%TO.N,GND*%
X167500000Y-125775000D03*
%TD*%
D22*
%TO.P,D2,1,A1_1*%
%TO.N,Net-(D2-A1)*%
X184500000Y-119500000D03*
%TO.P,D2,2,A2_2*%
%TO.N,GND*%
X184500000Y-120340000D03*
%TD*%
D30*
%TO.P,SW_MCU_EN1,1,1_1*%
%TO.N,/MCU_EN*%
X179200000Y-89200000D03*
X185500000Y-89200000D03*
%TO.P,SW_MCU_EN1,2,2_2*%
%TO.N,GND*%
X179200000Y-93000000D03*
X185500000Y-93000000D03*
%TD*%
D41*
%TO.N,GND*%
X129500000Y-97500000D03*
X158500000Y-111500000D03*
X129500000Y-118000000D03*
X129500000Y-112500000D03*
X197000000Y-141500000D03*
X167500000Y-118000000D03*
X193000000Y-130000000D03*
X147500000Y-111500000D03*
X187500000Y-93500000D03*
X125000000Y-122500000D03*
X187500000Y-99500000D03*
X170000000Y-121500000D03*
X129500000Y-105000000D03*
X190000000Y-111000000D03*
%TO.N,Net-(D8-COM)*%
X135000000Y-93500000D03*
X144500000Y-88500000D03*
%TO.N,/MCU_EN*%
X173500000Y-92500000D03*
X180000000Y-87500000D03*
X147000000Y-85110000D03*
X184000000Y-87500000D03*
%TO.N,/VALVE1_SW_B*%
X147500000Y-114500000D03*
X166000000Y-149000000D03*
%TO.N,+3V3*%
X186500000Y-136000000D03*
X153500000Y-140500000D03*
X161000000Y-145000000D03*
X189500000Y-140500000D03*
X161000000Y-139000000D03*
X167500000Y-141000000D03*
X176000000Y-83500000D03*
X155100000Y-140500000D03*
X193500000Y-144500000D03*
X138000000Y-84000000D03*
X152000000Y-126500000D03*
X170400000Y-141000000D03*
X152000000Y-121000000D03*
X141500000Y-84000000D03*
%TO.N,/VALVE1_SW_A*%
X147500000Y-113500000D03*
X146500000Y-95940000D03*
X145500000Y-97500000D03*
X171000000Y-149000000D03*
%TO.N,Net-(D_FLOAT1-DOUT)*%
X191500000Y-139000000D03*
X191500000Y-108000000D03*
X190000000Y-86500000D03*
X186500000Y-118000000D03*
%TO.N,VBUS*%
X195000000Y-116500000D03*
X183500000Y-115500000D03*
%TO.N,Net-(D1-A1)*%
X185500000Y-116000000D03*
X167500000Y-108500000D03*
X192000000Y-117000000D03*
X148500000Y-101900000D03*
X191000000Y-116000000D03*
%TO.N,Net-(D6-COM)*%
X158000000Y-106300000D03*
X135000000Y-115000000D03*
%TO.N,Net-(D2-A1)*%
X184500000Y-117000000D03*
X187500000Y-117000000D03*
X146500000Y-102500000D03*
X167500000Y-109500000D03*
%TO.N,/PUMP1_SW_B*%
X139000000Y-119500000D03*
X138500000Y-124400000D03*
X139000000Y-112000000D03*
X142000000Y-90000000D03*
X136000000Y-149000000D03*
X147500000Y-89000000D03*
%TO.N,/PUMP1_SW_A*%
X140000000Y-112000000D03*
X140000000Y-119500000D03*
X141000000Y-149000000D03*
X141000000Y-124000000D03*
%TO.N,Net-(D4-COM)*%
X144500000Y-92000000D03*
X134950000Y-100550000D03*
%TO.N,Net-(D7-COM)*%
X148000000Y-109000000D03*
X177500000Y-131000000D03*
%TO.N,Net-(D_PUMP1-DIN)*%
X135500000Y-126500000D03*
X152500000Y-107500000D03*
%TO.N,/DEBUG_NET*%
X193000000Y-104400000D03*
%TO.N,/DEBUG_EVAL*%
X190500000Y-89500000D03*
X176000000Y-89000000D03*
%TO.N,/DEBUG_IO*%
X190000000Y-93500000D03*
X176000000Y-91000000D03*
%TO.N,/RESET_BTN*%
X163174265Y-102825735D03*
X134000000Y-126500000D03*
%TO.N,Net-(D5-COM)*%
X135000000Y-108000000D03*
X144500000Y-94500000D03*
%TO.N,/PUMP2_SW_A*%
X147500000Y-115500000D03*
X156000000Y-149000000D03*
%TO.N,/PUMP2_SW_B*%
X142000000Y-112000000D03*
X151000000Y-149000000D03*
X142000000Y-108174265D03*
X147500000Y-116500000D03*
%TO.N,/LIGHT1_SW_A*%
X183000000Y-112500000D03*
X185500000Y-148500000D03*
%TO.N,/LIGHT1_SW_B*%
X178000000Y-107500000D03*
X181000000Y-148500000D03*
%TD*%
%TO.N,GND*%
D42*
X130062500Y-104437500D02*
X129500000Y-105000000D01*
X168500000Y-82570000D02*
X172570000Y-82570000D01*
X158250000Y-90290000D02*
X165970000Y-82570000D01*
X141280000Y-141500000D02*
X154500000Y-141500000D01*
X170000000Y-121500000D02*
X170000000Y-125500000D01*
X188650000Y-100825000D02*
X188650000Y-100650000D01*
X196982500Y-147707500D02*
X196982500Y-142517500D01*
X178000000Y-86275000D02*
X180860000Y-86275000D01*
X158500000Y-111500000D02*
X159000000Y-111500000D01*
X148500000Y-82225000D02*
X147000000Y-82225000D01*
X187500000Y-141000000D02*
X187550000Y-140950000D01*
X156000000Y-125000000D02*
X156000000Y-124500000D01*
X158000000Y-123000000D02*
X158025000Y-123025000D01*
X193455000Y-119930000D02*
X193455000Y-120085000D01*
X191240000Y-128700000D02*
X173500000Y-128700000D01*
X180860000Y-86275000D02*
X181085000Y-86050000D01*
X173200000Y-128700000D02*
X170275000Y-125775000D01*
X159500000Y-112000000D02*
X162000000Y-112000000D01*
X153000000Y-125275000D02*
X148425000Y-125275000D01*
X157500000Y-123000000D02*
X158000000Y-123000000D01*
X173500000Y-128700000D02*
X173200000Y-128700000D01*
X142300000Y-125000000D02*
X129500000Y-125000000D01*
X173500000Y-134550000D02*
X173500000Y-128700000D01*
X187500000Y-142000000D02*
X187500000Y-141000000D01*
X154500000Y-141500000D02*
X154500000Y-139000000D01*
X129500000Y-125000000D02*
X125000000Y-125000000D01*
X140500000Y-85225000D02*
X140500000Y-82500000D01*
X187550000Y-140950000D02*
X187550000Y-138437500D01*
X158250000Y-90290000D02*
X158250000Y-88140000D01*
X165970000Y-82570000D02*
X168500000Y-82570000D01*
X184500000Y-120340000D02*
X185500000Y-120340000D01*
X151000000Y-82570000D02*
X150930000Y-82500000D01*
X158250000Y-88140000D02*
X152680000Y-82570000D01*
X125000000Y-137000000D02*
X125000000Y-138500000D01*
X139000000Y-134700000D02*
X145500000Y-128200000D01*
X148775000Y-82500000D02*
X148500000Y-82225000D01*
X184500000Y-139000000D02*
X186987500Y-139000000D01*
X184500000Y-139000000D02*
X184500000Y-143450000D01*
X172570000Y-82570000D02*
X175500000Y-85500000D01*
X187225000Y-91775000D02*
X189000000Y-91775000D01*
X176000000Y-85550000D02*
X176725000Y-86275000D01*
X169275000Y-139000000D02*
X169275000Y-143225000D01*
X179200000Y-93000000D02*
X185500000Y-93000000D01*
X197775000Y-148500000D02*
X196982500Y-147707500D01*
X188650000Y-100825000D02*
X186875000Y-100825000D01*
X125000000Y-125000000D02*
X125000000Y-122500000D01*
X139000000Y-139000000D02*
X139000000Y-134700000D01*
X160865000Y-127975000D02*
X159595000Y-127975000D01*
X194370000Y-112360000D02*
X198550000Y-112360000D01*
X197915000Y-143450000D02*
X196982500Y-142517500D01*
X140775000Y-82225000D02*
X143000000Y-82225000D01*
X185855000Y-120325000D02*
X188500000Y-120325000D01*
X179200000Y-93000000D02*
X181085000Y-91115000D01*
X159595000Y-127975000D02*
X158475000Y-127975000D01*
X185840000Y-120340000D02*
X185855000Y-120325000D01*
X175500000Y-85500000D02*
X176000000Y-85500000D01*
X162000000Y-112000000D02*
X167500000Y-117500000D01*
X183500000Y-120340000D02*
X175140000Y-128700000D01*
X130487500Y-112500000D02*
X131050000Y-111937500D01*
X129500000Y-119000000D02*
X131050000Y-119000000D01*
X150930000Y-82500000D02*
X148775000Y-82500000D01*
X181085000Y-91115000D02*
X181085000Y-86050000D01*
X185150000Y-99100000D02*
X178850000Y-99100000D01*
X129500000Y-119000000D02*
X129500000Y-118000000D01*
X156000000Y-125500000D02*
X156000000Y-125000000D01*
X167500000Y-125775000D02*
X165605000Y-125775000D01*
X156000000Y-124500000D02*
X157500000Y-123000000D01*
X193455000Y-113275000D02*
X194370000Y-112360000D01*
X190000000Y-111175000D02*
X190000000Y-111000000D01*
X185500000Y-93000000D02*
X187000000Y-93000000D01*
X175140000Y-128700000D02*
X173500000Y-128700000D01*
X192700000Y-112675000D02*
X193455000Y-113430000D01*
X186987500Y-139000000D02*
X187550000Y-138437500D01*
X145500000Y-128200000D02*
X142300000Y-125000000D01*
X131100000Y-104437500D02*
X130062500Y-104437500D01*
X183500000Y-120340000D02*
X184500000Y-120340000D01*
X165605000Y-125775000D02*
X163405000Y-127975000D01*
X196965000Y-141500000D02*
X197000000Y-141500000D01*
X188500000Y-112675000D02*
X190000000Y-111175000D01*
X193000000Y-130000000D02*
X192540000Y-130000000D01*
X170275000Y-125775000D02*
X167500000Y-125775000D01*
X144500000Y-106500000D02*
X144500000Y-108500000D01*
X158475000Y-127975000D02*
X156000000Y-125500000D01*
X167500000Y-117500000D02*
X167500000Y-118000000D01*
X144500000Y-108500000D02*
X147500000Y-111500000D01*
X155225000Y-125275000D02*
X153000000Y-125275000D01*
X188500000Y-120325000D02*
X193060000Y-120325000D01*
X154500000Y-139000000D02*
X154500000Y-133070000D01*
X176725000Y-86275000D02*
X178000000Y-86275000D01*
X129500000Y-112500000D02*
X130487500Y-112500000D01*
X180500000Y-117340000D02*
X183500000Y-120340000D01*
X154500000Y-143450000D02*
X154500000Y-141500000D01*
X155500000Y-125000000D02*
X155225000Y-125275000D01*
X159000000Y-111500000D02*
X159500000Y-112000000D01*
X152680000Y-82570000D02*
X151000000Y-82570000D01*
X169275000Y-139000000D02*
X169275000Y-138775000D01*
X176000000Y-85500000D02*
X176000000Y-85550000D01*
X131050000Y-97500000D02*
X129500000Y-97500000D01*
X145500000Y-82225000D02*
X143000000Y-82225000D01*
X125000000Y-138500000D02*
X126000000Y-139500000D01*
X129500000Y-125000000D02*
X129500000Y-119000000D01*
X198550000Y-121000000D02*
X198550000Y-112360000D01*
X125000000Y-137000000D02*
X125000000Y-130700000D01*
X186875000Y-100825000D02*
X185150000Y-99100000D01*
X185500000Y-93000000D02*
X186000000Y-93000000D01*
X169275000Y-143225000D02*
X169500000Y-143450000D01*
X154500000Y-133070000D02*
X159595000Y-127975000D01*
X188650000Y-100650000D02*
X187500000Y-99500000D01*
X139330000Y-143450000D02*
X141280000Y-141500000D01*
X162135000Y-127975000D02*
X160865000Y-127975000D01*
X192540000Y-130000000D02*
X191240000Y-128700000D01*
X193060000Y-120325000D02*
X193455000Y-119930000D01*
X196465000Y-142000000D02*
X187500000Y-142000000D01*
X156000000Y-125000000D02*
X155500000Y-125000000D01*
X185500000Y-120340000D02*
X185840000Y-120340000D01*
X169275000Y-138775000D02*
X173500000Y-134550000D01*
X148425000Y-125275000D02*
X145500000Y-128200000D01*
X194370000Y-121000000D02*
X198550000Y-121000000D01*
X140500000Y-82500000D02*
X140775000Y-82225000D01*
X196465000Y-142000000D02*
X196965000Y-141500000D01*
X193455000Y-113430000D02*
X193455000Y-113275000D01*
X186000000Y-93000000D02*
X187225000Y-91775000D01*
X147000000Y-82225000D02*
X145500000Y-82225000D01*
X196982500Y-142517500D02*
X196465000Y-142000000D01*
X187000000Y-93000000D02*
X187500000Y-93500000D01*
X170000000Y-125500000D02*
X170275000Y-125775000D01*
X163405000Y-127975000D02*
X162135000Y-127975000D01*
X193010000Y-119930000D02*
X193000000Y-119920000D01*
X125000000Y-130700000D02*
X125000000Y-125000000D01*
X188500000Y-112675000D02*
X192700000Y-112675000D01*
X180500000Y-117275000D02*
X180500000Y-117340000D01*
X193455000Y-120085000D02*
X194370000Y-121000000D01*
X158025000Y-123025000D02*
X159595000Y-123025000D01*
%TO.N,Net-(D8-COM)*%
X146000000Y-87000000D02*
X146175000Y-87000000D01*
X129000000Y-93500000D02*
X125000000Y-97500000D01*
X132000000Y-93500000D02*
X135000000Y-93500000D01*
X132000000Y-93500000D02*
X132000000Y-95625000D01*
X132000000Y-93500000D02*
X129000000Y-93500000D01*
X144500000Y-88500000D02*
X146000000Y-87000000D01*
%TO.N,/MCU_EN*%
X142625000Y-86775000D02*
X140500000Y-86775000D01*
X179200000Y-88300000D02*
X180000000Y-87500000D01*
X186725000Y-90225000D02*
X189000000Y-90225000D01*
X184000000Y-87700000D02*
X185500000Y-89200000D01*
X184000000Y-87500000D02*
X184000000Y-87700000D01*
X142675000Y-86825000D02*
X142625000Y-86775000D01*
X143000000Y-86825000D02*
X142675000Y-86825000D01*
X175900000Y-92500000D02*
X173500000Y-92500000D01*
X147000000Y-85110000D02*
X145390000Y-85110000D01*
X179200000Y-89200000D02*
X175900000Y-92500000D01*
X185700000Y-89200000D02*
X186725000Y-90225000D01*
X179200000Y-89200000D02*
X179200000Y-88300000D01*
X185500000Y-89200000D02*
X185700000Y-89200000D01*
X151000000Y-85110000D02*
X147000000Y-85110000D01*
X145390000Y-85110000D02*
X143675000Y-86825000D01*
X143675000Y-86825000D02*
X143000000Y-86825000D01*
%TO.N,Net-(J2-CC1)*%
X191825000Y-118675000D02*
X188500000Y-118675000D01*
X193455000Y-117930000D02*
X192570000Y-117930000D01*
X192570000Y-117930000D02*
X191825000Y-118675000D01*
%TO.N,/VALVE1_SW_B*%
X146000000Y-114500000D02*
X143500000Y-112000000D01*
X142540000Y-96540000D02*
X151000000Y-96540000D01*
X147500000Y-114500000D02*
X146000000Y-114500000D01*
X166000000Y-149000000D02*
X166000000Y-155500000D01*
X142500000Y-109500000D02*
X142600000Y-109400000D01*
X143500000Y-112000000D02*
X143500000Y-110500000D01*
X142600000Y-109400000D02*
X142600000Y-96600000D01*
X143500000Y-110500000D02*
X142500000Y-109500000D01*
X142600000Y-96600000D02*
X142540000Y-96540000D01*
%TO.N,+3V3*%
X148500000Y-83775000D02*
X147000000Y-83775000D01*
X137000000Y-104500000D02*
X137000000Y-97500000D01*
X189450000Y-140450000D02*
X189450000Y-138437500D01*
X167670000Y-144550000D02*
X162450000Y-144550000D01*
X161000000Y-146000000D02*
X161000000Y-145000000D01*
X137450000Y-139000000D02*
X137450000Y-139950000D01*
X182670000Y-146670000D02*
X183500000Y-147500000D01*
X167670000Y-146000000D02*
X167670000Y-148670000D01*
X153500000Y-149500000D02*
X153500000Y-155500000D01*
X152000000Y-121000000D02*
X153000000Y-120000000D01*
X149000000Y-110000000D02*
X149000000Y-120000000D01*
X146500000Y-118500000D02*
X137000000Y-118500000D01*
X178000000Y-84725000D02*
X179225000Y-83500000D01*
X137000000Y-112000000D02*
X136937500Y-111937500D01*
X182915000Y-83915000D02*
X182915000Y-84950000D01*
X137500000Y-149500000D02*
X138500000Y-150500000D01*
X138500000Y-150500000D02*
X138500000Y-155500000D01*
X196085000Y-144550000D02*
X196085000Y-148360000D01*
X137000000Y-97500000D02*
X132950000Y-97500000D01*
X137450000Y-139950000D02*
X138500000Y-141000000D01*
X151000000Y-106500000D02*
X151000000Y-108000000D01*
X182500000Y-83500000D02*
X182915000Y-83915000D01*
X160865000Y-119865000D02*
X160865000Y-123025000D01*
X180950000Y-141000000D02*
X170400000Y-141000000D01*
X182670000Y-144550000D02*
X182670000Y-146670000D01*
X153000000Y-120000000D02*
X149000000Y-120000000D01*
X142775000Y-84000000D02*
X143000000Y-83775000D01*
X182950000Y-139000000D02*
X180950000Y-141000000D01*
X152950000Y-139550000D02*
X152950000Y-139000000D01*
X152670000Y-148670000D02*
X153500000Y-149500000D01*
X167670000Y-144550000D02*
X167670000Y-146000000D01*
X139000000Y-140500000D02*
X152000000Y-140500000D01*
X160500000Y-119500000D02*
X160865000Y-119865000D01*
X137500000Y-144550000D02*
X137500000Y-146000000D01*
X182670000Y-144550000D02*
X177450000Y-144550000D01*
X193550000Y-144550000D02*
X196085000Y-144550000D01*
X151000000Y-83840000D02*
X148565000Y-83840000D01*
X152000000Y-140500000D02*
X153500000Y-140500000D01*
X136500000Y-119000000D02*
X132950000Y-119000000D01*
X138500000Y-141000000D02*
X139000000Y-140500000D01*
X167670000Y-148670000D02*
X168500000Y-149500000D01*
X196085000Y-148360000D02*
X196225000Y-148500000D01*
X146500000Y-146000000D02*
X137500000Y-146000000D01*
X183500000Y-147500000D02*
X183500000Y-155500000D01*
X149000000Y-120000000D02*
X148000000Y-120000000D01*
X152670000Y-144550000D02*
X147950000Y-144550000D01*
X153500000Y-116500000D02*
X153500000Y-119500000D01*
X141500000Y-84000000D02*
X142775000Y-84000000D01*
X155100000Y-140500000D02*
X159500000Y-140500000D01*
X168500000Y-149500000D02*
X168500000Y-155500000D01*
X179225000Y-83500000D02*
X182500000Y-83500000D01*
X137000000Y-118500000D02*
X137000000Y-112000000D01*
X148565000Y-83840000D02*
X148500000Y-83775000D01*
X136937500Y-111937500D02*
X132950000Y-111937500D01*
X152000000Y-140500000D02*
X152000000Y-126500000D01*
X137000000Y-112000000D02*
X137000000Y-104500000D01*
X153500000Y-119500000D02*
X153000000Y-120000000D01*
X159500000Y-140500000D02*
X161000000Y-139000000D01*
X161000000Y-139000000D02*
X167725000Y-139000000D01*
X152670000Y-144550000D02*
X152670000Y-146000000D01*
X143000000Y-85175000D02*
X143000000Y-83775000D01*
X137000000Y-97500000D02*
X137000000Y-85000000D01*
X146500000Y-118500000D02*
X148000000Y-120000000D01*
X136937500Y-104437500D02*
X133000000Y-104437500D01*
X167725000Y-140775000D02*
X167725000Y-139000000D01*
X153000000Y-120000000D02*
X153000000Y-123725000D01*
X147000000Y-83775000D02*
X145500000Y-83775000D01*
X161000000Y-146000000D02*
X152670000Y-146000000D01*
X152670000Y-146000000D02*
X152670000Y-148670000D01*
X151000000Y-108000000D02*
X149000000Y-110000000D01*
X153500000Y-119500000D02*
X160500000Y-119500000D01*
X182950000Y-139000000D02*
X185950000Y-136000000D01*
X185950000Y-136000000D02*
X186500000Y-136000000D01*
X189500000Y-140500000D02*
X189450000Y-140450000D01*
X178000000Y-84725000D02*
X177225000Y-84725000D01*
X176000000Y-146000000D02*
X167670000Y-146000000D01*
X177450000Y-144550000D02*
X176000000Y-146000000D01*
X193500000Y-144500000D02*
X193550000Y-144550000D01*
X137000000Y-118500000D02*
X136500000Y-119000000D01*
X148000000Y-120000000D02*
X148000000Y-120300000D01*
X148000000Y-120300000D02*
X145500000Y-122800000D01*
X152000000Y-140500000D02*
X152950000Y-139550000D01*
X167500000Y-141000000D02*
X167725000Y-140775000D01*
X137000000Y-104500000D02*
X136937500Y-104437500D01*
X147950000Y-144550000D02*
X146500000Y-146000000D01*
X137500000Y-146000000D02*
X137500000Y-149500000D01*
X177225000Y-84725000D02*
X176000000Y-83500000D01*
X162450000Y-144550000D02*
X161000000Y-146000000D01*
X145500000Y-83775000D02*
X143000000Y-83775000D01*
X137000000Y-85000000D02*
X138000000Y-84000000D01*
%TO.N,/VALVE1_SW_A*%
X146940000Y-95500000D02*
X150770000Y-95500000D01*
X171000000Y-149000000D02*
X171000000Y-155500000D01*
X150770000Y-95500000D02*
X151000000Y-95270000D01*
X147500000Y-113500000D02*
X143500000Y-109500000D01*
X146500000Y-95940000D02*
X146940000Y-95500000D01*
X143500000Y-109500000D02*
X143500000Y-99500000D01*
X143500000Y-99500000D02*
X145500000Y-97500000D01*
%TO.N,Net-(D_FLOAT1-DOUT)*%
X186500000Y-113000000D02*
X191500000Y-108000000D01*
X199500000Y-140500000D02*
X193000000Y-140500000D01*
X197915000Y-144550000D02*
X198950000Y-144550000D01*
X193000000Y-140500000D02*
X191500000Y-139000000D01*
X198950000Y-144550000D02*
X199500000Y-144000000D01*
X199500000Y-144000000D02*
X199500000Y-140500000D01*
X186500000Y-118000000D02*
X186500000Y-113000000D01*
X189550000Y-86050000D02*
X182915000Y-86050000D01*
X190000000Y-86500000D02*
X189550000Y-86050000D01*
%TO.N,VBUS*%
X183000000Y-115500000D02*
X182775000Y-115725000D01*
X183500000Y-115500000D02*
X183500000Y-119500000D01*
X163405000Y-120095000D02*
X163405000Y-123025000D01*
X167500000Y-120000000D02*
X167500000Y-124225000D01*
X183500000Y-115500000D02*
X181500000Y-113500000D01*
X182775000Y-115725000D02*
X180500000Y-115725000D01*
X196000000Y-116050001D02*
X194179999Y-114230000D01*
X196000000Y-117142410D02*
X196000000Y-116500000D01*
X196000000Y-116500000D02*
X196000000Y-116050001D01*
X173500000Y-114000000D02*
X167500000Y-120000000D01*
X173500000Y-114000000D02*
X173500000Y-123300000D01*
X193455000Y-119130000D02*
X194012410Y-119130000D01*
X194179999Y-114230000D02*
X193455000Y-114230000D01*
X194012410Y-119130000D02*
X196000000Y-117142410D01*
X181500000Y-113500000D02*
X174000000Y-113500000D01*
X183500000Y-115500000D02*
X183000000Y-115500000D01*
X174000000Y-113500000D02*
X173500000Y-114000000D01*
X167500000Y-120000000D02*
X163500000Y-120000000D01*
X163500000Y-120000000D02*
X163405000Y-120095000D01*
X196000000Y-116500000D02*
X195000000Y-116500000D01*
%TO.N,Net-(D9-K)*%
X162135000Y-123025000D02*
X162135000Y-116135000D01*
X160500000Y-116000000D02*
X155500000Y-111000000D01*
X162135000Y-116135000D02*
X162000000Y-116000000D01*
X162000000Y-116000000D02*
X160500000Y-116000000D01*
X155500000Y-111000000D02*
X153500000Y-111000000D01*
%TO.N,Net-(D1-A1)*%
X185500000Y-116000000D02*
X185500000Y-119500000D01*
X182000000Y-108500000D02*
X167500000Y-108500000D01*
X185500000Y-112000000D02*
X182000000Y-108500000D01*
X148500000Y-101900000D02*
X148500000Y-100825000D01*
X192070000Y-116930000D02*
X192000000Y-117000000D01*
X193455000Y-116930000D02*
X192070000Y-116930000D01*
X193455000Y-115930000D02*
X191070000Y-115930000D01*
X191070000Y-115930000D02*
X191000000Y-116000000D01*
X185500000Y-116000000D02*
X185500000Y-112000000D01*
%TO.N,/USB_D+*%
X150905000Y-99175000D02*
X151000000Y-99080000D01*
X148500000Y-99175000D02*
X150905000Y-99175000D01*
%TO.N,Net-(D6-COM)*%
X132000000Y-115000000D02*
X135000000Y-115000000D01*
X158000000Y-106300000D02*
X158000000Y-105000000D01*
X128540000Y-115000000D02*
X125000000Y-118540000D01*
X124960000Y-119000000D02*
X124000000Y-119000000D01*
X132000000Y-115000000D02*
X132000000Y-117125000D01*
X125000000Y-119040000D02*
X124960000Y-119000000D01*
X132000000Y-115000000D02*
X128540000Y-115000000D01*
%TO.N,/PUMP1_SSR*%
X147825000Y-87000000D02*
X148445000Y-86380000D01*
X148445000Y-86380000D02*
X151000000Y-86380000D01*
%TO.N,Net-(D2-A1)*%
X191000000Y-117000000D02*
X191600000Y-116400000D01*
X193425000Y-116400000D02*
X191600000Y-116400000D01*
X193455000Y-116430000D02*
X193425000Y-116400000D01*
X193455000Y-117430000D02*
X192418529Y-117430000D01*
X187500000Y-117000000D02*
X191000000Y-117000000D01*
X184500000Y-117000000D02*
X184500000Y-112500000D01*
X146500000Y-102500000D02*
X146500000Y-100825000D01*
X184500000Y-117000000D02*
X184500000Y-119500000D01*
X181500000Y-109500000D02*
X167500000Y-109500000D01*
X192418529Y-117430000D02*
X191848529Y-118000000D01*
X191848529Y-118000000D02*
X191000000Y-118000000D01*
X191000000Y-118000000D02*
X191000000Y-117000000D01*
X184500000Y-112500000D02*
X181500000Y-109500000D01*
%TO.N,Net-(J2-CC2)*%
X191965000Y-114325000D02*
X188500000Y-114325000D01*
X193455000Y-114930000D02*
X192570000Y-114930000D01*
X192570000Y-114930000D02*
X191965000Y-114325000D01*
%TO.N,/LIGHT1_SSR*%
X157845000Y-100330000D02*
X157845000Y-103195000D01*
X157845000Y-103195000D02*
X158000000Y-103350000D01*
%TO.N,/PUMP1_SW_B*%
X139000000Y-123900000D02*
X139000000Y-119500000D01*
X136000000Y-149000000D02*
X136000000Y-155500000D01*
X147500000Y-89000000D02*
X147580000Y-88920000D01*
X139000000Y-112000000D02*
X139000000Y-93000000D01*
X138500000Y-124400000D02*
X139000000Y-123900000D01*
X147580000Y-88920000D02*
X151000000Y-88920000D01*
X139000000Y-93000000D02*
X142000000Y-90000000D01*
%TO.N,/PUMP1_SW_A*%
X140000000Y-112000000D02*
X140000000Y-94000000D01*
X146000000Y-88000000D02*
X150650000Y-88000000D01*
X141000000Y-124000000D02*
X140000000Y-123000000D01*
X140000000Y-123000000D02*
X140000000Y-119500000D01*
X140000000Y-94000000D02*
X146000000Y-88000000D01*
X150650000Y-88000000D02*
X151000000Y-87650000D01*
X141000000Y-149000000D02*
X141000000Y-155500000D01*
%TO.N,Net-(D4-COM)*%
X124960000Y-105000000D02*
X124500000Y-105000000D01*
X132000000Y-100500000D02*
X132050000Y-100550000D01*
X128960000Y-100500000D02*
X124960000Y-104500000D01*
X132050000Y-100550000D02*
X132050000Y-102562500D01*
X132000000Y-100500000D02*
X128960000Y-100500000D01*
X144500000Y-92000000D02*
X145000000Y-91500000D01*
X132050000Y-100550000D02*
X134950000Y-100550000D01*
X145000000Y-91500000D02*
X146175000Y-91500000D01*
X135000000Y-100500000D02*
X134950000Y-100550000D01*
%TO.N,Net-(D7-COM)*%
X147500000Y-108500000D02*
X147500000Y-106500000D01*
X182937500Y-131000000D02*
X177500000Y-131000000D01*
X190602500Y-134460000D02*
X197000000Y-134460000D01*
X188500000Y-136562500D02*
X190602500Y-134460000D01*
X188500000Y-136562500D02*
X182937500Y-131000000D01*
X148000000Y-109000000D02*
X147500000Y-108500000D01*
%TO.N,Net-(D_PUMP1-DOUT)*%
X139330000Y-144550000D02*
X145450000Y-144550000D01*
X146550000Y-143450000D02*
X152670000Y-143450000D01*
X145450000Y-144550000D02*
X146550000Y-143450000D01*
%TO.N,Net-(D_PUMP1-DIN)*%
X137500000Y-143450000D02*
X135500000Y-141450000D01*
X135500000Y-141450000D02*
X135500000Y-126500000D01*
X152500000Y-107500000D02*
X154350000Y-107500000D01*
%TO.N,/GPIO0*%
X188125000Y-102900000D02*
X188650000Y-102375000D01*
X177900000Y-102900000D02*
X178850000Y-102900000D01*
X178850000Y-102900000D02*
X185150000Y-102900000D01*
X174080000Y-99080000D02*
X177900000Y-102900000D01*
X168500000Y-99080000D02*
X174080000Y-99080000D01*
X185150000Y-102900000D02*
X188125000Y-102900000D01*
%TO.N,Net-(D_FLOAT1-DIN)*%
X184500000Y-144550000D02*
X189450000Y-144550000D01*
X189450000Y-144550000D02*
X190550000Y-143450000D01*
X190550000Y-143450000D02*
X196085000Y-143450000D01*
%TO.N,/PUMP2_SSR*%
X149135000Y-90190000D02*
X151000000Y-90190000D01*
X147825000Y-91500000D02*
X149135000Y-90190000D01*
%TO.N,/USB_D-*%
X146500000Y-99175000D02*
X146500000Y-98500000D01*
X147190000Y-97810000D02*
X151000000Y-97810000D01*
X146500000Y-98500000D02*
X147190000Y-97810000D01*
%TO.N,/DEBUG_NET*%
X191500000Y-104500000D02*
X168685000Y-104500000D01*
X193000000Y-104400000D02*
X191600000Y-104400000D01*
X191600000Y-104400000D02*
X191500000Y-104500000D01*
X168685000Y-104500000D02*
X165465000Y-101280000D01*
X165465000Y-101280000D02*
X165465000Y-100330000D01*
%TO.N,/DEBUG_OPERATE*%
X162925000Y-100330000D02*
X162925000Y-101280000D01*
X167185000Y-105540000D02*
X196460000Y-105540000D01*
X162925000Y-101280000D02*
X167185000Y-105540000D01*
%TO.N,/DEBUG_RESET*%
X164195000Y-100330000D02*
X164195000Y-100860000D01*
X168335000Y-105000000D02*
X195373654Y-105000000D01*
X164195000Y-100860000D02*
X168335000Y-105000000D01*
X195373654Y-105000000D02*
X195983654Y-104390000D01*
X196936346Y-104390000D02*
X197273173Y-104726827D01*
X197273173Y-104726827D02*
X199000000Y-103000000D01*
X195983654Y-104390000D02*
X196936346Y-104390000D01*
%TO.N,/DEBUG_CFG*%
X194000000Y-103000000D02*
X196460000Y-103000000D01*
X168500000Y-97810000D02*
X188810000Y-97810000D01*
X188810000Y-97810000D02*
X194000000Y-103000000D01*
%TO.N,/DEBUG_EVAL*%
X170840000Y-83840000D02*
X176000000Y-89000000D01*
X168500000Y-83840000D02*
X170840000Y-83840000D01*
X197000000Y-89500000D02*
X200150000Y-92650000D01*
X190500000Y-89500000D02*
X197000000Y-89500000D01*
X200150000Y-92650000D02*
X200150000Y-99310000D01*
X200150000Y-99310000D02*
X199000000Y-100460000D01*
%TO.N,/DEBUG_TASKS*%
X189540000Y-96540000D02*
X193500000Y-100500000D01*
X193500000Y-100500000D02*
X193540000Y-100460000D01*
X168500000Y-96540000D02*
X189540000Y-96540000D01*
X193540000Y-100460000D02*
X196460000Y-100460000D01*
%TO.N,/DEBUG_IO*%
X197850000Y-96770000D02*
X199000000Y-97920000D01*
X168500000Y-85110000D02*
X170110000Y-85110000D01*
X170110000Y-85110000D02*
X176000000Y-91000000D01*
X190000000Y-93500000D02*
X196446346Y-93500000D01*
X197850000Y-94903654D02*
X197850000Y-96770000D01*
X196446346Y-93500000D02*
X197850000Y-94903654D01*
%TO.N,/DEBUG_SYS_LED*%
X191000000Y-95500000D02*
X191660000Y-95500000D01*
X190770000Y-95270000D02*
X191000000Y-95500000D01*
X191660000Y-95500000D02*
X194080000Y-97920000D01*
X168500000Y-95270000D02*
X190770000Y-95270000D01*
X194080000Y-97920000D02*
X196460000Y-97920000D01*
%TO.N,/DEBUG_LEAK*%
X177000000Y-94000000D02*
X177500000Y-94500000D01*
X195580000Y-94500000D02*
X196460000Y-95380000D01*
X168500000Y-94000000D02*
X177000000Y-94000000D01*
X177500000Y-94500000D02*
X195580000Y-94500000D01*
%TO.N,/RESET_BTN*%
X161655000Y-101306470D02*
X161655000Y-100330000D01*
X163174265Y-102825735D02*
X161655000Y-101306470D01*
X128800000Y-130700000D02*
X129800000Y-130700000D01*
X128800000Y-138250000D02*
X127550000Y-139500000D01*
X128800000Y-137000000D02*
X128800000Y-130700000D01*
X129800000Y-130700000D02*
X134000000Y-126500000D01*
X128800000Y-137000000D02*
X128800000Y-138250000D01*
%TO.N,Net-(D5-COM)*%
X132000000Y-108000000D02*
X132000000Y-110062500D01*
X132000000Y-108000000D02*
X135000000Y-108000000D01*
X132000000Y-108000000D02*
X128540000Y-108000000D01*
X144500000Y-94500000D02*
X146175000Y-94500000D01*
X124960000Y-112000000D02*
X124500000Y-112000000D01*
X128540000Y-108000000D02*
X125000000Y-111540000D01*
%TO.N,/PUMP2_SW_A*%
X147500000Y-115500000D02*
X145000000Y-115500000D01*
X148000000Y-93000000D02*
X149540000Y-91460000D01*
X141000000Y-111000000D02*
X141000000Y-95500000D01*
X143000000Y-113500000D02*
X143000000Y-111000000D01*
X156000000Y-155500000D02*
X156000000Y-149000000D01*
X143500000Y-93000000D02*
X148000000Y-93000000D01*
X149540000Y-91460000D02*
X151000000Y-91460000D01*
X141000000Y-95500000D02*
X143500000Y-93000000D01*
X145000000Y-115500000D02*
X143000000Y-113500000D01*
X143000000Y-111000000D02*
X141000000Y-111000000D01*
%TO.N,/PUMP2_SW_B*%
X150050000Y-92730000D02*
X151000000Y-92730000D01*
X144651471Y-93500000D02*
X149280000Y-93500000D01*
X149280000Y-93500000D02*
X150050000Y-92730000D01*
X142000000Y-115000000D02*
X143500000Y-116500000D01*
X142000000Y-112000000D02*
X142000000Y-115000000D01*
X142000000Y-108174265D02*
X142000000Y-96151471D01*
X143500000Y-116500000D02*
X147500000Y-116500000D01*
X151000000Y-155500000D02*
X151000000Y-149000000D01*
X142000000Y-96151471D02*
X144651471Y-93500000D01*
%TO.N,/VALVE1_SSR*%
X147825000Y-94500000D02*
X149000000Y-94500000D01*
X149500000Y-94000000D02*
X151000000Y-94000000D01*
X149000000Y-94500000D02*
X149500000Y-94000000D01*
%TO.N,/FLOAT_SENS*%
X147500000Y-104850000D02*
X144600000Y-104850000D01*
X155305000Y-101280000D02*
X151735000Y-104850000D01*
X155305000Y-100330000D02*
X155305000Y-101280000D01*
X151000000Y-104850000D02*
X147500000Y-104850000D01*
X151735000Y-104850000D02*
X151000000Y-104850000D01*
X144600000Y-104850000D02*
X144500000Y-104950000D01*
%TO.N,/LED_DATA*%
X156000000Y-107500000D02*
X156575000Y-106925000D01*
X156575000Y-106925000D02*
X156575000Y-100330000D01*
%TO.N,/LIGHT1_SW_A*%
X167000000Y-111500000D02*
X182000000Y-111500000D01*
X159835000Y-102000000D02*
X160000000Y-102000000D01*
X159115000Y-100330000D02*
X159115000Y-101280000D01*
X160000000Y-102000000D02*
X160000000Y-104500000D01*
X160000000Y-104500000D02*
X167000000Y-111500000D01*
X186000000Y-155500000D02*
X186000000Y-149000000D01*
X182000000Y-111500000D02*
X183000000Y-112500000D01*
X159115000Y-101280000D02*
X159835000Y-102000000D01*
X186000000Y-149000000D02*
X185500000Y-148500000D01*
%TO.N,/LIGHT1_SW_B*%
X167000000Y-107500000D02*
X160385000Y-100885000D01*
X181000000Y-155500000D02*
X181000000Y-148500000D01*
X178000000Y-107500000D02*
X167000000Y-107500000D01*
X160385000Y-100885000D02*
X160385000Y-100330000D01*
%TO.N,Net-(D_LIGHT1-DIN)*%
X175450000Y-144550000D02*
X176550000Y-143450000D01*
X169500000Y-144550000D02*
X175450000Y-144550000D01*
X176550000Y-143450000D02*
X182670000Y-143450000D01*
%TO.N,Net-(D_PUMP2-DOUT)*%
X161550000Y-143450000D02*
X167670000Y-143450000D01*
X160450000Y-144550000D02*
X161550000Y-143450000D01*
X154500000Y-144550000D02*
X160450000Y-144550000D01*
%TD*%
M02*
