M48
; DRILL file KiCad 10.0.3 date 2026-07-11T19:07:48
; FORMAT={-:-/ absolute / inch / decimal}
; #@! TF.CreationDate,2026-07-11T19:07:48-04:00
; #@! TF.GenerationSoftware,Kicad,Pcbnew,10.0.3
; #@! TF.FileFunction,Plated,1,2,PTH
FMAT,2
INCH
; #@! TA.AperFunction,Plated,PTH,ComponentDrill
T1C0.0079
; #@! TA.AperFunction,Plated,PTH,ViaDrill
T2C0.0118
; #@! TA.AperFunction,Plated,PTH,ComponentDrill
T3C0.0236
; #@! TA.AperFunction,Plated,PTH,ComponentDrill
T4C0.0374
; #@! TA.AperFunction,Plated,PTH,ComponentDrill
T5C0.0394
; #@! TA.AperFunction,Plated,PTH,ComponentDrill
T6C0.0433
%
G90
G05
T1
X6.1752Y-3.5213
X6.1752Y-3.5764
X6.2028Y-3.4937
X6.2028Y-3.5488
X6.2028Y-3.6039
X6.2303Y-3.5213
X6.2303Y-3.5764
X6.2579Y-3.4937
X6.2579Y-3.5488
X6.2579Y-3.6039
X6.2854Y-3.5213
X6.2854Y-3.5764
T2
X5.0984Y-3.8386
X5.0984Y-4.1339
X5.0984Y-4.4291
X5.0984Y-4.6457
X5.2756Y-4.9803
X5.313Y-3.9587
X5.315Y-3.6811
X5.315Y-4.252
X5.315Y-4.5276
X5.3346Y-4.9803
X5.3543Y-5.8661
X5.4331Y-3.3071
X5.4528Y-4.8976
X5.4724Y-4.4094
X5.4724Y-4.7047
X5.5118Y-4.4094
X5.5118Y-4.7047
X5.5512Y-4.8819
X5.5512Y-5.8661
X5.5709Y-3.3071
X5.5906Y-3.5433
X5.5906Y-4.2588
X5.5906Y-4.4094
X5.689Y-3.4843
X5.689Y-3.622
X5.689Y-3.7205
X5.7283Y-3.8386
X5.7677Y-3.7772
X5.7677Y-4.0354
X5.7874Y-3.3508
X5.8071Y-3.5039
X5.8071Y-4.3898
X5.8071Y-4.4685
X5.8071Y-4.5079
X5.8071Y-4.5472
X5.8071Y-4.5866
X5.8268Y-4.2913
X5.8465Y-4.0118
X5.9449Y-5.8661
X5.9843Y-4.7638
X5.9843Y-4.9803
X6.0039Y-4.2323
X6.0433Y-5.5315
X6.1063Y-5.5315
X6.1417Y-5.8661
X6.2205Y-4.185
X6.2402Y-4.3898
X6.3386Y-5.4724
X6.3386Y-5.7087
X6.4242Y-4.0483
X6.5354Y-5.8661
X6.5945Y-4.2717
X6.5945Y-4.311
X6.5945Y-4.6457
X6.5945Y-5.5512
X6.6929Y-4.7835
X6.7087Y-5.5512
X6.7323Y-5.8661
X6.8307Y-3.6417
X6.9291Y-3.2874
X6.9291Y-3.5039
X6.9291Y-3.5827
X6.9882Y-5.1575
X7.0079Y-4.2323
X7.0866Y-3.4449
X7.126Y-5.8465
X7.2047Y-4.4291
X7.2244Y-4.5472
X7.2441Y-3.4449
X7.2638Y-4.6063
X7.3031Y-4.5669
X7.3031Y-5.8465
X7.3425Y-4.6457
X7.3425Y-5.3543
X7.3819Y-3.6811
X7.3819Y-3.9173
X7.3819Y-4.6063
X7.4606Y-5.5315
X7.4803Y-3.4055
X7.4803Y-3.6811
X7.4803Y-4.3701
X7.5Y-3.5236
X7.5197Y-4.5669
X7.5394Y-4.252
X7.5394Y-5.4724
X7.5591Y-4.6063
X7.5984Y-4.1102
X7.6181Y-5.689
X7.6772Y-4.5866
X7.7559Y-5.5709
T4
X5.3543Y-6.122
X5.4528Y-6.122
X5.5512Y-6.122
X5.9449Y-6.122
X6.0433Y-6.122
X6.1417Y-6.122
X6.5354Y-6.122
X6.6339Y-6.122
X6.7323Y-6.122
X7.126Y-6.122
X7.2244Y-6.122
X7.3228Y-6.122
T5
X7.7346Y-3.7551
X7.7346Y-3.8551
X7.7346Y-3.9551
X7.7346Y-4.0551
X7.7346Y-4.1551
X7.8346Y-3.7551
X7.8346Y-3.8551
X7.8346Y-3.9551
X7.8346Y-4.0551
X7.8346Y-4.1551
T6
X4.9197Y-4.0339
X4.9197Y-4.1339
X4.9197Y-4.3094
X4.9197Y-4.4094
X4.9197Y-4.585
X4.9197Y-4.685
X4.9213Y-3.7583
X4.9213Y-3.8583
X7.7362Y-5.274
X7.7362Y-5.374
T3
G00X7.6307Y-4.4236
M15
G01X7.674Y-4.4236
M16
G05
G00X7.6307Y-4.7638
M15
G01X7.674Y-4.7638
M16
G05
G00X7.8051Y-4.4236
M15
G01X7.8287Y-4.4236
M16
G05
G00X7.8051Y-4.7638
M15
G01X7.8287Y-4.7638
M16
G05
M30
