%TF.GenerationSoftware,KiCad,Pcbnew,10.0.3*%
%TF.CreationDate,2026-07-11T19:07:48-04:00*%
%TF.ProjectId,espond32-offboard-ssr,6573706f-6e64-4333-922d-6f6666626f61,rev?*%
%TF.SameCoordinates,Original*%
%TF.FileFunction,Legend,Top*%
%TF.FilePolarity,Positive*%
%FSLAX46Y46*%
G04 Gerber Fmt 4.6, Leading zero omitted, Abs format (unit mm)*
G04 Created by KiCad (PCBNEW 10.0.3) date 2026-07-11 19:07:48*
%MOMM*%
%LPD*%
G01*
G04 APERTURE LIST*
G04 Aperture macros list*
%AMRoundRect*
0 Rectangle with rounded corners*
0 $1 Rounding radius*
0 $2 $3 $4 $5 $6 $7 $8 $9 X,Y pos of 4 corners*
0 Add a 4 corners polygon primitive as box body*
4,1,4,$2,$3,$4,$5,$6,$7,$8,$9,$2,$3,0*
0 Add four circle primitives for the rounded corners*
1,1,$1+$1,$2,$3*
1,1,$1+$1,$4,$5*
1,1,$1+$1,$6,$7*
1,1,$1+$1,$8,$9*
0 Add four rect primitives between the rounded corners*
20,1,$1+$1,$2,$3,$4,$5,0*
20,1,$1+$1,$4,$5,$6,$7,0*
20,1,$1+$1,$6,$7,$8,$9,0*
20,1,$1+$1,$8,$9,$2,$3,0*%
G04 Aperture macros list end*
%ADD10C,0.100000*%
%ADD11C,0.150000*%
%ADD12C,0.120000*%
%ADD13C,1.100000*%
%ADD14RoundRect,0.249999X0.850001X-0.850001X0.850001X0.850001X-0.850001X0.850001X-0.850001X-0.850001X0*%
%ADD15C,2.200000*%
%ADD16RoundRect,0.225000X-0.250000X0.225000X-0.250000X-0.225000X0.250000X-0.225000X0.250000X0.225000X0*%
%ADD17RoundRect,0.200000X-0.275000X0.200000X-0.275000X-0.200000X0.275000X-0.200000X0.275000X0.200000X0*%
%ADD18RoundRect,0.250000X-0.600000X-0.725000X0.600000X-0.725000X0.600000X0.725000X-0.600000X0.725000X0*%
%ADD19O,1.700000X1.950000*%
%ADD20R,0.700000X0.700000*%
%ADD21RoundRect,0.150000X-0.150000X0.825000X-0.150000X-0.825000X0.150000X-0.825000X0.150000X0.825000X0*%
%ADD22RoundRect,0.200000X0.275000X-0.200000X0.275000X0.200000X-0.275000X0.200000X-0.275000X-0.200000X0*%
%ADD23RoundRect,0.150000X0.150000X-0.587500X0.150000X0.587500X-0.150000X0.587500X-0.150000X-0.587500X0*%
%ADD24RoundRect,0.200000X-0.200000X-0.275000X0.200000X-0.275000X0.200000X0.275000X-0.200000X0.275000X0*%
%ADD25RoundRect,0.062500X0.062500X-0.117500X0.062500X0.117500X-0.062500X0.117500X-0.062500X-0.117500X0*%
%ADD26C,0.650000*%
%ADD27RoundRect,0.150000X0.575000X-0.150000X0.575000X0.150000X-0.575000X0.150000X-0.575000X-0.150000X0*%
%ADD28RoundRect,0.075000X0.650000X-0.075000X0.650000X0.075000X-0.650000X0.075000X-0.650000X-0.075000X0*%
%ADD29O,2.100000X1.000000*%
%ADD30O,1.600000X1.000000*%
%ADD31RoundRect,0.250000X-0.550000X1.500000X-0.550000X-1.500000X0.550000X-1.500000X0.550000X1.500000X0*%
%ADD32RoundRect,0.225000X-0.225000X-0.250000X0.225000X-0.250000X0.225000X0.250000X-0.225000X0.250000X0*%
%ADD33RoundRect,0.249999X-0.850001X0.850001X-0.850001X-0.850001X0.850001X-0.850001X0.850001X0.850001X0*%
%ADD34R,1.700000X1.000000*%
%ADD35R,2.400000X1.500000*%
%ADD36C,3.200000*%
%ADD37R,1.700000X1.700000*%
%ADD38C,1.700000*%
%ADD39R,1.000000X1.700000*%
%ADD40R,1.500000X0.900000*%
%ADD41R,0.900000X1.500000*%
%ADD42C,0.600000*%
%ADD43R,3.900000X3.900000*%
%ADD44RoundRect,0.225000X0.225000X0.250000X-0.225000X0.250000X-0.225000X-0.250000X0.225000X-0.250000X0*%
%ADD45RoundRect,0.225000X0.250000X-0.225000X0.250000X0.225000X-0.250000X0.225000X-0.250000X-0.225000X0*%
%ADD46RoundRect,0.250000X0.650000X-1.000000X0.650000X1.000000X-0.650000X1.000000X-0.650000X-1.000000X0*%
G04 APERTURE END LIST*
D10*
X190500000Y-155000000D02*
X192500000Y-155000000D01*
X190500000Y-158500000D02*
X191000000Y-158000000D01*
X190500000Y-158500000D02*
X191000000Y-159000000D01*
X191000000Y-158000000D02*
X190500000Y-158500000D01*
X192000000Y-154500000D02*
X192500000Y-155000000D01*
X192500000Y-155000000D02*
X192000000Y-154500000D01*
X192500000Y-155000000D02*
X192000000Y-155500000D01*
X192500000Y-158500000D02*
X190500000Y-158500000D01*
X142780074Y-134872419D02*
X142303884Y-134872419D01*
X142303884Y-134872419D02*
X142303884Y-133872419D01*
X143113408Y-134348609D02*
X143446741Y-134348609D01*
X143589598Y-134872419D02*
X143113408Y-134872419D01*
X143113408Y-134872419D02*
X143113408Y-133872419D01*
X143113408Y-133872419D02*
X143589598Y-133872419D01*
X144018170Y-134872419D02*
X144018170Y-133872419D01*
X144018170Y-133872419D02*
X144256265Y-133872419D01*
X144256265Y-133872419D02*
X144399122Y-133920038D01*
X144399122Y-133920038D02*
X144494360Y-134015276D01*
X144494360Y-134015276D02*
X144541979Y-134110514D01*
X144541979Y-134110514D02*
X144589598Y-134300990D01*
X144589598Y-134300990D02*
X144589598Y-134443847D01*
X144589598Y-134443847D02*
X144541979Y-134634323D01*
X144541979Y-134634323D02*
X144494360Y-134729561D01*
X144494360Y-134729561D02*
X144399122Y-134824800D01*
X144399122Y-134824800D02*
X144256265Y-134872419D01*
X144256265Y-134872419D02*
X144018170Y-134872419D01*
X144970551Y-134824800D02*
X145065789Y-134872419D01*
X145065789Y-134872419D02*
X145256265Y-134872419D01*
X145256265Y-134872419D02*
X145351503Y-134824800D01*
X145351503Y-134824800D02*
X145399122Y-134729561D01*
X145399122Y-134729561D02*
X145399122Y-134681942D01*
X145399122Y-134681942D02*
X145351503Y-134586704D01*
X145351503Y-134586704D02*
X145256265Y-134539085D01*
X145256265Y-134539085D02*
X145113408Y-134539085D01*
X145113408Y-134539085D02*
X145018170Y-134491466D01*
X145018170Y-134491466D02*
X144970551Y-134396228D01*
X144970551Y-134396228D02*
X144970551Y-134348609D01*
X144970551Y-134348609D02*
X145018170Y-134253371D01*
X145018170Y-134253371D02*
X145113408Y-134205752D01*
X145113408Y-134205752D02*
X145256265Y-134205752D01*
X145256265Y-134205752D02*
X145351503Y-134253371D01*
X145827694Y-134777180D02*
X145875313Y-134824800D01*
X145875313Y-134824800D02*
X145827694Y-134872419D01*
X145827694Y-134872419D02*
X145780075Y-134824800D01*
X145780075Y-134824800D02*
X145827694Y-134777180D01*
X145827694Y-134777180D02*
X145827694Y-134872419D01*
X145827694Y-134253371D02*
X145875313Y-134300990D01*
X145875313Y-134300990D02*
X145827694Y-134348609D01*
X145827694Y-134348609D02*
X145780075Y-134300990D01*
X145780075Y-134300990D02*
X145827694Y-134253371D01*
X145827694Y-134253371D02*
X145827694Y-134348609D01*
X142827693Y-135420038D02*
X142732455Y-135372419D01*
X142732455Y-135372419D02*
X142589598Y-135372419D01*
X142589598Y-135372419D02*
X142446741Y-135420038D01*
X142446741Y-135420038D02*
X142351503Y-135515276D01*
X142351503Y-135515276D02*
X142303884Y-135610514D01*
X142303884Y-135610514D02*
X142256265Y-135800990D01*
X142256265Y-135800990D02*
X142256265Y-135943847D01*
X142256265Y-135943847D02*
X142303884Y-136134323D01*
X142303884Y-136134323D02*
X142351503Y-136229561D01*
X142351503Y-136229561D02*
X142446741Y-136324800D01*
X142446741Y-136324800D02*
X142589598Y-136372419D01*
X142589598Y-136372419D02*
X142684836Y-136372419D01*
X142684836Y-136372419D02*
X142827693Y-136324800D01*
X142827693Y-136324800D02*
X142875312Y-136277180D01*
X142875312Y-136277180D02*
X142875312Y-135943847D01*
X142875312Y-135943847D02*
X142684836Y-135943847D01*
X143303884Y-136372419D02*
X143303884Y-135705752D01*
X143303884Y-135896228D02*
X143351503Y-135800990D01*
X143351503Y-135800990D02*
X143399122Y-135753371D01*
X143399122Y-135753371D02*
X143494360Y-135705752D01*
X143494360Y-135705752D02*
X143589598Y-135705752D01*
X144303884Y-136324800D02*
X144208646Y-136372419D01*
X144208646Y-136372419D02*
X144018170Y-136372419D01*
X144018170Y-136372419D02*
X143922932Y-136324800D01*
X143922932Y-136324800D02*
X143875313Y-136229561D01*
X143875313Y-136229561D02*
X143875313Y-135848609D01*
X143875313Y-135848609D02*
X143922932Y-135753371D01*
X143922932Y-135753371D02*
X144018170Y-135705752D01*
X144018170Y-135705752D02*
X144208646Y-135705752D01*
X144208646Y-135705752D02*
X144303884Y-135753371D01*
X144303884Y-135753371D02*
X144351503Y-135848609D01*
X144351503Y-135848609D02*
X144351503Y-135943847D01*
X144351503Y-135943847D02*
X143875313Y-136039085D01*
X145161027Y-136324800D02*
X145065789Y-136372419D01*
X145065789Y-136372419D02*
X144875313Y-136372419D01*
X144875313Y-136372419D02*
X144780075Y-136324800D01*
X144780075Y-136324800D02*
X144732456Y-136229561D01*
X144732456Y-136229561D02*
X144732456Y-135848609D01*
X144732456Y-135848609D02*
X144780075Y-135753371D01*
X144780075Y-135753371D02*
X144875313Y-135705752D01*
X144875313Y-135705752D02*
X145065789Y-135705752D01*
X145065789Y-135705752D02*
X145161027Y-135753371D01*
X145161027Y-135753371D02*
X145208646Y-135848609D01*
X145208646Y-135848609D02*
X145208646Y-135943847D01*
X145208646Y-135943847D02*
X144732456Y-136039085D01*
X145637218Y-135705752D02*
X145637218Y-136372419D01*
X145637218Y-135800990D02*
X145684837Y-135753371D01*
X145684837Y-135753371D02*
X145780075Y-135705752D01*
X145780075Y-135705752D02*
X145922932Y-135705752D01*
X145922932Y-135705752D02*
X146018170Y-135753371D01*
X146018170Y-135753371D02*
X146065789Y-135848609D01*
X146065789Y-135848609D02*
X146065789Y-136372419D01*
X147303885Y-135991466D02*
X148065790Y-135991466D01*
X149494361Y-135372419D02*
X149684837Y-135372419D01*
X149684837Y-135372419D02*
X149780075Y-135420038D01*
X149780075Y-135420038D02*
X149875313Y-135515276D01*
X149875313Y-135515276D02*
X149922932Y-135705752D01*
X149922932Y-135705752D02*
X149922932Y-136039085D01*
X149922932Y-136039085D02*
X149875313Y-136229561D01*
X149875313Y-136229561D02*
X149780075Y-136324800D01*
X149780075Y-136324800D02*
X149684837Y-136372419D01*
X149684837Y-136372419D02*
X149494361Y-136372419D01*
X149494361Y-136372419D02*
X149399123Y-136324800D01*
X149399123Y-136324800D02*
X149303885Y-136229561D01*
X149303885Y-136229561D02*
X149256266Y-136039085D01*
X149256266Y-136039085D02*
X149256266Y-135705752D01*
X149256266Y-135705752D02*
X149303885Y-135515276D01*
X149303885Y-135515276D02*
X149399123Y-135420038D01*
X149399123Y-135420038D02*
X149494361Y-135372419D01*
X150351504Y-135705752D02*
X150351504Y-136372419D01*
X150351504Y-135800990D02*
X150399123Y-135753371D01*
X150399123Y-135753371D02*
X150494361Y-135705752D01*
X150494361Y-135705752D02*
X150637218Y-135705752D01*
X150637218Y-135705752D02*
X150732456Y-135753371D01*
X150732456Y-135753371D02*
X150780075Y-135848609D01*
X150780075Y-135848609D02*
X150780075Y-136372419D01*
X154375312Y-134872419D02*
X154041979Y-134396228D01*
X153803884Y-134872419D02*
X153803884Y-133872419D01*
X153803884Y-133872419D02*
X154184836Y-133872419D01*
X154184836Y-133872419D02*
X154280074Y-133920038D01*
X154280074Y-133920038D02*
X154327693Y-133967657D01*
X154327693Y-133967657D02*
X154375312Y-134062895D01*
X154375312Y-134062895D02*
X154375312Y-134205752D01*
X154375312Y-134205752D02*
X154327693Y-134300990D01*
X154327693Y-134300990D02*
X154280074Y-134348609D01*
X154280074Y-134348609D02*
X154184836Y-134396228D01*
X154184836Y-134396228D02*
X153803884Y-134396228D01*
X155184836Y-134824800D02*
X155089598Y-134872419D01*
X155089598Y-134872419D02*
X154899122Y-134872419D01*
X154899122Y-134872419D02*
X154803884Y-134824800D01*
X154803884Y-134824800D02*
X154756265Y-134729561D01*
X154756265Y-134729561D02*
X154756265Y-134348609D01*
X154756265Y-134348609D02*
X154803884Y-134253371D01*
X154803884Y-134253371D02*
X154899122Y-134205752D01*
X154899122Y-134205752D02*
X155089598Y-134205752D01*
X155089598Y-134205752D02*
X155184836Y-134253371D01*
X155184836Y-134253371D02*
X155232455Y-134348609D01*
X155232455Y-134348609D02*
X155232455Y-134443847D01*
X155232455Y-134443847D02*
X154756265Y-134539085D01*
X156089598Y-134872419D02*
X156089598Y-133872419D01*
X156089598Y-134824800D02*
X155994360Y-134872419D01*
X155994360Y-134872419D02*
X155803884Y-134872419D01*
X155803884Y-134872419D02*
X155708646Y-134824800D01*
X155708646Y-134824800D02*
X155661027Y-134777180D01*
X155661027Y-134777180D02*
X155613408Y-134681942D01*
X155613408Y-134681942D02*
X155613408Y-134396228D01*
X155613408Y-134396228D02*
X155661027Y-134300990D01*
X155661027Y-134300990D02*
X155708646Y-134253371D01*
X155708646Y-134253371D02*
X155803884Y-134205752D01*
X155803884Y-134205752D02*
X155994360Y-134205752D01*
X155994360Y-134205752D02*
X156089598Y-134253371D01*
X157327694Y-134491466D02*
X158089599Y-134491466D01*
X159803884Y-134872419D02*
X159327694Y-134872419D01*
X159327694Y-134872419D02*
X159327694Y-133872419D01*
X160327694Y-133872419D02*
X160518170Y-133872419D01*
X160518170Y-133872419D02*
X160613408Y-133920038D01*
X160613408Y-133920038D02*
X160708646Y-134015276D01*
X160708646Y-134015276D02*
X160756265Y-134205752D01*
X160756265Y-134205752D02*
X160756265Y-134539085D01*
X160756265Y-134539085D02*
X160708646Y-134729561D01*
X160708646Y-134729561D02*
X160613408Y-134824800D01*
X160613408Y-134824800D02*
X160518170Y-134872419D01*
X160518170Y-134872419D02*
X160327694Y-134872419D01*
X160327694Y-134872419D02*
X160232456Y-134824800D01*
X160232456Y-134824800D02*
X160137218Y-134729561D01*
X160137218Y-134729561D02*
X160089599Y-134539085D01*
X160089599Y-134539085D02*
X160089599Y-134205752D01*
X160089599Y-134205752D02*
X160137218Y-134015276D01*
X160137218Y-134015276D02*
X160232456Y-133920038D01*
X160232456Y-133920038D02*
X160327694Y-133872419D01*
X161756265Y-134777180D02*
X161708646Y-134824800D01*
X161708646Y-134824800D02*
X161565789Y-134872419D01*
X161565789Y-134872419D02*
X161470551Y-134872419D01*
X161470551Y-134872419D02*
X161327694Y-134824800D01*
X161327694Y-134824800D02*
X161232456Y-134729561D01*
X161232456Y-134729561D02*
X161184837Y-134634323D01*
X161184837Y-134634323D02*
X161137218Y-134443847D01*
X161137218Y-134443847D02*
X161137218Y-134300990D01*
X161137218Y-134300990D02*
X161184837Y-134110514D01*
X161184837Y-134110514D02*
X161232456Y-134015276D01*
X161232456Y-134015276D02*
X161327694Y-133920038D01*
X161327694Y-133920038D02*
X161470551Y-133872419D01*
X161470551Y-133872419D02*
X161565789Y-133872419D01*
X161565789Y-133872419D02*
X161708646Y-133920038D01*
X161708646Y-133920038D02*
X161756265Y-133967657D01*
X162184837Y-134872419D02*
X162184837Y-133872419D01*
X162756265Y-134872419D02*
X162327694Y-134300990D01*
X162756265Y-133872419D02*
X162184837Y-134443847D01*
X163184837Y-134348609D02*
X163518170Y-134348609D01*
X163661027Y-134872419D02*
X163184837Y-134872419D01*
X163184837Y-134872419D02*
X163184837Y-133872419D01*
X163184837Y-133872419D02*
X163661027Y-133872419D01*
X164089599Y-134872419D02*
X164089599Y-133872419D01*
X164089599Y-133872419D02*
X164327694Y-133872419D01*
X164327694Y-133872419D02*
X164470551Y-133920038D01*
X164470551Y-133920038D02*
X164565789Y-134015276D01*
X164565789Y-134015276D02*
X164613408Y-134110514D01*
X164613408Y-134110514D02*
X164661027Y-134300990D01*
X164661027Y-134300990D02*
X164661027Y-134443847D01*
X164661027Y-134443847D02*
X164613408Y-134634323D01*
X164613408Y-134634323D02*
X164565789Y-134729561D01*
X164565789Y-134729561D02*
X164470551Y-134824800D01*
X164470551Y-134824800D02*
X164327694Y-134872419D01*
X164327694Y-134872419D02*
X164089599Y-134872419D01*
X154222217Y-135848609D02*
X154365074Y-135896228D01*
X154365074Y-135896228D02*
X154412693Y-135943847D01*
X154412693Y-135943847D02*
X154460312Y-136039085D01*
X154460312Y-136039085D02*
X154460312Y-136181942D01*
X154460312Y-136181942D02*
X154412693Y-136277180D01*
X154412693Y-136277180D02*
X154365074Y-136324800D01*
X154365074Y-136324800D02*
X154269836Y-136372419D01*
X154269836Y-136372419D02*
X153888884Y-136372419D01*
X153888884Y-136372419D02*
X153888884Y-135372419D01*
X153888884Y-135372419D02*
X154222217Y-135372419D01*
X154222217Y-135372419D02*
X154317455Y-135420038D01*
X154317455Y-135420038D02*
X154365074Y-135467657D01*
X154365074Y-135467657D02*
X154412693Y-135562895D01*
X154412693Y-135562895D02*
X154412693Y-135658133D01*
X154412693Y-135658133D02*
X154365074Y-135753371D01*
X154365074Y-135753371D02*
X154317455Y-135800990D01*
X154317455Y-135800990D02*
X154222217Y-135848609D01*
X154222217Y-135848609D02*
X153888884Y-135848609D01*
X155031741Y-136372419D02*
X154936503Y-136324800D01*
X154936503Y-136324800D02*
X154888884Y-136229561D01*
X154888884Y-136229561D02*
X154888884Y-135372419D01*
X155841265Y-135705752D02*
X155841265Y-136372419D01*
X155412694Y-135705752D02*
X155412694Y-136229561D01*
X155412694Y-136229561D02*
X155460313Y-136324800D01*
X155460313Y-136324800D02*
X155555551Y-136372419D01*
X155555551Y-136372419D02*
X155698408Y-136372419D01*
X155698408Y-136372419D02*
X155793646Y-136324800D01*
X155793646Y-136324800D02*
X155841265Y-136277180D01*
X156698408Y-136324800D02*
X156603170Y-136372419D01*
X156603170Y-136372419D02*
X156412694Y-136372419D01*
X156412694Y-136372419D02*
X156317456Y-136324800D01*
X156317456Y-136324800D02*
X156269837Y-136229561D01*
X156269837Y-136229561D02*
X156269837Y-135848609D01*
X156269837Y-135848609D02*
X156317456Y-135753371D01*
X156317456Y-135753371D02*
X156412694Y-135705752D01*
X156412694Y-135705752D02*
X156603170Y-135705752D01*
X156603170Y-135705752D02*
X156698408Y-135753371D01*
X156698408Y-135753371D02*
X156746027Y-135848609D01*
X156746027Y-135848609D02*
X156746027Y-135943847D01*
X156746027Y-135943847D02*
X156269837Y-136039085D01*
X157936504Y-135991466D02*
X158698409Y-135991466D01*
X160269837Y-135848609D02*
X159936504Y-135848609D01*
X159936504Y-136372419D02*
X159936504Y-135372419D01*
X159936504Y-135372419D02*
X160412694Y-135372419D01*
X160936504Y-136372419D02*
X160841266Y-136324800D01*
X160841266Y-136324800D02*
X160793647Y-136229561D01*
X160793647Y-136229561D02*
X160793647Y-135372419D01*
X161460314Y-136372419D02*
X161365076Y-136324800D01*
X161365076Y-136324800D02*
X161317457Y-136277180D01*
X161317457Y-136277180D02*
X161269838Y-136181942D01*
X161269838Y-136181942D02*
X161269838Y-135896228D01*
X161269838Y-135896228D02*
X161317457Y-135800990D01*
X161317457Y-135800990D02*
X161365076Y-135753371D01*
X161365076Y-135753371D02*
X161460314Y-135705752D01*
X161460314Y-135705752D02*
X161603171Y-135705752D01*
X161603171Y-135705752D02*
X161698409Y-135753371D01*
X161698409Y-135753371D02*
X161746028Y-135800990D01*
X161746028Y-135800990D02*
X161793647Y-135896228D01*
X161793647Y-135896228D02*
X161793647Y-136181942D01*
X161793647Y-136181942D02*
X161746028Y-136277180D01*
X161746028Y-136277180D02*
X161698409Y-136324800D01*
X161698409Y-136324800D02*
X161603171Y-136372419D01*
X161603171Y-136372419D02*
X161460314Y-136372419D01*
X162650790Y-136372419D02*
X162650790Y-135848609D01*
X162650790Y-135848609D02*
X162603171Y-135753371D01*
X162603171Y-135753371D02*
X162507933Y-135705752D01*
X162507933Y-135705752D02*
X162317457Y-135705752D01*
X162317457Y-135705752D02*
X162222219Y-135753371D01*
X162650790Y-136324800D02*
X162555552Y-136372419D01*
X162555552Y-136372419D02*
X162317457Y-136372419D01*
X162317457Y-136372419D02*
X162222219Y-136324800D01*
X162222219Y-136324800D02*
X162174600Y-136229561D01*
X162174600Y-136229561D02*
X162174600Y-136134323D01*
X162174600Y-136134323D02*
X162222219Y-136039085D01*
X162222219Y-136039085D02*
X162317457Y-135991466D01*
X162317457Y-135991466D02*
X162555552Y-135991466D01*
X162555552Y-135991466D02*
X162650790Y-135943847D01*
X162984124Y-135705752D02*
X163365076Y-135705752D01*
X163126981Y-135372419D02*
X163126981Y-136229561D01*
X163126981Y-136229561D02*
X163174600Y-136324800D01*
X163174600Y-136324800D02*
X163269838Y-136372419D01*
X163269838Y-136372419D02*
X163365076Y-136372419D01*
X164936505Y-136372419D02*
X164460315Y-136372419D01*
X164460315Y-136372419D02*
X164460315Y-135372419D01*
X165412696Y-136372419D02*
X165317458Y-136324800D01*
X165317458Y-136324800D02*
X165269839Y-136277180D01*
X165269839Y-136277180D02*
X165222220Y-136181942D01*
X165222220Y-136181942D02*
X165222220Y-135896228D01*
X165222220Y-135896228D02*
X165269839Y-135800990D01*
X165269839Y-135800990D02*
X165317458Y-135753371D01*
X165317458Y-135753371D02*
X165412696Y-135705752D01*
X165412696Y-135705752D02*
X165555553Y-135705752D01*
X165555553Y-135705752D02*
X165650791Y-135753371D01*
X165650791Y-135753371D02*
X165698410Y-135800990D01*
X165698410Y-135800990D02*
X165746029Y-135896228D01*
X165746029Y-135896228D02*
X165746029Y-136181942D01*
X165746029Y-136181942D02*
X165698410Y-136277180D01*
X165698410Y-136277180D02*
X165650791Y-136324800D01*
X165650791Y-136324800D02*
X165555553Y-136372419D01*
X165555553Y-136372419D02*
X165412696Y-136372419D01*
X166079363Y-135705752D02*
X166269839Y-136372419D01*
X166269839Y-136372419D02*
X166460315Y-135896228D01*
X166460315Y-135896228D02*
X166650791Y-136372419D01*
X166650791Y-136372419D02*
X166841267Y-135705752D01*
X166803884Y-106848609D02*
X167137217Y-106848609D01*
X167280074Y-107372419D02*
X166803884Y-107372419D01*
X166803884Y-107372419D02*
X166803884Y-106372419D01*
X166803884Y-106372419D02*
X167280074Y-106372419D01*
X167661027Y-107324800D02*
X167803884Y-107372419D01*
X167803884Y-107372419D02*
X168041979Y-107372419D01*
X168041979Y-107372419D02*
X168137217Y-107324800D01*
X168137217Y-107324800D02*
X168184836Y-107277180D01*
X168184836Y-107277180D02*
X168232455Y-107181942D01*
X168232455Y-107181942D02*
X168232455Y-107086704D01*
X168232455Y-107086704D02*
X168184836Y-106991466D01*
X168184836Y-106991466D02*
X168137217Y-106943847D01*
X168137217Y-106943847D02*
X168041979Y-106896228D01*
X168041979Y-106896228D02*
X167851503Y-106848609D01*
X167851503Y-106848609D02*
X167756265Y-106800990D01*
X167756265Y-106800990D02*
X167708646Y-106753371D01*
X167708646Y-106753371D02*
X167661027Y-106658133D01*
X167661027Y-106658133D02*
X167661027Y-106562895D01*
X167661027Y-106562895D02*
X167708646Y-106467657D01*
X167708646Y-106467657D02*
X167756265Y-106420038D01*
X167756265Y-106420038D02*
X167851503Y-106372419D01*
X167851503Y-106372419D02*
X168089598Y-106372419D01*
X168089598Y-106372419D02*
X168232455Y-106420038D01*
X168661027Y-107372419D02*
X168661027Y-106372419D01*
X168661027Y-106372419D02*
X169041979Y-106372419D01*
X169041979Y-106372419D02*
X169137217Y-106420038D01*
X169137217Y-106420038D02*
X169184836Y-106467657D01*
X169184836Y-106467657D02*
X169232455Y-106562895D01*
X169232455Y-106562895D02*
X169232455Y-106705752D01*
X169232455Y-106705752D02*
X169184836Y-106800990D01*
X169184836Y-106800990D02*
X169137217Y-106848609D01*
X169137217Y-106848609D02*
X169041979Y-106896228D01*
X169041979Y-106896228D02*
X168661027Y-106896228D01*
X169803884Y-107372419D02*
X169708646Y-107324800D01*
X169708646Y-107324800D02*
X169661027Y-107277180D01*
X169661027Y-107277180D02*
X169613408Y-107181942D01*
X169613408Y-107181942D02*
X169613408Y-106896228D01*
X169613408Y-106896228D02*
X169661027Y-106800990D01*
X169661027Y-106800990D02*
X169708646Y-106753371D01*
X169708646Y-106753371D02*
X169803884Y-106705752D01*
X169803884Y-106705752D02*
X169946741Y-106705752D01*
X169946741Y-106705752D02*
X170041979Y-106753371D01*
X170041979Y-106753371D02*
X170089598Y-106800990D01*
X170089598Y-106800990D02*
X170137217Y-106896228D01*
X170137217Y-106896228D02*
X170137217Y-107181942D01*
X170137217Y-107181942D02*
X170089598Y-107277180D01*
X170089598Y-107277180D02*
X170041979Y-107324800D01*
X170041979Y-107324800D02*
X169946741Y-107372419D01*
X169946741Y-107372419D02*
X169803884Y-107372419D01*
X170565789Y-106705752D02*
X170565789Y-107372419D01*
X170565789Y-106800990D02*
X170613408Y-106753371D01*
X170613408Y-106753371D02*
X170708646Y-106705752D01*
X170708646Y-106705752D02*
X170851503Y-106705752D01*
X170851503Y-106705752D02*
X170946741Y-106753371D01*
X170946741Y-106753371D02*
X170994360Y-106848609D01*
X170994360Y-106848609D02*
X170994360Y-107372419D01*
X171899122Y-107372419D02*
X171899122Y-106372419D01*
X171899122Y-107324800D02*
X171803884Y-107372419D01*
X171803884Y-107372419D02*
X171613408Y-107372419D01*
X171613408Y-107372419D02*
X171518170Y-107324800D01*
X171518170Y-107324800D02*
X171470551Y-107277180D01*
X171470551Y-107277180D02*
X171422932Y-107181942D01*
X171422932Y-107181942D02*
X171422932Y-106896228D01*
X171422932Y-106896228D02*
X171470551Y-106800990D01*
X171470551Y-106800990D02*
X171518170Y-106753371D01*
X171518170Y-106753371D02*
X171613408Y-106705752D01*
X171613408Y-106705752D02*
X171803884Y-106705752D01*
X171803884Y-106705752D02*
X171899122Y-106753371D01*
X172280075Y-106372419D02*
X172899122Y-106372419D01*
X172899122Y-106372419D02*
X172565789Y-106753371D01*
X172565789Y-106753371D02*
X172708646Y-106753371D01*
X172708646Y-106753371D02*
X172803884Y-106800990D01*
X172803884Y-106800990D02*
X172851503Y-106848609D01*
X172851503Y-106848609D02*
X172899122Y-106943847D01*
X172899122Y-106943847D02*
X172899122Y-107181942D01*
X172899122Y-107181942D02*
X172851503Y-107277180D01*
X172851503Y-107277180D02*
X172803884Y-107324800D01*
X172803884Y-107324800D02*
X172708646Y-107372419D01*
X172708646Y-107372419D02*
X172422932Y-107372419D01*
X172422932Y-107372419D02*
X172327694Y-107324800D01*
X172327694Y-107324800D02*
X172280075Y-107277180D01*
X173280075Y-106467657D02*
X173327694Y-106420038D01*
X173327694Y-106420038D02*
X173422932Y-106372419D01*
X173422932Y-106372419D02*
X173661027Y-106372419D01*
X173661027Y-106372419D02*
X173756265Y-106420038D01*
X173756265Y-106420038D02*
X173803884Y-106467657D01*
X173803884Y-106467657D02*
X173851503Y-106562895D01*
X173851503Y-106562895D02*
X173851503Y-106658133D01*
X173851503Y-106658133D02*
X173803884Y-106800990D01*
X173803884Y-106800990D02*
X173232456Y-107372419D01*
X173232456Y-107372419D02*
X173851503Y-107372419D01*
X175041980Y-106991466D02*
X175803885Y-106991466D01*
X176946742Y-106705752D02*
X177184837Y-107372419D01*
X177184837Y-107372419D02*
X177422932Y-106705752D01*
X178327694Y-107372419D02*
X177756266Y-107372419D01*
X178041980Y-107372419D02*
X178041980Y-106372419D01*
X178041980Y-106372419D02*
X177946742Y-106515276D01*
X177946742Y-106515276D02*
X177851504Y-106610514D01*
X177851504Y-106610514D02*
X177756266Y-106658133D01*
X166803884Y-108205752D02*
X166803884Y-108872419D01*
X166803884Y-108300990D02*
X166851503Y-108253371D01*
X166851503Y-108253371D02*
X166946741Y-108205752D01*
X166946741Y-108205752D02*
X167089598Y-108205752D01*
X167089598Y-108205752D02*
X167184836Y-108253371D01*
X167184836Y-108253371D02*
X167232455Y-108348609D01*
X167232455Y-108348609D02*
X167232455Y-108872419D01*
X167708646Y-108872419D02*
X167708646Y-107872419D01*
X168137217Y-108872419D02*
X168137217Y-108348609D01*
X168137217Y-108348609D02*
X168089598Y-108253371D01*
X168089598Y-108253371D02*
X167994360Y-108205752D01*
X167994360Y-108205752D02*
X167851503Y-108205752D01*
X167851503Y-108205752D02*
X167756265Y-108253371D01*
X167756265Y-108253371D02*
X167708646Y-108300990D01*
X168613408Y-108872419D02*
X168613408Y-108205752D01*
X168613408Y-108396228D02*
X168661027Y-108300990D01*
X168661027Y-108300990D02*
X168708646Y-108253371D01*
X168708646Y-108253371D02*
X168803884Y-108205752D01*
X168803884Y-108205752D02*
X168899122Y-108205752D01*
X169375313Y-108872419D02*
X169280075Y-108824800D01*
X169280075Y-108824800D02*
X169232456Y-108777180D01*
X169232456Y-108777180D02*
X169184837Y-108681942D01*
X169184837Y-108681942D02*
X169184837Y-108396228D01*
X169184837Y-108396228D02*
X169232456Y-108300990D01*
X169232456Y-108300990D02*
X169280075Y-108253371D01*
X169280075Y-108253371D02*
X169375313Y-108205752D01*
X169375313Y-108205752D02*
X169518170Y-108205752D01*
X169518170Y-108205752D02*
X169613408Y-108253371D01*
X169613408Y-108253371D02*
X169661027Y-108300990D01*
X169661027Y-108300990D02*
X169708646Y-108396228D01*
X169708646Y-108396228D02*
X169708646Y-108681942D01*
X169708646Y-108681942D02*
X169661027Y-108777180D01*
X169661027Y-108777180D02*
X169613408Y-108824800D01*
X169613408Y-108824800D02*
X169518170Y-108872419D01*
X169518170Y-108872419D02*
X169375313Y-108872419D01*
X170137218Y-108872419D02*
X170137218Y-107872419D01*
X170137218Y-108253371D02*
X170232456Y-108205752D01*
X170232456Y-108205752D02*
X170422932Y-108205752D01*
X170422932Y-108205752D02*
X170518170Y-108253371D01*
X170518170Y-108253371D02*
X170565789Y-108300990D01*
X170565789Y-108300990D02*
X170613408Y-108396228D01*
X170613408Y-108396228D02*
X170613408Y-108681942D01*
X170613408Y-108681942D02*
X170565789Y-108777180D01*
X170565789Y-108777180D02*
X170518170Y-108824800D01*
X170518170Y-108824800D02*
X170422932Y-108872419D01*
X170422932Y-108872419D02*
X170232456Y-108872419D01*
X170232456Y-108872419D02*
X170137218Y-108824800D01*
X171422932Y-108824800D02*
X171327694Y-108872419D01*
X171327694Y-108872419D02*
X171137218Y-108872419D01*
X171137218Y-108872419D02*
X171041980Y-108824800D01*
X171041980Y-108824800D02*
X170994361Y-108729561D01*
X170994361Y-108729561D02*
X170994361Y-108348609D01*
X170994361Y-108348609D02*
X171041980Y-108253371D01*
X171041980Y-108253371D02*
X171137218Y-108205752D01*
X171137218Y-108205752D02*
X171327694Y-108205752D01*
X171327694Y-108205752D02*
X171422932Y-108253371D01*
X171422932Y-108253371D02*
X171470551Y-108348609D01*
X171470551Y-108348609D02*
X171470551Y-108443847D01*
X171470551Y-108443847D02*
X170994361Y-108539085D01*
X171899123Y-108872419D02*
X171899123Y-108205752D01*
X171899123Y-108396228D02*
X171946742Y-108300990D01*
X171946742Y-108300990D02*
X171994361Y-108253371D01*
X171994361Y-108253371D02*
X172089599Y-108205752D01*
X172089599Y-108205752D02*
X172184837Y-108205752D01*
X172375314Y-108205752D02*
X172756266Y-108205752D01*
X172518171Y-107872419D02*
X172518171Y-108729561D01*
X172518171Y-108729561D02*
X172565790Y-108824800D01*
X172565790Y-108824800D02*
X172661028Y-108872419D01*
X172661028Y-108872419D02*
X172756266Y-108872419D01*
X173041981Y-108824800D02*
X173137219Y-108872419D01*
X173137219Y-108872419D02*
X173327695Y-108872419D01*
X173327695Y-108872419D02*
X173422933Y-108824800D01*
X173422933Y-108824800D02*
X173470552Y-108729561D01*
X173470552Y-108729561D02*
X173470552Y-108681942D01*
X173470552Y-108681942D02*
X173422933Y-108586704D01*
X173422933Y-108586704D02*
X173327695Y-108539085D01*
X173327695Y-108539085D02*
X173184838Y-108539085D01*
X173184838Y-108539085D02*
X173089600Y-108491466D01*
X173089600Y-108491466D02*
X173041981Y-108396228D01*
X173041981Y-108396228D02*
X173041981Y-108348609D01*
X173041981Y-108348609D02*
X173089600Y-108253371D01*
X173089600Y-108253371D02*
X173184838Y-108205752D01*
X173184838Y-108205752D02*
X173327695Y-108205752D01*
X173327695Y-108205752D02*
X173422933Y-108253371D01*
X174041981Y-108872419D02*
X173946743Y-108824800D01*
X173946743Y-108824800D02*
X173899124Y-108777180D01*
X173899124Y-108777180D02*
X173851505Y-108681942D01*
X173851505Y-108681942D02*
X173851505Y-108396228D01*
X173851505Y-108396228D02*
X173899124Y-108300990D01*
X173899124Y-108300990D02*
X173946743Y-108253371D01*
X173946743Y-108253371D02*
X174041981Y-108205752D01*
X174041981Y-108205752D02*
X174184838Y-108205752D01*
X174184838Y-108205752D02*
X174280076Y-108253371D01*
X174280076Y-108253371D02*
X174327695Y-108300990D01*
X174327695Y-108300990D02*
X174375314Y-108396228D01*
X174375314Y-108396228D02*
X174375314Y-108681942D01*
X174375314Y-108681942D02*
X174327695Y-108777180D01*
X174327695Y-108777180D02*
X174280076Y-108824800D01*
X174280076Y-108824800D02*
X174184838Y-108872419D01*
X174184838Y-108872419D02*
X174041981Y-108872419D01*
X174803886Y-108205752D02*
X174803886Y-108872419D01*
X174803886Y-108300990D02*
X174851505Y-108253371D01*
X174851505Y-108253371D02*
X174946743Y-108205752D01*
X174946743Y-108205752D02*
X175089600Y-108205752D01*
X175089600Y-108205752D02*
X175184838Y-108253371D01*
X175184838Y-108253371D02*
X175232457Y-108348609D01*
X175232457Y-108348609D02*
X175232457Y-108872419D01*
X175708648Y-108777180D02*
X175756267Y-108824800D01*
X175756267Y-108824800D02*
X175708648Y-108872419D01*
X175708648Y-108872419D02*
X175661029Y-108824800D01*
X175661029Y-108824800D02*
X175708648Y-108777180D01*
X175708648Y-108777180D02*
X175708648Y-108872419D01*
X176613409Y-108824800D02*
X176518171Y-108872419D01*
X176518171Y-108872419D02*
X176327695Y-108872419D01*
X176327695Y-108872419D02*
X176232457Y-108824800D01*
X176232457Y-108824800D02*
X176184838Y-108777180D01*
X176184838Y-108777180D02*
X176137219Y-108681942D01*
X176137219Y-108681942D02*
X176137219Y-108396228D01*
X176137219Y-108396228D02*
X176184838Y-108300990D01*
X176184838Y-108300990D02*
X176232457Y-108253371D01*
X176232457Y-108253371D02*
X176327695Y-108205752D01*
X176327695Y-108205752D02*
X176518171Y-108205752D01*
X176518171Y-108205752D02*
X176613409Y-108253371D01*
X177184838Y-108872419D02*
X177089600Y-108824800D01*
X177089600Y-108824800D02*
X177041981Y-108777180D01*
X177041981Y-108777180D02*
X176994362Y-108681942D01*
X176994362Y-108681942D02*
X176994362Y-108396228D01*
X176994362Y-108396228D02*
X177041981Y-108300990D01*
X177041981Y-108300990D02*
X177089600Y-108253371D01*
X177089600Y-108253371D02*
X177184838Y-108205752D01*
X177184838Y-108205752D02*
X177327695Y-108205752D01*
X177327695Y-108205752D02*
X177422933Y-108253371D01*
X177422933Y-108253371D02*
X177470552Y-108300990D01*
X177470552Y-108300990D02*
X177518171Y-108396228D01*
X177518171Y-108396228D02*
X177518171Y-108681942D01*
X177518171Y-108681942D02*
X177470552Y-108777180D01*
X177470552Y-108777180D02*
X177422933Y-108824800D01*
X177422933Y-108824800D02*
X177327695Y-108872419D01*
X177327695Y-108872419D02*
X177184838Y-108872419D01*
X177946743Y-108872419D02*
X177946743Y-108205752D01*
X177946743Y-108300990D02*
X177994362Y-108253371D01*
X177994362Y-108253371D02*
X178089600Y-108205752D01*
X178089600Y-108205752D02*
X178232457Y-108205752D01*
X178232457Y-108205752D02*
X178327695Y-108253371D01*
X178327695Y-108253371D02*
X178375314Y-108348609D01*
X178375314Y-108348609D02*
X178375314Y-108872419D01*
X178375314Y-108348609D02*
X178422933Y-108253371D01*
X178422933Y-108253371D02*
X178518171Y-108205752D01*
X178518171Y-108205752D02*
X178661028Y-108205752D01*
X178661028Y-108205752D02*
X178756267Y-108253371D01*
X178756267Y-108253371D02*
X178803886Y-108348609D01*
X178803886Y-108348609D02*
X178803886Y-108872419D01*
X166994360Y-109872419D02*
X167184836Y-109872419D01*
X167184836Y-109872419D02*
X167280074Y-109920038D01*
X167280074Y-109920038D02*
X167375312Y-110015276D01*
X167375312Y-110015276D02*
X167422931Y-110205752D01*
X167422931Y-110205752D02*
X167422931Y-110539085D01*
X167422931Y-110539085D02*
X167375312Y-110729561D01*
X167375312Y-110729561D02*
X167280074Y-110824800D01*
X167280074Y-110824800D02*
X167184836Y-110872419D01*
X167184836Y-110872419D02*
X166994360Y-110872419D01*
X166994360Y-110872419D02*
X166899122Y-110824800D01*
X166899122Y-110824800D02*
X166803884Y-110729561D01*
X166803884Y-110729561D02*
X166756265Y-110539085D01*
X166756265Y-110539085D02*
X166756265Y-110205752D01*
X166756265Y-110205752D02*
X166803884Y-110015276D01*
X166803884Y-110015276D02*
X166899122Y-109920038D01*
X166899122Y-109920038D02*
X166994360Y-109872419D01*
X167708646Y-110205752D02*
X168089598Y-110205752D01*
X167851503Y-110872419D02*
X167851503Y-110015276D01*
X167851503Y-110015276D02*
X167899122Y-109920038D01*
X167899122Y-109920038D02*
X167994360Y-109872419D01*
X167994360Y-109872419D02*
X168089598Y-109872419D01*
X168280075Y-110205752D02*
X168661027Y-110205752D01*
X168422932Y-110872419D02*
X168422932Y-110015276D01*
X168422932Y-110015276D02*
X168470551Y-109920038D01*
X168470551Y-109920038D02*
X168565789Y-109872419D01*
X168565789Y-109872419D02*
X168661027Y-109872419D01*
X168994361Y-110491466D02*
X169756266Y-110491466D01*
X170565789Y-110348609D02*
X170708646Y-110396228D01*
X170708646Y-110396228D02*
X170756265Y-110443847D01*
X170756265Y-110443847D02*
X170803884Y-110539085D01*
X170803884Y-110539085D02*
X170803884Y-110681942D01*
X170803884Y-110681942D02*
X170756265Y-110777180D01*
X170756265Y-110777180D02*
X170708646Y-110824800D01*
X170708646Y-110824800D02*
X170613408Y-110872419D01*
X170613408Y-110872419D02*
X170232456Y-110872419D01*
X170232456Y-110872419D02*
X170232456Y-109872419D01*
X170232456Y-109872419D02*
X170565789Y-109872419D01*
X170565789Y-109872419D02*
X170661027Y-109920038D01*
X170661027Y-109920038D02*
X170708646Y-109967657D01*
X170708646Y-109967657D02*
X170756265Y-110062895D01*
X170756265Y-110062895D02*
X170756265Y-110158133D01*
X170756265Y-110158133D02*
X170708646Y-110253371D01*
X170708646Y-110253371D02*
X170661027Y-110300990D01*
X170661027Y-110300990D02*
X170565789Y-110348609D01*
X170565789Y-110348609D02*
X170232456Y-110348609D01*
X171375313Y-110872419D02*
X171280075Y-110824800D01*
X171280075Y-110824800D02*
X171232456Y-110777180D01*
X171232456Y-110777180D02*
X171184837Y-110681942D01*
X171184837Y-110681942D02*
X171184837Y-110396228D01*
X171184837Y-110396228D02*
X171232456Y-110300990D01*
X171232456Y-110300990D02*
X171280075Y-110253371D01*
X171280075Y-110253371D02*
X171375313Y-110205752D01*
X171375313Y-110205752D02*
X171518170Y-110205752D01*
X171518170Y-110205752D02*
X171613408Y-110253371D01*
X171613408Y-110253371D02*
X171661027Y-110300990D01*
X171661027Y-110300990D02*
X171708646Y-110396228D01*
X171708646Y-110396228D02*
X171708646Y-110681942D01*
X171708646Y-110681942D02*
X171661027Y-110777180D01*
X171661027Y-110777180D02*
X171613408Y-110824800D01*
X171613408Y-110824800D02*
X171518170Y-110872419D01*
X171518170Y-110872419D02*
X171375313Y-110872419D01*
X172565789Y-110872419D02*
X172565789Y-110348609D01*
X172565789Y-110348609D02*
X172518170Y-110253371D01*
X172518170Y-110253371D02*
X172422932Y-110205752D01*
X172422932Y-110205752D02*
X172232456Y-110205752D01*
X172232456Y-110205752D02*
X172137218Y-110253371D01*
X172565789Y-110824800D02*
X172470551Y-110872419D01*
X172470551Y-110872419D02*
X172232456Y-110872419D01*
X172232456Y-110872419D02*
X172137218Y-110824800D01*
X172137218Y-110824800D02*
X172089599Y-110729561D01*
X172089599Y-110729561D02*
X172089599Y-110634323D01*
X172089599Y-110634323D02*
X172137218Y-110539085D01*
X172137218Y-110539085D02*
X172232456Y-110491466D01*
X172232456Y-110491466D02*
X172470551Y-110491466D01*
X172470551Y-110491466D02*
X172565789Y-110443847D01*
X173041980Y-110872419D02*
X173041980Y-110205752D01*
X173041980Y-110396228D02*
X173089599Y-110300990D01*
X173089599Y-110300990D02*
X173137218Y-110253371D01*
X173137218Y-110253371D02*
X173232456Y-110205752D01*
X173232456Y-110205752D02*
X173327694Y-110205752D01*
X174089599Y-110872419D02*
X174089599Y-109872419D01*
X174089599Y-110824800D02*
X173994361Y-110872419D01*
X173994361Y-110872419D02*
X173803885Y-110872419D01*
X173803885Y-110872419D02*
X173708647Y-110824800D01*
X173708647Y-110824800D02*
X173661028Y-110777180D01*
X173661028Y-110777180D02*
X173613409Y-110681942D01*
X173613409Y-110681942D02*
X173613409Y-110396228D01*
X173613409Y-110396228D02*
X173661028Y-110300990D01*
X173661028Y-110300990D02*
X173708647Y-110253371D01*
X173708647Y-110253371D02*
X173803885Y-110205752D01*
X173803885Y-110205752D02*
X173994361Y-110205752D01*
X173994361Y-110205752D02*
X174089599Y-110253371D01*
X175518171Y-109872419D02*
X175708647Y-109872419D01*
X175708647Y-109872419D02*
X175803885Y-109920038D01*
X175803885Y-109920038D02*
X175899123Y-110015276D01*
X175899123Y-110015276D02*
X175946742Y-110205752D01*
X175946742Y-110205752D02*
X175946742Y-110539085D01*
X175946742Y-110539085D02*
X175899123Y-110729561D01*
X175899123Y-110729561D02*
X175803885Y-110824800D01*
X175803885Y-110824800D02*
X175708647Y-110872419D01*
X175708647Y-110872419D02*
X175518171Y-110872419D01*
X175518171Y-110872419D02*
X175422933Y-110824800D01*
X175422933Y-110824800D02*
X175327695Y-110729561D01*
X175327695Y-110729561D02*
X175280076Y-110539085D01*
X175280076Y-110539085D02*
X175280076Y-110205752D01*
X175280076Y-110205752D02*
X175327695Y-110015276D01*
X175327695Y-110015276D02*
X175422933Y-109920038D01*
X175422933Y-109920038D02*
X175518171Y-109872419D01*
X176803885Y-110205752D02*
X176803885Y-110872419D01*
X176375314Y-110205752D02*
X176375314Y-110729561D01*
X176375314Y-110729561D02*
X176422933Y-110824800D01*
X176422933Y-110824800D02*
X176518171Y-110872419D01*
X176518171Y-110872419D02*
X176661028Y-110872419D01*
X176661028Y-110872419D02*
X176756266Y-110824800D01*
X176756266Y-110824800D02*
X176803885Y-110777180D01*
X177137219Y-110205752D02*
X177518171Y-110205752D01*
X177280076Y-109872419D02*
X177280076Y-110729561D01*
X177280076Y-110729561D02*
X177327695Y-110824800D01*
X177327695Y-110824800D02*
X177422933Y-110872419D01*
X177422933Y-110872419D02*
X177518171Y-110872419D01*
X177851505Y-110205752D02*
X177851505Y-111205752D01*
X177851505Y-110253371D02*
X177946743Y-110205752D01*
X177946743Y-110205752D02*
X178137219Y-110205752D01*
X178137219Y-110205752D02*
X178232457Y-110253371D01*
X178232457Y-110253371D02*
X178280076Y-110300990D01*
X178280076Y-110300990D02*
X178327695Y-110396228D01*
X178327695Y-110396228D02*
X178327695Y-110681942D01*
X178327695Y-110681942D02*
X178280076Y-110777180D01*
X178280076Y-110777180D02*
X178232457Y-110824800D01*
X178232457Y-110824800D02*
X178137219Y-110872419D01*
X178137219Y-110872419D02*
X177946743Y-110872419D01*
X177946743Y-110872419D02*
X177851505Y-110824800D01*
X179184838Y-110205752D02*
X179184838Y-110872419D01*
X178756267Y-110205752D02*
X178756267Y-110729561D01*
X178756267Y-110729561D02*
X178803886Y-110824800D01*
X178803886Y-110824800D02*
X178899124Y-110872419D01*
X178899124Y-110872419D02*
X179041981Y-110872419D01*
X179041981Y-110872419D02*
X179137219Y-110824800D01*
X179137219Y-110824800D02*
X179184838Y-110777180D01*
X179518172Y-110205752D02*
X179899124Y-110205752D01*
X179661029Y-109872419D02*
X179661029Y-110729561D01*
X179661029Y-110729561D02*
X179708648Y-110824800D01*
X179708648Y-110824800D02*
X179803886Y-110872419D01*
X179803886Y-110872419D02*
X179899124Y-110872419D01*
X180994363Y-110872419D02*
X180994363Y-109872419D01*
X180994363Y-109872419D02*
X181232458Y-109872419D01*
X181232458Y-109872419D02*
X181375315Y-109920038D01*
X181375315Y-109920038D02*
X181470553Y-110015276D01*
X181470553Y-110015276D02*
X181518172Y-110110514D01*
X181518172Y-110110514D02*
X181565791Y-110300990D01*
X181565791Y-110300990D02*
X181565791Y-110443847D01*
X181565791Y-110443847D02*
X181518172Y-110634323D01*
X181518172Y-110634323D02*
X181470553Y-110729561D01*
X181470553Y-110729561D02*
X181375315Y-110824800D01*
X181375315Y-110824800D02*
X181232458Y-110872419D01*
X181232458Y-110872419D02*
X180994363Y-110872419D01*
X181994363Y-110872419D02*
X181994363Y-110205752D01*
X181994363Y-110396228D02*
X182041982Y-110300990D01*
X182041982Y-110300990D02*
X182089601Y-110253371D01*
X182089601Y-110253371D02*
X182184839Y-110205752D01*
X182184839Y-110205752D02*
X182280077Y-110205752D01*
X182613411Y-110872419D02*
X182613411Y-110205752D01*
X182613411Y-109872419D02*
X182565792Y-109920038D01*
X182565792Y-109920038D02*
X182613411Y-109967657D01*
X182613411Y-109967657D02*
X182661030Y-109920038D01*
X182661030Y-109920038D02*
X182613411Y-109872419D01*
X182613411Y-109872419D02*
X182613411Y-109967657D01*
X182994363Y-110205752D02*
X183232458Y-110872419D01*
X183232458Y-110872419D02*
X183470553Y-110205752D01*
X184232458Y-110824800D02*
X184137220Y-110872419D01*
X184137220Y-110872419D02*
X183946744Y-110872419D01*
X183946744Y-110872419D02*
X183851506Y-110824800D01*
X183851506Y-110824800D02*
X183803887Y-110729561D01*
X183803887Y-110729561D02*
X183803887Y-110348609D01*
X183803887Y-110348609D02*
X183851506Y-110253371D01*
X183851506Y-110253371D02*
X183946744Y-110205752D01*
X183946744Y-110205752D02*
X184137220Y-110205752D01*
X184137220Y-110205752D02*
X184232458Y-110253371D01*
X184232458Y-110253371D02*
X184280077Y-110348609D01*
X184280077Y-110348609D02*
X184280077Y-110443847D01*
X184280077Y-110443847D02*
X183803887Y-110539085D01*
X184708649Y-110872419D02*
X184708649Y-110205752D01*
X184708649Y-110396228D02*
X184756268Y-110300990D01*
X184756268Y-110300990D02*
X184803887Y-110253371D01*
X184803887Y-110253371D02*
X184899125Y-110205752D01*
X184899125Y-110205752D02*
X184994363Y-110205752D01*
X185280078Y-110824800D02*
X185375316Y-110872419D01*
X185375316Y-110872419D02*
X185565792Y-110872419D01*
X185565792Y-110872419D02*
X185661030Y-110824800D01*
X185661030Y-110824800D02*
X185708649Y-110729561D01*
X185708649Y-110729561D02*
X185708649Y-110681942D01*
X185708649Y-110681942D02*
X185661030Y-110586704D01*
X185661030Y-110586704D02*
X185565792Y-110539085D01*
X185565792Y-110539085D02*
X185422935Y-110539085D01*
X185422935Y-110539085D02*
X185327697Y-110491466D01*
X185327697Y-110491466D02*
X185280078Y-110396228D01*
X185280078Y-110396228D02*
X185280078Y-110348609D01*
X185280078Y-110348609D02*
X185327697Y-110253371D01*
X185327697Y-110253371D02*
X185422935Y-110205752D01*
X185422935Y-110205752D02*
X185565792Y-110205752D01*
X185565792Y-110205752D02*
X185661030Y-110253371D01*
X169494360Y-135896228D02*
X169494360Y-136372419D01*
X169161027Y-135372419D02*
X169494360Y-135896228D01*
X169494360Y-135896228D02*
X169827693Y-135372419D01*
X170541979Y-136324800D02*
X170446741Y-136372419D01*
X170446741Y-136372419D02*
X170256265Y-136372419D01*
X170256265Y-136372419D02*
X170161027Y-136324800D01*
X170161027Y-136324800D02*
X170113408Y-136229561D01*
X170113408Y-136229561D02*
X170113408Y-135848609D01*
X170113408Y-135848609D02*
X170161027Y-135753371D01*
X170161027Y-135753371D02*
X170256265Y-135705752D01*
X170256265Y-135705752D02*
X170446741Y-135705752D01*
X170446741Y-135705752D02*
X170541979Y-135753371D01*
X170541979Y-135753371D02*
X170589598Y-135848609D01*
X170589598Y-135848609D02*
X170589598Y-135943847D01*
X170589598Y-135943847D02*
X170113408Y-136039085D01*
X171161027Y-136372419D02*
X171065789Y-136324800D01*
X171065789Y-136324800D02*
X171018170Y-136229561D01*
X171018170Y-136229561D02*
X171018170Y-135372419D01*
X171684837Y-136372419D02*
X171589599Y-136324800D01*
X171589599Y-136324800D02*
X171541980Y-136229561D01*
X171541980Y-136229561D02*
X171541980Y-135372419D01*
X172208647Y-136372419D02*
X172113409Y-136324800D01*
X172113409Y-136324800D02*
X172065790Y-136277180D01*
X172065790Y-136277180D02*
X172018171Y-136181942D01*
X172018171Y-136181942D02*
X172018171Y-135896228D01*
X172018171Y-135896228D02*
X172065790Y-135800990D01*
X172065790Y-135800990D02*
X172113409Y-135753371D01*
X172113409Y-135753371D02*
X172208647Y-135705752D01*
X172208647Y-135705752D02*
X172351504Y-135705752D01*
X172351504Y-135705752D02*
X172446742Y-135753371D01*
X172446742Y-135753371D02*
X172494361Y-135800990D01*
X172494361Y-135800990D02*
X172541980Y-135896228D01*
X172541980Y-135896228D02*
X172541980Y-136181942D01*
X172541980Y-136181942D02*
X172494361Y-136277180D01*
X172494361Y-136277180D02*
X172446742Y-136324800D01*
X172446742Y-136324800D02*
X172351504Y-136372419D01*
X172351504Y-136372419D02*
X172208647Y-136372419D01*
X172875314Y-135705752D02*
X173065790Y-136372419D01*
X173065790Y-136372419D02*
X173256266Y-135896228D01*
X173256266Y-135896228D02*
X173446742Y-136372419D01*
X173446742Y-136372419D02*
X173637218Y-135705752D01*
X174780076Y-135991466D02*
X175541981Y-135991466D01*
X176732457Y-136086704D02*
X177208647Y-136086704D01*
X176637219Y-136372419D02*
X176970552Y-135372419D01*
X176970552Y-135372419D02*
X177303885Y-136372419D01*
X177780076Y-136372419D02*
X177684838Y-136324800D01*
X177684838Y-136324800D02*
X177637219Y-136229561D01*
X177637219Y-136229561D02*
X177637219Y-135372419D01*
X178303886Y-136372419D02*
X178208648Y-136324800D01*
X178208648Y-136324800D02*
X178161029Y-136229561D01*
X178161029Y-136229561D02*
X178161029Y-135372419D01*
X179399125Y-136086704D02*
X179875315Y-136086704D01*
X179303887Y-136372419D02*
X179637220Y-135372419D01*
X179637220Y-135372419D02*
X179970553Y-136372419D01*
X180303887Y-135372419D02*
X180303887Y-136181942D01*
X180303887Y-136181942D02*
X180351506Y-136277180D01*
X180351506Y-136277180D02*
X180399125Y-136324800D01*
X180399125Y-136324800D02*
X180494363Y-136372419D01*
X180494363Y-136372419D02*
X180684839Y-136372419D01*
X180684839Y-136372419D02*
X180780077Y-136324800D01*
X180780077Y-136324800D02*
X180827696Y-136277180D01*
X180827696Y-136277180D02*
X180875315Y-136181942D01*
X180875315Y-136181942D02*
X180875315Y-135372419D01*
X181208649Y-135372419D02*
X181780077Y-135372419D01*
X181494363Y-136372419D02*
X181494363Y-135372419D01*
X182303887Y-135372419D02*
X182494363Y-135372419D01*
X182494363Y-135372419D02*
X182589601Y-135420038D01*
X182589601Y-135420038D02*
X182684839Y-135515276D01*
X182684839Y-135515276D02*
X182732458Y-135705752D01*
X182732458Y-135705752D02*
X182732458Y-136039085D01*
X182732458Y-136039085D02*
X182684839Y-136229561D01*
X182684839Y-136229561D02*
X182589601Y-136324800D01*
X182589601Y-136324800D02*
X182494363Y-136372419D01*
X182494363Y-136372419D02*
X182303887Y-136372419D01*
X182303887Y-136372419D02*
X182208649Y-136324800D01*
X182208649Y-136324800D02*
X182113411Y-136229561D01*
X182113411Y-136229561D02*
X182065792Y-136039085D01*
X182065792Y-136039085D02*
X182065792Y-135705752D01*
X182065792Y-135705752D02*
X182113411Y-135515276D01*
X182113411Y-135515276D02*
X182208649Y-135420038D01*
X182208649Y-135420038D02*
X182303887Y-135372419D01*
X188525312Y-150277180D02*
X188477693Y-150324800D01*
X188477693Y-150324800D02*
X188334836Y-150372419D01*
X188334836Y-150372419D02*
X188239598Y-150372419D01*
X188239598Y-150372419D02*
X188096741Y-150324800D01*
X188096741Y-150324800D02*
X188001503Y-150229561D01*
X188001503Y-150229561D02*
X187953884Y-150134323D01*
X187953884Y-150134323D02*
X187906265Y-149943847D01*
X187906265Y-149943847D02*
X187906265Y-149800990D01*
X187906265Y-149800990D02*
X187953884Y-149610514D01*
X187953884Y-149610514D02*
X188001503Y-149515276D01*
X188001503Y-149515276D02*
X188096741Y-149420038D01*
X188096741Y-149420038D02*
X188239598Y-149372419D01*
X188239598Y-149372419D02*
X188334836Y-149372419D01*
X188334836Y-149372419D02*
X188477693Y-149420038D01*
X188477693Y-149420038D02*
X188525312Y-149467657D01*
X189334836Y-150324800D02*
X189239598Y-150372419D01*
X189239598Y-150372419D02*
X189049122Y-150372419D01*
X189049122Y-150372419D02*
X188953884Y-150324800D01*
X188953884Y-150324800D02*
X188906265Y-150229561D01*
X188906265Y-150229561D02*
X188906265Y-149848609D01*
X188906265Y-149848609D02*
X188953884Y-149753371D01*
X188953884Y-149753371D02*
X189049122Y-149705752D01*
X189049122Y-149705752D02*
X189239598Y-149705752D01*
X189239598Y-149705752D02*
X189334836Y-149753371D01*
X189334836Y-149753371D02*
X189382455Y-149848609D01*
X189382455Y-149848609D02*
X189382455Y-149943847D01*
X189382455Y-149943847D02*
X188906265Y-150039085D01*
X189811027Y-149705752D02*
X189811027Y-150372419D01*
X189811027Y-149800990D02*
X189858646Y-149753371D01*
X189858646Y-149753371D02*
X189953884Y-149705752D01*
X189953884Y-149705752D02*
X190096741Y-149705752D01*
X190096741Y-149705752D02*
X190191979Y-149753371D01*
X190191979Y-149753371D02*
X190239598Y-149848609D01*
X190239598Y-149848609D02*
X190239598Y-150372419D01*
X190572932Y-149705752D02*
X190953884Y-149705752D01*
X190715789Y-149372419D02*
X190715789Y-150229561D01*
X190715789Y-150229561D02*
X190763408Y-150324800D01*
X190763408Y-150324800D02*
X190858646Y-150372419D01*
X190858646Y-150372419D02*
X190953884Y-150372419D01*
X191668170Y-150324800D02*
X191572932Y-150372419D01*
X191572932Y-150372419D02*
X191382456Y-150372419D01*
X191382456Y-150372419D02*
X191287218Y-150324800D01*
X191287218Y-150324800D02*
X191239599Y-150229561D01*
X191239599Y-150229561D02*
X191239599Y-149848609D01*
X191239599Y-149848609D02*
X191287218Y-149753371D01*
X191287218Y-149753371D02*
X191382456Y-149705752D01*
X191382456Y-149705752D02*
X191572932Y-149705752D01*
X191572932Y-149705752D02*
X191668170Y-149753371D01*
X191668170Y-149753371D02*
X191715789Y-149848609D01*
X191715789Y-149848609D02*
X191715789Y-149943847D01*
X191715789Y-149943847D02*
X191239599Y-150039085D01*
X192144361Y-150372419D02*
X192144361Y-149705752D01*
X192144361Y-149896228D02*
X192191980Y-149800990D01*
X192191980Y-149800990D02*
X192239599Y-149753371D01*
X192239599Y-149753371D02*
X192334837Y-149705752D01*
X192334837Y-149705752D02*
X192430075Y-149705752D01*
X189282455Y-151872419D02*
X189282455Y-151348609D01*
X189282455Y-151348609D02*
X189234836Y-151253371D01*
X189234836Y-151253371D02*
X189139598Y-151205752D01*
X189139598Y-151205752D02*
X188949122Y-151205752D01*
X188949122Y-151205752D02*
X188853884Y-151253371D01*
X189282455Y-151824800D02*
X189187217Y-151872419D01*
X189187217Y-151872419D02*
X188949122Y-151872419D01*
X188949122Y-151872419D02*
X188853884Y-151824800D01*
X188853884Y-151824800D02*
X188806265Y-151729561D01*
X188806265Y-151729561D02*
X188806265Y-151634323D01*
X188806265Y-151634323D02*
X188853884Y-151539085D01*
X188853884Y-151539085D02*
X188949122Y-151491466D01*
X188949122Y-151491466D02*
X189187217Y-151491466D01*
X189187217Y-151491466D02*
X189282455Y-151443847D01*
X190187217Y-151205752D02*
X190187217Y-151872419D01*
X189758646Y-151205752D02*
X189758646Y-151729561D01*
X189758646Y-151729561D02*
X189806265Y-151824800D01*
X189806265Y-151824800D02*
X189901503Y-151872419D01*
X189901503Y-151872419D02*
X190044360Y-151872419D01*
X190044360Y-151872419D02*
X190139598Y-151824800D01*
X190139598Y-151824800D02*
X190187217Y-151777180D01*
X190520551Y-151205752D02*
X190901503Y-151205752D01*
X190663408Y-150872419D02*
X190663408Y-151729561D01*
X190663408Y-151729561D02*
X190711027Y-151824800D01*
X190711027Y-151824800D02*
X190806265Y-151872419D01*
X190806265Y-151872419D02*
X190901503Y-151872419D01*
X191377694Y-151872419D02*
X191282456Y-151824800D01*
X191282456Y-151824800D02*
X191234837Y-151777180D01*
X191234837Y-151777180D02*
X191187218Y-151681942D01*
X191187218Y-151681942D02*
X191187218Y-151396228D01*
X191187218Y-151396228D02*
X191234837Y-151300990D01*
X191234837Y-151300990D02*
X191282456Y-151253371D01*
X191282456Y-151253371D02*
X191377694Y-151205752D01*
X191377694Y-151205752D02*
X191520551Y-151205752D01*
X191520551Y-151205752D02*
X191615789Y-151253371D01*
X191615789Y-151253371D02*
X191663408Y-151300990D01*
X191663408Y-151300990D02*
X191711027Y-151396228D01*
X191711027Y-151396228D02*
X191711027Y-151681942D01*
X191711027Y-151681942D02*
X191663408Y-151777180D01*
X191663408Y-151777180D02*
X191615789Y-151824800D01*
X191615789Y-151824800D02*
X191520551Y-151872419D01*
X191520551Y-151872419D02*
X191377694Y-151872419D01*
X190994360Y-152672419D02*
X191184836Y-152672419D01*
X191184836Y-152672419D02*
X191280074Y-152720038D01*
X191280074Y-152720038D02*
X191375312Y-152815276D01*
X191375312Y-152815276D02*
X191422931Y-153005752D01*
X191422931Y-153005752D02*
X191422931Y-153339085D01*
X191422931Y-153339085D02*
X191375312Y-153529561D01*
X191375312Y-153529561D02*
X191280074Y-153624800D01*
X191280074Y-153624800D02*
X191184836Y-153672419D01*
X191184836Y-153672419D02*
X190994360Y-153672419D01*
X190994360Y-153672419D02*
X190899122Y-153624800D01*
X190899122Y-153624800D02*
X190803884Y-153529561D01*
X190803884Y-153529561D02*
X190756265Y-153339085D01*
X190756265Y-153339085D02*
X190756265Y-153005752D01*
X190756265Y-153005752D02*
X190803884Y-152815276D01*
X190803884Y-152815276D02*
X190899122Y-152720038D01*
X190899122Y-152720038D02*
X190994360Y-152672419D01*
X191851503Y-153005752D02*
X191851503Y-153672419D01*
X191851503Y-153100990D02*
X191899122Y-153053371D01*
X191899122Y-153053371D02*
X191994360Y-153005752D01*
X191994360Y-153005752D02*
X192137217Y-153005752D01*
X192137217Y-153005752D02*
X192232455Y-153053371D01*
X192232455Y-153053371D02*
X192280074Y-153148609D01*
X192280074Y-153148609D02*
X192280074Y-153672419D01*
X190994360Y-156372419D02*
X191184836Y-156372419D01*
X191184836Y-156372419D02*
X191280074Y-156420038D01*
X191280074Y-156420038D02*
X191375312Y-156515276D01*
X191375312Y-156515276D02*
X191422931Y-156705752D01*
X191422931Y-156705752D02*
X191422931Y-157039085D01*
X191422931Y-157039085D02*
X191375312Y-157229561D01*
X191375312Y-157229561D02*
X191280074Y-157324800D01*
X191280074Y-157324800D02*
X191184836Y-157372419D01*
X191184836Y-157372419D02*
X190994360Y-157372419D01*
X190994360Y-157372419D02*
X190899122Y-157324800D01*
X190899122Y-157324800D02*
X190803884Y-157229561D01*
X190803884Y-157229561D02*
X190756265Y-157039085D01*
X190756265Y-157039085D02*
X190756265Y-156705752D01*
X190756265Y-156705752D02*
X190803884Y-156515276D01*
X190803884Y-156515276D02*
X190899122Y-156420038D01*
X190899122Y-156420038D02*
X190994360Y-156372419D01*
X191708646Y-156705752D02*
X192089598Y-156705752D01*
X191851503Y-157372419D02*
X191851503Y-156515276D01*
X191851503Y-156515276D02*
X191899122Y-156420038D01*
X191899122Y-156420038D02*
X191994360Y-156372419D01*
X191994360Y-156372419D02*
X192089598Y-156372419D01*
X192280075Y-156705752D02*
X192661027Y-156705752D01*
X192422932Y-157372419D02*
X192422932Y-156515276D01*
X192422932Y-156515276D02*
X192470551Y-156420038D01*
X192470551Y-156420038D02*
X192565789Y-156372419D01*
X192565789Y-156372419D02*
X192661027Y-156372419D01*
D11*
X128954819Y-96833333D02*
X129669104Y-96833333D01*
X129669104Y-96833333D02*
X129811961Y-96880952D01*
X129811961Y-96880952D02*
X129907200Y-96976190D01*
X129907200Y-96976190D02*
X129954819Y-97119047D01*
X129954819Y-97119047D02*
X129954819Y-97214285D01*
X128954819Y-96452380D02*
X128954819Y-95833333D01*
X128954819Y-95833333D02*
X129335771Y-96166666D01*
X129335771Y-96166666D02*
X129335771Y-96023809D01*
X129335771Y-96023809D02*
X129383390Y-95928571D01*
X129383390Y-95928571D02*
X129431009Y-95880952D01*
X129431009Y-95880952D02*
X129526247Y-95833333D01*
X129526247Y-95833333D02*
X129764342Y-95833333D01*
X129764342Y-95833333D02*
X129859580Y-95880952D01*
X129859580Y-95880952D02*
X129907200Y-95928571D01*
X129907200Y-95928571D02*
X129954819Y-96023809D01*
X129954819Y-96023809D02*
X129954819Y-96309523D01*
X129954819Y-96309523D02*
X129907200Y-96404761D01*
X129907200Y-96404761D02*
X129859580Y-96452380D01*
X139357142Y-88859580D02*
X139309523Y-88907200D01*
X139309523Y-88907200D02*
X139166666Y-88954819D01*
X139166666Y-88954819D02*
X139071428Y-88954819D01*
X139071428Y-88954819D02*
X138928571Y-88907200D01*
X138928571Y-88907200D02*
X138833333Y-88811961D01*
X138833333Y-88811961D02*
X138785714Y-88716723D01*
X138785714Y-88716723D02*
X138738095Y-88526247D01*
X138738095Y-88526247D02*
X138738095Y-88383390D01*
X138738095Y-88383390D02*
X138785714Y-88192914D01*
X138785714Y-88192914D02*
X138833333Y-88097676D01*
X138833333Y-88097676D02*
X138928571Y-88002438D01*
X138928571Y-88002438D02*
X139071428Y-87954819D01*
X139071428Y-87954819D02*
X139166666Y-87954819D01*
X139166666Y-87954819D02*
X139309523Y-88002438D01*
X139309523Y-88002438D02*
X139357142Y-88050057D01*
X140309523Y-88954819D02*
X139738095Y-88954819D01*
X140023809Y-88954819D02*
X140023809Y-87954819D01*
X140023809Y-87954819D02*
X139928571Y-88097676D01*
X139928571Y-88097676D02*
X139833333Y-88192914D01*
X139833333Y-88192914D02*
X139738095Y-88240533D01*
X141261904Y-88954819D02*
X140690476Y-88954819D01*
X140976190Y-88954819D02*
X140976190Y-87954819D01*
X140976190Y-87954819D02*
X140880952Y-88097676D01*
X140880952Y-88097676D02*
X140785714Y-88192914D01*
X140785714Y-88192914D02*
X140690476Y-88240533D01*
X190384819Y-119666666D02*
X189908628Y-119999999D01*
X190384819Y-120238094D02*
X189384819Y-120238094D01*
X189384819Y-120238094D02*
X189384819Y-119857142D01*
X189384819Y-119857142D02*
X189432438Y-119761904D01*
X189432438Y-119761904D02*
X189480057Y-119714285D01*
X189480057Y-119714285D02*
X189575295Y-119666666D01*
X189575295Y-119666666D02*
X189718152Y-119666666D01*
X189718152Y-119666666D02*
X189813390Y-119714285D01*
X189813390Y-119714285D02*
X189861009Y-119761904D01*
X189861009Y-119761904D02*
X189908628Y-119857142D01*
X189908628Y-119857142D02*
X189908628Y-120238094D01*
X190384819Y-118714285D02*
X190384819Y-119285713D01*
X190384819Y-118999999D02*
X189384819Y-118999999D01*
X189384819Y-118999999D02*
X189527676Y-119095237D01*
X189527676Y-119095237D02*
X189622914Y-119190475D01*
X189622914Y-119190475D02*
X189670533Y-119285713D01*
X165642856Y-151404819D02*
X165642856Y-152119104D01*
X165642856Y-152119104D02*
X165595237Y-152261961D01*
X165595237Y-152261961D02*
X165499999Y-152357200D01*
X165499999Y-152357200D02*
X165357142Y-152404819D01*
X165357142Y-152404819D02*
X165261904Y-152404819D01*
X165880952Y-152500057D02*
X166642856Y-152500057D01*
X166738095Y-151404819D02*
X167071428Y-152404819D01*
X167071428Y-152404819D02*
X167404761Y-151404819D01*
X167690476Y-152119104D02*
X168166666Y-152119104D01*
X167595238Y-152404819D02*
X167928571Y-151404819D01*
X167928571Y-151404819D02*
X168261904Y-152404819D01*
X169071428Y-152404819D02*
X168595238Y-152404819D01*
X168595238Y-152404819D02*
X168595238Y-151404819D01*
X169261905Y-151404819D02*
X169595238Y-152404819D01*
X169595238Y-152404819D02*
X169928571Y-151404819D01*
X170261905Y-151881009D02*
X170595238Y-151881009D01*
X170738095Y-152404819D02*
X170261905Y-152404819D01*
X170261905Y-152404819D02*
X170261905Y-151404819D01*
X170261905Y-151404819D02*
X170738095Y-151404819D01*
X171690476Y-152404819D02*
X171119048Y-152404819D01*
X171404762Y-152404819D02*
X171404762Y-151404819D01*
X171404762Y-151404819D02*
X171309524Y-151547676D01*
X171309524Y-151547676D02*
X171214286Y-151642914D01*
X171214286Y-151642914D02*
X171119048Y-151690533D01*
X190789580Y-91642857D02*
X190837200Y-91690476D01*
X190837200Y-91690476D02*
X190884819Y-91833333D01*
X190884819Y-91833333D02*
X190884819Y-91928571D01*
X190884819Y-91928571D02*
X190837200Y-92071428D01*
X190837200Y-92071428D02*
X190741961Y-92166666D01*
X190741961Y-92166666D02*
X190646723Y-92214285D01*
X190646723Y-92214285D02*
X190456247Y-92261904D01*
X190456247Y-92261904D02*
X190313390Y-92261904D01*
X190313390Y-92261904D02*
X190122914Y-92214285D01*
X190122914Y-92214285D02*
X190027676Y-92166666D01*
X190027676Y-92166666D02*
X189932438Y-92071428D01*
X189932438Y-92071428D02*
X189884819Y-91928571D01*
X189884819Y-91928571D02*
X189884819Y-91833333D01*
X189884819Y-91833333D02*
X189932438Y-91690476D01*
X189932438Y-91690476D02*
X189980057Y-91642857D01*
X190884819Y-90690476D02*
X190884819Y-91261904D01*
X190884819Y-90976190D02*
X189884819Y-90976190D01*
X189884819Y-90976190D02*
X190027676Y-91071428D01*
X190027676Y-91071428D02*
X190122914Y-91166666D01*
X190122914Y-91166666D02*
X190170533Y-91261904D01*
X189884819Y-90357142D02*
X189884819Y-89738095D01*
X189884819Y-89738095D02*
X190265771Y-90071428D01*
X190265771Y-90071428D02*
X190265771Y-89928571D01*
X190265771Y-89928571D02*
X190313390Y-89833333D01*
X190313390Y-89833333D02*
X190361009Y-89785714D01*
X190361009Y-89785714D02*
X190456247Y-89738095D01*
X190456247Y-89738095D02*
X190694342Y-89738095D01*
X190694342Y-89738095D02*
X190789580Y-89785714D01*
X190789580Y-89785714D02*
X190837200Y-89833333D01*
X190837200Y-89833333D02*
X190884819Y-89928571D01*
X190884819Y-89928571D02*
X190884819Y-90214285D01*
X190884819Y-90214285D02*
X190837200Y-90309523D01*
X190837200Y-90309523D02*
X190789580Y-90357142D01*
X140333333Y-82859580D02*
X140285714Y-82907200D01*
X140285714Y-82907200D02*
X140142857Y-82954819D01*
X140142857Y-82954819D02*
X140047619Y-82954819D01*
X140047619Y-82954819D02*
X139904762Y-82907200D01*
X139904762Y-82907200D02*
X139809524Y-82811961D01*
X139809524Y-82811961D02*
X139761905Y-82716723D01*
X139761905Y-82716723D02*
X139714286Y-82526247D01*
X139714286Y-82526247D02*
X139714286Y-82383390D01*
X139714286Y-82383390D02*
X139761905Y-82192914D01*
X139761905Y-82192914D02*
X139809524Y-82097676D01*
X139809524Y-82097676D02*
X139904762Y-82002438D01*
X139904762Y-82002438D02*
X140047619Y-81954819D01*
X140047619Y-81954819D02*
X140142857Y-81954819D01*
X140142857Y-81954819D02*
X140285714Y-82002438D01*
X140285714Y-82002438D02*
X140333333Y-82050057D01*
X141285714Y-82954819D02*
X140714286Y-82954819D01*
X141000000Y-82954819D02*
X141000000Y-81954819D01*
X141000000Y-81954819D02*
X140904762Y-82097676D01*
X140904762Y-82097676D02*
X140809524Y-82192914D01*
X140809524Y-82192914D02*
X140714286Y-82240533D01*
X179500000Y-83954819D02*
X179500000Y-82954819D01*
X179500000Y-82954819D02*
X179738095Y-82954819D01*
X179738095Y-82954819D02*
X179880952Y-83002438D01*
X179880952Y-83002438D02*
X179976190Y-83097676D01*
X179976190Y-83097676D02*
X180023809Y-83192914D01*
X180023809Y-83192914D02*
X180071428Y-83383390D01*
X180071428Y-83383390D02*
X180071428Y-83526247D01*
X180071428Y-83526247D02*
X180023809Y-83716723D01*
X180023809Y-83716723D02*
X179976190Y-83811961D01*
X179976190Y-83811961D02*
X179880952Y-83907200D01*
X179880952Y-83907200D02*
X179738095Y-83954819D01*
X179738095Y-83954819D02*
X179500000Y-83954819D01*
X180261905Y-84050057D02*
X181023809Y-84050057D01*
X181214286Y-83907200D02*
X181357143Y-83954819D01*
X181357143Y-83954819D02*
X181595238Y-83954819D01*
X181595238Y-83954819D02*
X181690476Y-83907200D01*
X181690476Y-83907200D02*
X181738095Y-83859580D01*
X181738095Y-83859580D02*
X181785714Y-83764342D01*
X181785714Y-83764342D02*
X181785714Y-83669104D01*
X181785714Y-83669104D02*
X181738095Y-83573866D01*
X181738095Y-83573866D02*
X181690476Y-83526247D01*
X181690476Y-83526247D02*
X181595238Y-83478628D01*
X181595238Y-83478628D02*
X181404762Y-83431009D01*
X181404762Y-83431009D02*
X181309524Y-83383390D01*
X181309524Y-83383390D02*
X181261905Y-83335771D01*
X181261905Y-83335771D02*
X181214286Y-83240533D01*
X181214286Y-83240533D02*
X181214286Y-83145295D01*
X181214286Y-83145295D02*
X181261905Y-83050057D01*
X181261905Y-83050057D02*
X181309524Y-83002438D01*
X181309524Y-83002438D02*
X181404762Y-82954819D01*
X181404762Y-82954819D02*
X181642857Y-82954819D01*
X181642857Y-82954819D02*
X181785714Y-83002438D01*
X182404762Y-83478628D02*
X182404762Y-83954819D01*
X182071429Y-82954819D02*
X182404762Y-83478628D01*
X182404762Y-83478628D02*
X182738095Y-82954819D01*
X183023810Y-83907200D02*
X183166667Y-83954819D01*
X183166667Y-83954819D02*
X183404762Y-83954819D01*
X183404762Y-83954819D02*
X183500000Y-83907200D01*
X183500000Y-83907200D02*
X183547619Y-83859580D01*
X183547619Y-83859580D02*
X183595238Y-83764342D01*
X183595238Y-83764342D02*
X183595238Y-83669104D01*
X183595238Y-83669104D02*
X183547619Y-83573866D01*
X183547619Y-83573866D02*
X183500000Y-83526247D01*
X183500000Y-83526247D02*
X183404762Y-83478628D01*
X183404762Y-83478628D02*
X183214286Y-83431009D01*
X183214286Y-83431009D02*
X183119048Y-83383390D01*
X183119048Y-83383390D02*
X183071429Y-83335771D01*
X183071429Y-83335771D02*
X183023810Y-83240533D01*
X183023810Y-83240533D02*
X183023810Y-83145295D01*
X183023810Y-83145295D02*
X183071429Y-83050057D01*
X183071429Y-83050057D02*
X183119048Y-83002438D01*
X183119048Y-83002438D02*
X183214286Y-82954819D01*
X183214286Y-82954819D02*
X183452381Y-82954819D01*
X183452381Y-82954819D02*
X183595238Y-83002438D01*
X184547619Y-83954819D02*
X183976191Y-83954819D01*
X184261905Y-83954819D02*
X184261905Y-82954819D01*
X184261905Y-82954819D02*
X184166667Y-83097676D01*
X184166667Y-83097676D02*
X184071429Y-83192914D01*
X184071429Y-83192914D02*
X183976191Y-83240533D01*
X179789580Y-86142857D02*
X179837200Y-86190476D01*
X179837200Y-86190476D02*
X179884819Y-86333333D01*
X179884819Y-86333333D02*
X179884819Y-86428571D01*
X179884819Y-86428571D02*
X179837200Y-86571428D01*
X179837200Y-86571428D02*
X179741961Y-86666666D01*
X179741961Y-86666666D02*
X179646723Y-86714285D01*
X179646723Y-86714285D02*
X179456247Y-86761904D01*
X179456247Y-86761904D02*
X179313390Y-86761904D01*
X179313390Y-86761904D02*
X179122914Y-86714285D01*
X179122914Y-86714285D02*
X179027676Y-86666666D01*
X179027676Y-86666666D02*
X178932438Y-86571428D01*
X178932438Y-86571428D02*
X178884819Y-86428571D01*
X178884819Y-86428571D02*
X178884819Y-86333333D01*
X178884819Y-86333333D02*
X178932438Y-86190476D01*
X178932438Y-86190476D02*
X178980057Y-86142857D01*
X179884819Y-85190476D02*
X179884819Y-85761904D01*
X179884819Y-85476190D02*
X178884819Y-85476190D01*
X178884819Y-85476190D02*
X179027676Y-85571428D01*
X179027676Y-85571428D02*
X179122914Y-85666666D01*
X179122914Y-85666666D02*
X179170533Y-85761904D01*
X179884819Y-84714285D02*
X179884819Y-84523809D01*
X179884819Y-84523809D02*
X179837200Y-84428571D01*
X179837200Y-84428571D02*
X179789580Y-84380952D01*
X179789580Y-84380952D02*
X179646723Y-84285714D01*
X179646723Y-84285714D02*
X179456247Y-84238095D01*
X179456247Y-84238095D02*
X179075295Y-84238095D01*
X179075295Y-84238095D02*
X178980057Y-84285714D01*
X178980057Y-84285714D02*
X178932438Y-84333333D01*
X178932438Y-84333333D02*
X178884819Y-84428571D01*
X178884819Y-84428571D02*
X178884819Y-84619047D01*
X178884819Y-84619047D02*
X178932438Y-84714285D01*
X178932438Y-84714285D02*
X178980057Y-84761904D01*
X178980057Y-84761904D02*
X179075295Y-84809523D01*
X179075295Y-84809523D02*
X179313390Y-84809523D01*
X179313390Y-84809523D02*
X179408628Y-84761904D01*
X179408628Y-84761904D02*
X179456247Y-84714285D01*
X179456247Y-84714285D02*
X179503866Y-84619047D01*
X179503866Y-84619047D02*
X179503866Y-84428571D01*
X179503866Y-84428571D02*
X179456247Y-84333333D01*
X179456247Y-84333333D02*
X179408628Y-84285714D01*
X179408628Y-84285714D02*
X179313390Y-84238095D01*
X162238095Y-129954819D02*
X162238095Y-130764342D01*
X162238095Y-130764342D02*
X162285714Y-130859580D01*
X162285714Y-130859580D02*
X162333333Y-130907200D01*
X162333333Y-130907200D02*
X162428571Y-130954819D01*
X162428571Y-130954819D02*
X162619047Y-130954819D01*
X162619047Y-130954819D02*
X162714285Y-130907200D01*
X162714285Y-130907200D02*
X162761904Y-130859580D01*
X162761904Y-130859580D02*
X162809523Y-130764342D01*
X162809523Y-130764342D02*
X162809523Y-129954819D01*
X163238095Y-130050057D02*
X163285714Y-130002438D01*
X163285714Y-130002438D02*
X163380952Y-129954819D01*
X163380952Y-129954819D02*
X163619047Y-129954819D01*
X163619047Y-129954819D02*
X163714285Y-130002438D01*
X163714285Y-130002438D02*
X163761904Y-130050057D01*
X163761904Y-130050057D02*
X163809523Y-130145295D01*
X163809523Y-130145295D02*
X163809523Y-130240533D01*
X163809523Y-130240533D02*
X163761904Y-130383390D01*
X163761904Y-130383390D02*
X163190476Y-130954819D01*
X163190476Y-130954819D02*
X163809523Y-130954819D01*
X148333333Y-97954819D02*
X148000000Y-97478628D01*
X147761905Y-97954819D02*
X147761905Y-96954819D01*
X147761905Y-96954819D02*
X148142857Y-96954819D01*
X148142857Y-96954819D02*
X148238095Y-97002438D01*
X148238095Y-97002438D02*
X148285714Y-97050057D01*
X148285714Y-97050057D02*
X148333333Y-97145295D01*
X148333333Y-97145295D02*
X148333333Y-97288152D01*
X148333333Y-97288152D02*
X148285714Y-97383390D01*
X148285714Y-97383390D02*
X148238095Y-97431009D01*
X148238095Y-97431009D02*
X148142857Y-97478628D01*
X148142857Y-97478628D02*
X147761905Y-97478628D01*
X149190476Y-97288152D02*
X149190476Y-97954819D01*
X148952381Y-96907200D02*
X148714286Y-97621485D01*
X148714286Y-97621485D02*
X149333333Y-97621485D01*
X131261905Y-121454819D02*
X131261905Y-120454819D01*
X131261905Y-120454819D02*
X131500000Y-120454819D01*
X131500000Y-120454819D02*
X131642857Y-120502438D01*
X131642857Y-120502438D02*
X131738095Y-120597676D01*
X131738095Y-120597676D02*
X131785714Y-120692914D01*
X131785714Y-120692914D02*
X131833333Y-120883390D01*
X131833333Y-120883390D02*
X131833333Y-121026247D01*
X131833333Y-121026247D02*
X131785714Y-121216723D01*
X131785714Y-121216723D02*
X131738095Y-121311961D01*
X131738095Y-121311961D02*
X131642857Y-121407200D01*
X131642857Y-121407200D02*
X131500000Y-121454819D01*
X131500000Y-121454819D02*
X131261905Y-121454819D01*
X132690476Y-120454819D02*
X132500000Y-120454819D01*
X132500000Y-120454819D02*
X132404762Y-120502438D01*
X132404762Y-120502438D02*
X132357143Y-120550057D01*
X132357143Y-120550057D02*
X132261905Y-120692914D01*
X132261905Y-120692914D02*
X132214286Y-120883390D01*
X132214286Y-120883390D02*
X132214286Y-121264342D01*
X132214286Y-121264342D02*
X132261905Y-121359580D01*
X132261905Y-121359580D02*
X132309524Y-121407200D01*
X132309524Y-121407200D02*
X132404762Y-121454819D01*
X132404762Y-121454819D02*
X132595238Y-121454819D01*
X132595238Y-121454819D02*
X132690476Y-121407200D01*
X132690476Y-121407200D02*
X132738095Y-121359580D01*
X132738095Y-121359580D02*
X132785714Y-121264342D01*
X132785714Y-121264342D02*
X132785714Y-121026247D01*
X132785714Y-121026247D02*
X132738095Y-120931009D01*
X132738095Y-120931009D02*
X132690476Y-120883390D01*
X132690476Y-120883390D02*
X132595238Y-120835771D01*
X132595238Y-120835771D02*
X132404762Y-120835771D01*
X132404762Y-120835771D02*
X132309524Y-120883390D01*
X132309524Y-120883390D02*
X132261905Y-120931009D01*
X132261905Y-120931009D02*
X132214286Y-121026247D01*
X146357142Y-88954819D02*
X146023809Y-88478628D01*
X145785714Y-88954819D02*
X145785714Y-87954819D01*
X145785714Y-87954819D02*
X146166666Y-87954819D01*
X146166666Y-87954819D02*
X146261904Y-88002438D01*
X146261904Y-88002438D02*
X146309523Y-88050057D01*
X146309523Y-88050057D02*
X146357142Y-88145295D01*
X146357142Y-88145295D02*
X146357142Y-88288152D01*
X146357142Y-88288152D02*
X146309523Y-88383390D01*
X146309523Y-88383390D02*
X146261904Y-88431009D01*
X146261904Y-88431009D02*
X146166666Y-88478628D01*
X146166666Y-88478628D02*
X145785714Y-88478628D01*
X147309523Y-88954819D02*
X146738095Y-88954819D01*
X147023809Y-88954819D02*
X147023809Y-87954819D01*
X147023809Y-87954819D02*
X146928571Y-88097676D01*
X146928571Y-88097676D02*
X146833333Y-88192914D01*
X146833333Y-88192914D02*
X146738095Y-88240533D01*
X147928571Y-87954819D02*
X148023809Y-87954819D01*
X148023809Y-87954819D02*
X148119047Y-88002438D01*
X148119047Y-88002438D02*
X148166666Y-88050057D01*
X148166666Y-88050057D02*
X148214285Y-88145295D01*
X148214285Y-88145295D02*
X148261904Y-88335771D01*
X148261904Y-88335771D02*
X148261904Y-88573866D01*
X148261904Y-88573866D02*
X148214285Y-88764342D01*
X148214285Y-88764342D02*
X148166666Y-88859580D01*
X148166666Y-88859580D02*
X148119047Y-88907200D01*
X148119047Y-88907200D02*
X148023809Y-88954819D01*
X148023809Y-88954819D02*
X147928571Y-88954819D01*
X147928571Y-88954819D02*
X147833333Y-88907200D01*
X147833333Y-88907200D02*
X147785714Y-88859580D01*
X147785714Y-88859580D02*
X147738095Y-88764342D01*
X147738095Y-88764342D02*
X147690476Y-88573866D01*
X147690476Y-88573866D02*
X147690476Y-88335771D01*
X147690476Y-88335771D02*
X147738095Y-88145295D01*
X147738095Y-88145295D02*
X147785714Y-88050057D01*
X147785714Y-88050057D02*
X147833333Y-88002438D01*
X147833333Y-88002438D02*
X147928571Y-87954819D01*
X187454819Y-120658094D02*
X186454819Y-120658094D01*
X186454819Y-120658094D02*
X186454819Y-120419999D01*
X186454819Y-120419999D02*
X186502438Y-120277142D01*
X186502438Y-120277142D02*
X186597676Y-120181904D01*
X186597676Y-120181904D02*
X186692914Y-120134285D01*
X186692914Y-120134285D02*
X186883390Y-120086666D01*
X186883390Y-120086666D02*
X187026247Y-120086666D01*
X187026247Y-120086666D02*
X187216723Y-120134285D01*
X187216723Y-120134285D02*
X187311961Y-120181904D01*
X187311961Y-120181904D02*
X187407200Y-120277142D01*
X187407200Y-120277142D02*
X187454819Y-120419999D01*
X187454819Y-120419999D02*
X187454819Y-120658094D01*
X187454819Y-119134285D02*
X187454819Y-119705713D01*
X187454819Y-119419999D02*
X186454819Y-119419999D01*
X186454819Y-119419999D02*
X186597676Y-119515237D01*
X186597676Y-119515237D02*
X186692914Y-119610475D01*
X186692914Y-119610475D02*
X186740533Y-119705713D01*
X193216666Y-109954819D02*
X193216666Y-110669104D01*
X193216666Y-110669104D02*
X193169047Y-110811961D01*
X193169047Y-110811961D02*
X193073809Y-110907200D01*
X193073809Y-110907200D02*
X192930952Y-110954819D01*
X192930952Y-110954819D02*
X192835714Y-110954819D01*
X193645238Y-110050057D02*
X193692857Y-110002438D01*
X193692857Y-110002438D02*
X193788095Y-109954819D01*
X193788095Y-109954819D02*
X194026190Y-109954819D01*
X194026190Y-109954819D02*
X194121428Y-110002438D01*
X194121428Y-110002438D02*
X194169047Y-110050057D01*
X194169047Y-110050057D02*
X194216666Y-110145295D01*
X194216666Y-110145295D02*
X194216666Y-110240533D01*
X194216666Y-110240533D02*
X194169047Y-110383390D01*
X194169047Y-110383390D02*
X193597619Y-110954819D01*
X193597619Y-110954819D02*
X194216666Y-110954819D01*
X157024819Y-104341666D02*
X156548628Y-104674999D01*
X157024819Y-104913094D02*
X156024819Y-104913094D01*
X156024819Y-104913094D02*
X156024819Y-104532142D01*
X156024819Y-104532142D02*
X156072438Y-104436904D01*
X156072438Y-104436904D02*
X156120057Y-104389285D01*
X156120057Y-104389285D02*
X156215295Y-104341666D01*
X156215295Y-104341666D02*
X156358152Y-104341666D01*
X156358152Y-104341666D02*
X156453390Y-104389285D01*
X156453390Y-104389285D02*
X156501009Y-104436904D01*
X156501009Y-104436904D02*
X156548628Y-104532142D01*
X156548628Y-104532142D02*
X156548628Y-104913094D01*
X156453390Y-103770237D02*
X156405771Y-103865475D01*
X156405771Y-103865475D02*
X156358152Y-103913094D01*
X156358152Y-103913094D02*
X156262914Y-103960713D01*
X156262914Y-103960713D02*
X156215295Y-103960713D01*
X156215295Y-103960713D02*
X156120057Y-103913094D01*
X156120057Y-103913094D02*
X156072438Y-103865475D01*
X156072438Y-103865475D02*
X156024819Y-103770237D01*
X156024819Y-103770237D02*
X156024819Y-103579761D01*
X156024819Y-103579761D02*
X156072438Y-103484523D01*
X156072438Y-103484523D02*
X156120057Y-103436904D01*
X156120057Y-103436904D02*
X156215295Y-103389285D01*
X156215295Y-103389285D02*
X156262914Y-103389285D01*
X156262914Y-103389285D02*
X156358152Y-103436904D01*
X156358152Y-103436904D02*
X156405771Y-103484523D01*
X156405771Y-103484523D02*
X156453390Y-103579761D01*
X156453390Y-103579761D02*
X156453390Y-103770237D01*
X156453390Y-103770237D02*
X156501009Y-103865475D01*
X156501009Y-103865475D02*
X156548628Y-103913094D01*
X156548628Y-103913094D02*
X156643866Y-103960713D01*
X156643866Y-103960713D02*
X156834342Y-103960713D01*
X156834342Y-103960713D02*
X156929580Y-103913094D01*
X156929580Y-103913094D02*
X156977200Y-103865475D01*
X156977200Y-103865475D02*
X157024819Y-103770237D01*
X157024819Y-103770237D02*
X157024819Y-103579761D01*
X157024819Y-103579761D02*
X156977200Y-103484523D01*
X156977200Y-103484523D02*
X156929580Y-103436904D01*
X156929580Y-103436904D02*
X156834342Y-103389285D01*
X156834342Y-103389285D02*
X156643866Y-103389285D01*
X156643866Y-103389285D02*
X156548628Y-103436904D01*
X156548628Y-103436904D02*
X156501009Y-103484523D01*
X156501009Y-103484523D02*
X156453390Y-103579761D01*
X135690476Y-151404819D02*
X135690476Y-152119104D01*
X135690476Y-152119104D02*
X135642857Y-152261961D01*
X135642857Y-152261961D02*
X135547619Y-152357200D01*
X135547619Y-152357200D02*
X135404762Y-152404819D01*
X135404762Y-152404819D02*
X135309524Y-152404819D01*
X135928572Y-152500057D02*
X136690476Y-152500057D01*
X136928572Y-152404819D02*
X136928572Y-151404819D01*
X136928572Y-151404819D02*
X137309524Y-151404819D01*
X137309524Y-151404819D02*
X137404762Y-151452438D01*
X137404762Y-151452438D02*
X137452381Y-151500057D01*
X137452381Y-151500057D02*
X137500000Y-151595295D01*
X137500000Y-151595295D02*
X137500000Y-151738152D01*
X137500000Y-151738152D02*
X137452381Y-151833390D01*
X137452381Y-151833390D02*
X137404762Y-151881009D01*
X137404762Y-151881009D02*
X137309524Y-151928628D01*
X137309524Y-151928628D02*
X136928572Y-151928628D01*
X137928572Y-151404819D02*
X137928572Y-152214342D01*
X137928572Y-152214342D02*
X137976191Y-152309580D01*
X137976191Y-152309580D02*
X138023810Y-152357200D01*
X138023810Y-152357200D02*
X138119048Y-152404819D01*
X138119048Y-152404819D02*
X138309524Y-152404819D01*
X138309524Y-152404819D02*
X138404762Y-152357200D01*
X138404762Y-152357200D02*
X138452381Y-152309580D01*
X138452381Y-152309580D02*
X138500000Y-152214342D01*
X138500000Y-152214342D02*
X138500000Y-151404819D01*
X138976191Y-152404819D02*
X138976191Y-151404819D01*
X138976191Y-151404819D02*
X139309524Y-152119104D01*
X139309524Y-152119104D02*
X139642857Y-151404819D01*
X139642857Y-151404819D02*
X139642857Y-152404819D01*
X140119048Y-152404819D02*
X140119048Y-151404819D01*
X140119048Y-151404819D02*
X140500000Y-151404819D01*
X140500000Y-151404819D02*
X140595238Y-151452438D01*
X140595238Y-151452438D02*
X140642857Y-151500057D01*
X140642857Y-151500057D02*
X140690476Y-151595295D01*
X140690476Y-151595295D02*
X140690476Y-151738152D01*
X140690476Y-151738152D02*
X140642857Y-151833390D01*
X140642857Y-151833390D02*
X140595238Y-151881009D01*
X140595238Y-151881009D02*
X140500000Y-151928628D01*
X140500000Y-151928628D02*
X140119048Y-151928628D01*
X141642857Y-152404819D02*
X141071429Y-152404819D01*
X141357143Y-152404819D02*
X141357143Y-151404819D01*
X141357143Y-151404819D02*
X141261905Y-151547676D01*
X141261905Y-151547676D02*
X141166667Y-151642914D01*
X141166667Y-151642914D02*
X141071429Y-151690533D01*
X128954819Y-103833333D02*
X129669104Y-103833333D01*
X129669104Y-103833333D02*
X129811961Y-103880952D01*
X129811961Y-103880952D02*
X129907200Y-103976190D01*
X129907200Y-103976190D02*
X129954819Y-104119047D01*
X129954819Y-104119047D02*
X129954819Y-104214285D01*
X129288152Y-102928571D02*
X129954819Y-102928571D01*
X128907200Y-103166666D02*
X129621485Y-103404761D01*
X129621485Y-103404761D02*
X129621485Y-102785714D01*
X173333333Y-120559580D02*
X173285714Y-120607200D01*
X173285714Y-120607200D02*
X173142857Y-120654819D01*
X173142857Y-120654819D02*
X173047619Y-120654819D01*
X173047619Y-120654819D02*
X172904762Y-120607200D01*
X172904762Y-120607200D02*
X172809524Y-120511961D01*
X172809524Y-120511961D02*
X172761905Y-120416723D01*
X172761905Y-120416723D02*
X172714286Y-120226247D01*
X172714286Y-120226247D02*
X172714286Y-120083390D01*
X172714286Y-120083390D02*
X172761905Y-119892914D01*
X172761905Y-119892914D02*
X172809524Y-119797676D01*
X172809524Y-119797676D02*
X172904762Y-119702438D01*
X172904762Y-119702438D02*
X173047619Y-119654819D01*
X173047619Y-119654819D02*
X173142857Y-119654819D01*
X173142857Y-119654819D02*
X173285714Y-119702438D01*
X173285714Y-119702438D02*
X173333333Y-119750057D01*
X173904762Y-120083390D02*
X173809524Y-120035771D01*
X173809524Y-120035771D02*
X173761905Y-119988152D01*
X173761905Y-119988152D02*
X173714286Y-119892914D01*
X173714286Y-119892914D02*
X173714286Y-119845295D01*
X173714286Y-119845295D02*
X173761905Y-119750057D01*
X173761905Y-119750057D02*
X173809524Y-119702438D01*
X173809524Y-119702438D02*
X173904762Y-119654819D01*
X173904762Y-119654819D02*
X174095238Y-119654819D01*
X174095238Y-119654819D02*
X174190476Y-119702438D01*
X174190476Y-119702438D02*
X174238095Y-119750057D01*
X174238095Y-119750057D02*
X174285714Y-119845295D01*
X174285714Y-119845295D02*
X174285714Y-119892914D01*
X174285714Y-119892914D02*
X174238095Y-119988152D01*
X174238095Y-119988152D02*
X174190476Y-120035771D01*
X174190476Y-120035771D02*
X174095238Y-120083390D01*
X174095238Y-120083390D02*
X173904762Y-120083390D01*
X173904762Y-120083390D02*
X173809524Y-120131009D01*
X173809524Y-120131009D02*
X173761905Y-120178628D01*
X173761905Y-120178628D02*
X173714286Y-120273866D01*
X173714286Y-120273866D02*
X173714286Y-120464342D01*
X173714286Y-120464342D02*
X173761905Y-120559580D01*
X173761905Y-120559580D02*
X173809524Y-120607200D01*
X173809524Y-120607200D02*
X173904762Y-120654819D01*
X173904762Y-120654819D02*
X174095238Y-120654819D01*
X174095238Y-120654819D02*
X174190476Y-120607200D01*
X174190476Y-120607200D02*
X174238095Y-120559580D01*
X174238095Y-120559580D02*
X174285714Y-120464342D01*
X174285714Y-120464342D02*
X174285714Y-120273866D01*
X174285714Y-120273866D02*
X174238095Y-120178628D01*
X174238095Y-120178628D02*
X174190476Y-120131009D01*
X174190476Y-120131009D02*
X174095238Y-120083390D01*
X186554819Y-138238094D02*
X185554819Y-138238094D01*
X185554819Y-138238094D02*
X185554819Y-137999999D01*
X185554819Y-137999999D02*
X185602438Y-137857142D01*
X185602438Y-137857142D02*
X185697676Y-137761904D01*
X185697676Y-137761904D02*
X185792914Y-137714285D01*
X185792914Y-137714285D02*
X185983390Y-137666666D01*
X185983390Y-137666666D02*
X186126247Y-137666666D01*
X186126247Y-137666666D02*
X186316723Y-137714285D01*
X186316723Y-137714285D02*
X186411961Y-137761904D01*
X186411961Y-137761904D02*
X186507200Y-137857142D01*
X186507200Y-137857142D02*
X186554819Y-137999999D01*
X186554819Y-137999999D02*
X186554819Y-138238094D01*
X185554819Y-137333332D02*
X185554819Y-136666666D01*
X185554819Y-136666666D02*
X186554819Y-137095237D01*
X183082142Y-137929580D02*
X183034523Y-137977200D01*
X183034523Y-137977200D02*
X182891666Y-138024819D01*
X182891666Y-138024819D02*
X182796428Y-138024819D01*
X182796428Y-138024819D02*
X182653571Y-137977200D01*
X182653571Y-137977200D02*
X182558333Y-137881961D01*
X182558333Y-137881961D02*
X182510714Y-137786723D01*
X182510714Y-137786723D02*
X182463095Y-137596247D01*
X182463095Y-137596247D02*
X182463095Y-137453390D01*
X182463095Y-137453390D02*
X182510714Y-137262914D01*
X182510714Y-137262914D02*
X182558333Y-137167676D01*
X182558333Y-137167676D02*
X182653571Y-137072438D01*
X182653571Y-137072438D02*
X182796428Y-137024819D01*
X182796428Y-137024819D02*
X182891666Y-137024819D01*
X182891666Y-137024819D02*
X183034523Y-137072438D01*
X183034523Y-137072438D02*
X183082142Y-137120057D01*
X184034523Y-138024819D02*
X183463095Y-138024819D01*
X183748809Y-138024819D02*
X183748809Y-137024819D01*
X183748809Y-137024819D02*
X183653571Y-137167676D01*
X183653571Y-137167676D02*
X183558333Y-137262914D01*
X183558333Y-137262914D02*
X183463095Y-137310533D01*
X184367857Y-137024819D02*
X185034523Y-137024819D01*
X185034523Y-137024819D02*
X184605952Y-138024819D01*
X135200714Y-146454819D02*
X135200714Y-145454819D01*
X135200714Y-145454819D02*
X135438809Y-145454819D01*
X135438809Y-145454819D02*
X135581666Y-145502438D01*
X135581666Y-145502438D02*
X135676904Y-145597676D01*
X135676904Y-145597676D02*
X135724523Y-145692914D01*
X135724523Y-145692914D02*
X135772142Y-145883390D01*
X135772142Y-145883390D02*
X135772142Y-146026247D01*
X135772142Y-146026247D02*
X135724523Y-146216723D01*
X135724523Y-146216723D02*
X135676904Y-146311961D01*
X135676904Y-146311961D02*
X135581666Y-146407200D01*
X135581666Y-146407200D02*
X135438809Y-146454819D01*
X135438809Y-146454819D02*
X135200714Y-146454819D01*
X135962619Y-146550057D02*
X136724523Y-146550057D01*
X136962619Y-146454819D02*
X136962619Y-145454819D01*
X136962619Y-145454819D02*
X137343571Y-145454819D01*
X137343571Y-145454819D02*
X137438809Y-145502438D01*
X137438809Y-145502438D02*
X137486428Y-145550057D01*
X137486428Y-145550057D02*
X137534047Y-145645295D01*
X137534047Y-145645295D02*
X137534047Y-145788152D01*
X137534047Y-145788152D02*
X137486428Y-145883390D01*
X137486428Y-145883390D02*
X137438809Y-145931009D01*
X137438809Y-145931009D02*
X137343571Y-145978628D01*
X137343571Y-145978628D02*
X136962619Y-145978628D01*
X137962619Y-145454819D02*
X137962619Y-146264342D01*
X137962619Y-146264342D02*
X138010238Y-146359580D01*
X138010238Y-146359580D02*
X138057857Y-146407200D01*
X138057857Y-146407200D02*
X138153095Y-146454819D01*
X138153095Y-146454819D02*
X138343571Y-146454819D01*
X138343571Y-146454819D02*
X138438809Y-146407200D01*
X138438809Y-146407200D02*
X138486428Y-146359580D01*
X138486428Y-146359580D02*
X138534047Y-146264342D01*
X138534047Y-146264342D02*
X138534047Y-145454819D01*
X139010238Y-146454819D02*
X139010238Y-145454819D01*
X139010238Y-145454819D02*
X139343571Y-146169104D01*
X139343571Y-146169104D02*
X139676904Y-145454819D01*
X139676904Y-145454819D02*
X139676904Y-146454819D01*
X140153095Y-146454819D02*
X140153095Y-145454819D01*
X140153095Y-145454819D02*
X140534047Y-145454819D01*
X140534047Y-145454819D02*
X140629285Y-145502438D01*
X140629285Y-145502438D02*
X140676904Y-145550057D01*
X140676904Y-145550057D02*
X140724523Y-145645295D01*
X140724523Y-145645295D02*
X140724523Y-145788152D01*
X140724523Y-145788152D02*
X140676904Y-145883390D01*
X140676904Y-145883390D02*
X140629285Y-145931009D01*
X140629285Y-145931009D02*
X140534047Y-145978628D01*
X140534047Y-145978628D02*
X140153095Y-145978628D01*
X141676904Y-146454819D02*
X141105476Y-146454819D01*
X141391190Y-146454819D02*
X141391190Y-145454819D01*
X141391190Y-145454819D02*
X141295952Y-145597676D01*
X141295952Y-145597676D02*
X141200714Y-145692914D01*
X141200714Y-145692914D02*
X141105476Y-145740533D01*
X191414819Y-136293333D02*
X192129104Y-136293333D01*
X192129104Y-136293333D02*
X192271961Y-136340952D01*
X192271961Y-136340952D02*
X192367200Y-136436190D01*
X192367200Y-136436190D02*
X192414819Y-136579047D01*
X192414819Y-136579047D02*
X192414819Y-136674285D01*
X191414819Y-135912380D02*
X191414819Y-135245714D01*
X191414819Y-135245714D02*
X192414819Y-135674285D01*
X178523810Y-105157200D02*
X178666667Y-105204819D01*
X178666667Y-105204819D02*
X178904762Y-105204819D01*
X178904762Y-105204819D02*
X179000000Y-105157200D01*
X179000000Y-105157200D02*
X179047619Y-105109580D01*
X179047619Y-105109580D02*
X179095238Y-105014342D01*
X179095238Y-105014342D02*
X179095238Y-104919104D01*
X179095238Y-104919104D02*
X179047619Y-104823866D01*
X179047619Y-104823866D02*
X179000000Y-104776247D01*
X179000000Y-104776247D02*
X178904762Y-104728628D01*
X178904762Y-104728628D02*
X178714286Y-104681009D01*
X178714286Y-104681009D02*
X178619048Y-104633390D01*
X178619048Y-104633390D02*
X178571429Y-104585771D01*
X178571429Y-104585771D02*
X178523810Y-104490533D01*
X178523810Y-104490533D02*
X178523810Y-104395295D01*
X178523810Y-104395295D02*
X178571429Y-104300057D01*
X178571429Y-104300057D02*
X178619048Y-104252438D01*
X178619048Y-104252438D02*
X178714286Y-104204819D01*
X178714286Y-104204819D02*
X178952381Y-104204819D01*
X178952381Y-104204819D02*
X179095238Y-104252438D01*
X179428572Y-104204819D02*
X179666667Y-105204819D01*
X179666667Y-105204819D02*
X179857143Y-104490533D01*
X179857143Y-104490533D02*
X180047619Y-105204819D01*
X180047619Y-105204819D02*
X180285715Y-104204819D01*
X180428572Y-105300057D02*
X181190476Y-105300057D01*
X181952381Y-104252438D02*
X181857143Y-104204819D01*
X181857143Y-104204819D02*
X181714286Y-104204819D01*
X181714286Y-104204819D02*
X181571429Y-104252438D01*
X181571429Y-104252438D02*
X181476191Y-104347676D01*
X181476191Y-104347676D02*
X181428572Y-104442914D01*
X181428572Y-104442914D02*
X181380953Y-104633390D01*
X181380953Y-104633390D02*
X181380953Y-104776247D01*
X181380953Y-104776247D02*
X181428572Y-104966723D01*
X181428572Y-104966723D02*
X181476191Y-105061961D01*
X181476191Y-105061961D02*
X181571429Y-105157200D01*
X181571429Y-105157200D02*
X181714286Y-105204819D01*
X181714286Y-105204819D02*
X181809524Y-105204819D01*
X181809524Y-105204819D02*
X181952381Y-105157200D01*
X181952381Y-105157200D02*
X182000000Y-105109580D01*
X182000000Y-105109580D02*
X182000000Y-104776247D01*
X182000000Y-104776247D02*
X181809524Y-104776247D01*
X182428572Y-105204819D02*
X182428572Y-104204819D01*
X182428572Y-104204819D02*
X182809524Y-104204819D01*
X182809524Y-104204819D02*
X182904762Y-104252438D01*
X182904762Y-104252438D02*
X182952381Y-104300057D01*
X182952381Y-104300057D02*
X183000000Y-104395295D01*
X183000000Y-104395295D02*
X183000000Y-104538152D01*
X183000000Y-104538152D02*
X182952381Y-104633390D01*
X182952381Y-104633390D02*
X182904762Y-104681009D01*
X182904762Y-104681009D02*
X182809524Y-104728628D01*
X182809524Y-104728628D02*
X182428572Y-104728628D01*
X183428572Y-105204819D02*
X183428572Y-104204819D01*
X184095238Y-104204819D02*
X184285714Y-104204819D01*
X184285714Y-104204819D02*
X184380952Y-104252438D01*
X184380952Y-104252438D02*
X184476190Y-104347676D01*
X184476190Y-104347676D02*
X184523809Y-104538152D01*
X184523809Y-104538152D02*
X184523809Y-104871485D01*
X184523809Y-104871485D02*
X184476190Y-105061961D01*
X184476190Y-105061961D02*
X184380952Y-105157200D01*
X184380952Y-105157200D02*
X184285714Y-105204819D01*
X184285714Y-105204819D02*
X184095238Y-105204819D01*
X184095238Y-105204819D02*
X184000000Y-105157200D01*
X184000000Y-105157200D02*
X183904762Y-105061961D01*
X183904762Y-105061961D02*
X183857143Y-104871485D01*
X183857143Y-104871485D02*
X183857143Y-104538152D01*
X183857143Y-104538152D02*
X183904762Y-104347676D01*
X183904762Y-104347676D02*
X184000000Y-104252438D01*
X184000000Y-104252438D02*
X184095238Y-104204819D01*
X185142857Y-104204819D02*
X185238095Y-104204819D01*
X185238095Y-104204819D02*
X185333333Y-104252438D01*
X185333333Y-104252438D02*
X185380952Y-104300057D01*
X185380952Y-104300057D02*
X185428571Y-104395295D01*
X185428571Y-104395295D02*
X185476190Y-104585771D01*
X185476190Y-104585771D02*
X185476190Y-104823866D01*
X185476190Y-104823866D02*
X185428571Y-105014342D01*
X185428571Y-105014342D02*
X185380952Y-105109580D01*
X185380952Y-105109580D02*
X185333333Y-105157200D01*
X185333333Y-105157200D02*
X185238095Y-105204819D01*
X185238095Y-105204819D02*
X185142857Y-105204819D01*
X185142857Y-105204819D02*
X185047619Y-105157200D01*
X185047619Y-105157200D02*
X185000000Y-105109580D01*
X185000000Y-105109580D02*
X184952381Y-105014342D01*
X184952381Y-105014342D02*
X184904762Y-104823866D01*
X184904762Y-104823866D02*
X184904762Y-104585771D01*
X184904762Y-104585771D02*
X184952381Y-104395295D01*
X184952381Y-104395295D02*
X185000000Y-104300057D01*
X185000000Y-104300057D02*
X185047619Y-104252438D01*
X185047619Y-104252438D02*
X185142857Y-104204819D01*
X193714285Y-146454819D02*
X193714285Y-145454819D01*
X193714285Y-145454819D02*
X193952380Y-145454819D01*
X193952380Y-145454819D02*
X194095237Y-145502438D01*
X194095237Y-145502438D02*
X194190475Y-145597676D01*
X194190475Y-145597676D02*
X194238094Y-145692914D01*
X194238094Y-145692914D02*
X194285713Y-145883390D01*
X194285713Y-145883390D02*
X194285713Y-146026247D01*
X194285713Y-146026247D02*
X194238094Y-146216723D01*
X194238094Y-146216723D02*
X194190475Y-146311961D01*
X194190475Y-146311961D02*
X194095237Y-146407200D01*
X194095237Y-146407200D02*
X193952380Y-146454819D01*
X193952380Y-146454819D02*
X193714285Y-146454819D01*
X194476190Y-146550057D02*
X195238094Y-146550057D01*
X195809523Y-145931009D02*
X195476190Y-145931009D01*
X195476190Y-146454819D02*
X195476190Y-145454819D01*
X195476190Y-145454819D02*
X195952380Y-145454819D01*
X196809523Y-146454819D02*
X196333333Y-146454819D01*
X196333333Y-146454819D02*
X196333333Y-145454819D01*
X197333333Y-145454819D02*
X197523809Y-145454819D01*
X197523809Y-145454819D02*
X197619047Y-145502438D01*
X197619047Y-145502438D02*
X197714285Y-145597676D01*
X197714285Y-145597676D02*
X197761904Y-145788152D01*
X197761904Y-145788152D02*
X197761904Y-146121485D01*
X197761904Y-146121485D02*
X197714285Y-146311961D01*
X197714285Y-146311961D02*
X197619047Y-146407200D01*
X197619047Y-146407200D02*
X197523809Y-146454819D01*
X197523809Y-146454819D02*
X197333333Y-146454819D01*
X197333333Y-146454819D02*
X197238095Y-146407200D01*
X197238095Y-146407200D02*
X197142857Y-146311961D01*
X197142857Y-146311961D02*
X197095238Y-146121485D01*
X197095238Y-146121485D02*
X197095238Y-145788152D01*
X197095238Y-145788152D02*
X197142857Y-145597676D01*
X197142857Y-145597676D02*
X197238095Y-145502438D01*
X197238095Y-145502438D02*
X197333333Y-145454819D01*
X198142857Y-146169104D02*
X198619047Y-146169104D01*
X198047619Y-146454819D02*
X198380952Y-145454819D01*
X198380952Y-145454819D02*
X198714285Y-146454819D01*
X198904762Y-145454819D02*
X199476190Y-145454819D01*
X199190476Y-146454819D02*
X199190476Y-145454819D01*
X200333333Y-146454819D02*
X199761905Y-146454819D01*
X200047619Y-146454819D02*
X200047619Y-145454819D01*
X200047619Y-145454819D02*
X199952381Y-145597676D01*
X199952381Y-145597676D02*
X199857143Y-145692914D01*
X199857143Y-145692914D02*
X199761905Y-145740533D01*
X158404819Y-113916666D02*
X158404819Y-114392856D01*
X158404819Y-114392856D02*
X157404819Y-114392856D01*
X158404819Y-113059523D02*
X158404819Y-113630951D01*
X158404819Y-113345237D02*
X157404819Y-113345237D01*
X157404819Y-113345237D02*
X157547676Y-113440475D01*
X157547676Y-113440475D02*
X157642914Y-113535713D01*
X157642914Y-113535713D02*
X157690533Y-113630951D01*
X146357142Y-90524819D02*
X146023809Y-90048628D01*
X145785714Y-90524819D02*
X145785714Y-89524819D01*
X145785714Y-89524819D02*
X146166666Y-89524819D01*
X146166666Y-89524819D02*
X146261904Y-89572438D01*
X146261904Y-89572438D02*
X146309523Y-89620057D01*
X146309523Y-89620057D02*
X146357142Y-89715295D01*
X146357142Y-89715295D02*
X146357142Y-89858152D01*
X146357142Y-89858152D02*
X146309523Y-89953390D01*
X146309523Y-89953390D02*
X146261904Y-90001009D01*
X146261904Y-90001009D02*
X146166666Y-90048628D01*
X146166666Y-90048628D02*
X145785714Y-90048628D01*
X147309523Y-90524819D02*
X146738095Y-90524819D01*
X147023809Y-90524819D02*
X147023809Y-89524819D01*
X147023809Y-89524819D02*
X146928571Y-89667676D01*
X146928571Y-89667676D02*
X146833333Y-89762914D01*
X146833333Y-89762914D02*
X146738095Y-89810533D01*
X148261904Y-90524819D02*
X147690476Y-90524819D01*
X147976190Y-90524819D02*
X147976190Y-89524819D01*
X147976190Y-89524819D02*
X147880952Y-89667676D01*
X147880952Y-89667676D02*
X147785714Y-89762914D01*
X147785714Y-89762914D02*
X147690476Y-89810533D01*
X146333333Y-97954819D02*
X146000000Y-97478628D01*
X145761905Y-97954819D02*
X145761905Y-96954819D01*
X145761905Y-96954819D02*
X146142857Y-96954819D01*
X146142857Y-96954819D02*
X146238095Y-97002438D01*
X146238095Y-97002438D02*
X146285714Y-97050057D01*
X146285714Y-97050057D02*
X146333333Y-97145295D01*
X146333333Y-97145295D02*
X146333333Y-97288152D01*
X146333333Y-97288152D02*
X146285714Y-97383390D01*
X146285714Y-97383390D02*
X146238095Y-97431009D01*
X146238095Y-97431009D02*
X146142857Y-97478628D01*
X146142857Y-97478628D02*
X145761905Y-97478628D01*
X146666667Y-96954819D02*
X147285714Y-96954819D01*
X147285714Y-96954819D02*
X146952381Y-97335771D01*
X146952381Y-97335771D02*
X147095238Y-97335771D01*
X147095238Y-97335771D02*
X147190476Y-97383390D01*
X147190476Y-97383390D02*
X147238095Y-97431009D01*
X147238095Y-97431009D02*
X147285714Y-97526247D01*
X147285714Y-97526247D02*
X147285714Y-97764342D01*
X147285714Y-97764342D02*
X147238095Y-97859580D01*
X147238095Y-97859580D02*
X147190476Y-97907200D01*
X147190476Y-97907200D02*
X147095238Y-97954819D01*
X147095238Y-97954819D02*
X146809524Y-97954819D01*
X146809524Y-97954819D02*
X146714286Y-97907200D01*
X146714286Y-97907200D02*
X146666667Y-97859580D01*
X192238095Y-84954819D02*
X192238095Y-83954819D01*
X192238095Y-84431009D02*
X192809523Y-84431009D01*
X192809523Y-84954819D02*
X192809523Y-83954819D01*
X193714285Y-84288152D02*
X193714285Y-84954819D01*
X193476190Y-83907200D02*
X193238095Y-84621485D01*
X193238095Y-84621485D02*
X193857142Y-84621485D01*
X197666666Y-91374819D02*
X197666666Y-92089104D01*
X197666666Y-92089104D02*
X197619047Y-92231961D01*
X197619047Y-92231961D02*
X197523809Y-92327200D01*
X197523809Y-92327200D02*
X197380952Y-92374819D01*
X197380952Y-92374819D02*
X197285714Y-92374819D01*
X198666666Y-92374819D02*
X198095238Y-92374819D01*
X198380952Y-92374819D02*
X198380952Y-91374819D01*
X198380952Y-91374819D02*
X198285714Y-91517676D01*
X198285714Y-91517676D02*
X198190476Y-91612914D01*
X198190476Y-91612914D02*
X198095238Y-91660533D01*
X180333333Y-114359580D02*
X180285714Y-114407200D01*
X180285714Y-114407200D02*
X180142857Y-114454819D01*
X180142857Y-114454819D02*
X180047619Y-114454819D01*
X180047619Y-114454819D02*
X179904762Y-114407200D01*
X179904762Y-114407200D02*
X179809524Y-114311961D01*
X179809524Y-114311961D02*
X179761905Y-114216723D01*
X179761905Y-114216723D02*
X179714286Y-114026247D01*
X179714286Y-114026247D02*
X179714286Y-113883390D01*
X179714286Y-113883390D02*
X179761905Y-113692914D01*
X179761905Y-113692914D02*
X179809524Y-113597676D01*
X179809524Y-113597676D02*
X179904762Y-113502438D01*
X179904762Y-113502438D02*
X180047619Y-113454819D01*
X180047619Y-113454819D02*
X180142857Y-113454819D01*
X180142857Y-113454819D02*
X180285714Y-113502438D01*
X180285714Y-113502438D02*
X180333333Y-113550057D01*
X181238095Y-113454819D02*
X180761905Y-113454819D01*
X180761905Y-113454819D02*
X180714286Y-113931009D01*
X180714286Y-113931009D02*
X180761905Y-113883390D01*
X180761905Y-113883390D02*
X180857143Y-113835771D01*
X180857143Y-113835771D02*
X181095238Y-113835771D01*
X181095238Y-113835771D02*
X181190476Y-113883390D01*
X181190476Y-113883390D02*
X181238095Y-113931009D01*
X181238095Y-113931009D02*
X181285714Y-114026247D01*
X181285714Y-114026247D02*
X181285714Y-114264342D01*
X181285714Y-114264342D02*
X181238095Y-114359580D01*
X181238095Y-114359580D02*
X181190476Y-114407200D01*
X181190476Y-114407200D02*
X181095238Y-114454819D01*
X181095238Y-114454819D02*
X180857143Y-114454819D01*
X180857143Y-114454819D02*
X180761905Y-114407200D01*
X180761905Y-114407200D02*
X180714286Y-114359580D01*
X131261905Y-106892319D02*
X131261905Y-105892319D01*
X131261905Y-105892319D02*
X131500000Y-105892319D01*
X131500000Y-105892319D02*
X131642857Y-105939938D01*
X131642857Y-105939938D02*
X131738095Y-106035176D01*
X131738095Y-106035176D02*
X131785714Y-106130414D01*
X131785714Y-106130414D02*
X131833333Y-106320890D01*
X131833333Y-106320890D02*
X131833333Y-106463747D01*
X131833333Y-106463747D02*
X131785714Y-106654223D01*
X131785714Y-106654223D02*
X131738095Y-106749461D01*
X131738095Y-106749461D02*
X131642857Y-106844700D01*
X131642857Y-106844700D02*
X131500000Y-106892319D01*
X131500000Y-106892319D02*
X131261905Y-106892319D01*
X132690476Y-106225652D02*
X132690476Y-106892319D01*
X132452381Y-105844700D02*
X132214286Y-106558985D01*
X132214286Y-106558985D02*
X132833333Y-106558985D01*
X131057200Y-137826190D02*
X131104819Y-137683333D01*
X131104819Y-137683333D02*
X131104819Y-137445238D01*
X131104819Y-137445238D02*
X131057200Y-137350000D01*
X131057200Y-137350000D02*
X131009580Y-137302381D01*
X131009580Y-137302381D02*
X130914342Y-137254762D01*
X130914342Y-137254762D02*
X130819104Y-137254762D01*
X130819104Y-137254762D02*
X130723866Y-137302381D01*
X130723866Y-137302381D02*
X130676247Y-137350000D01*
X130676247Y-137350000D02*
X130628628Y-137445238D01*
X130628628Y-137445238D02*
X130581009Y-137635714D01*
X130581009Y-137635714D02*
X130533390Y-137730952D01*
X130533390Y-137730952D02*
X130485771Y-137778571D01*
X130485771Y-137778571D02*
X130390533Y-137826190D01*
X130390533Y-137826190D02*
X130295295Y-137826190D01*
X130295295Y-137826190D02*
X130200057Y-137778571D01*
X130200057Y-137778571D02*
X130152438Y-137730952D01*
X130152438Y-137730952D02*
X130104819Y-137635714D01*
X130104819Y-137635714D02*
X130104819Y-137397619D01*
X130104819Y-137397619D02*
X130152438Y-137254762D01*
X130104819Y-136921428D02*
X131104819Y-136683333D01*
X131104819Y-136683333D02*
X130390533Y-136492857D01*
X130390533Y-136492857D02*
X131104819Y-136302381D01*
X131104819Y-136302381D02*
X130104819Y-136064286D01*
X131200057Y-135921429D02*
X131200057Y-135159524D01*
X131104819Y-134350000D02*
X130628628Y-134683333D01*
X131104819Y-134921428D02*
X130104819Y-134921428D01*
X130104819Y-134921428D02*
X130104819Y-134540476D01*
X130104819Y-134540476D02*
X130152438Y-134445238D01*
X130152438Y-134445238D02*
X130200057Y-134397619D01*
X130200057Y-134397619D02*
X130295295Y-134350000D01*
X130295295Y-134350000D02*
X130438152Y-134350000D01*
X130438152Y-134350000D02*
X130533390Y-134397619D01*
X130533390Y-134397619D02*
X130581009Y-134445238D01*
X130581009Y-134445238D02*
X130628628Y-134540476D01*
X130628628Y-134540476D02*
X130628628Y-134921428D01*
X130581009Y-133921428D02*
X130581009Y-133588095D01*
X131104819Y-133445238D02*
X131104819Y-133921428D01*
X131104819Y-133921428D02*
X130104819Y-133921428D01*
X130104819Y-133921428D02*
X130104819Y-133445238D01*
X131057200Y-133064285D02*
X131104819Y-132921428D01*
X131104819Y-132921428D02*
X131104819Y-132683333D01*
X131104819Y-132683333D02*
X131057200Y-132588095D01*
X131057200Y-132588095D02*
X131009580Y-132540476D01*
X131009580Y-132540476D02*
X130914342Y-132492857D01*
X130914342Y-132492857D02*
X130819104Y-132492857D01*
X130819104Y-132492857D02*
X130723866Y-132540476D01*
X130723866Y-132540476D02*
X130676247Y-132588095D01*
X130676247Y-132588095D02*
X130628628Y-132683333D01*
X130628628Y-132683333D02*
X130581009Y-132873809D01*
X130581009Y-132873809D02*
X130533390Y-132969047D01*
X130533390Y-132969047D02*
X130485771Y-133016666D01*
X130485771Y-133016666D02*
X130390533Y-133064285D01*
X130390533Y-133064285D02*
X130295295Y-133064285D01*
X130295295Y-133064285D02*
X130200057Y-133016666D01*
X130200057Y-133016666D02*
X130152438Y-132969047D01*
X130152438Y-132969047D02*
X130104819Y-132873809D01*
X130104819Y-132873809D02*
X130104819Y-132635714D01*
X130104819Y-132635714D02*
X130152438Y-132492857D01*
X130581009Y-132064285D02*
X130581009Y-131730952D01*
X131104819Y-131588095D02*
X131104819Y-132064285D01*
X131104819Y-132064285D02*
X130104819Y-132064285D01*
X130104819Y-132064285D02*
X130104819Y-131588095D01*
X130104819Y-131302380D02*
X130104819Y-130730952D01*
X131104819Y-131016666D02*
X130104819Y-131016666D01*
X131104819Y-129873809D02*
X131104819Y-130445237D01*
X131104819Y-130159523D02*
X130104819Y-130159523D01*
X130104819Y-130159523D02*
X130247676Y-130254761D01*
X130247676Y-130254761D02*
X130342914Y-130349999D01*
X130342914Y-130349999D02*
X130390533Y-130445237D01*
X148833333Y-85859580D02*
X148785714Y-85907200D01*
X148785714Y-85907200D02*
X148642857Y-85954819D01*
X148642857Y-85954819D02*
X148547619Y-85954819D01*
X148547619Y-85954819D02*
X148404762Y-85907200D01*
X148404762Y-85907200D02*
X148309524Y-85811961D01*
X148309524Y-85811961D02*
X148261905Y-85716723D01*
X148261905Y-85716723D02*
X148214286Y-85526247D01*
X148214286Y-85526247D02*
X148214286Y-85383390D01*
X148214286Y-85383390D02*
X148261905Y-85192914D01*
X148261905Y-85192914D02*
X148309524Y-85097676D01*
X148309524Y-85097676D02*
X148404762Y-85002438D01*
X148404762Y-85002438D02*
X148547619Y-84954819D01*
X148547619Y-84954819D02*
X148642857Y-84954819D01*
X148642857Y-84954819D02*
X148785714Y-85002438D01*
X148785714Y-85002438D02*
X148833333Y-85050057D01*
X149690476Y-85288152D02*
X149690476Y-85954819D01*
X149452381Y-84907200D02*
X149214286Y-85621485D01*
X149214286Y-85621485D02*
X149833333Y-85621485D01*
X123738095Y-152304819D02*
X123738095Y-151304819D01*
X123738095Y-151781009D02*
X124309523Y-151781009D01*
X124309523Y-152304819D02*
X124309523Y-151304819D01*
X125309523Y-152304819D02*
X124738095Y-152304819D01*
X125023809Y-152304819D02*
X125023809Y-151304819D01*
X125023809Y-151304819D02*
X124928571Y-151447676D01*
X124928571Y-151447676D02*
X124833333Y-151542914D01*
X124833333Y-151542914D02*
X124738095Y-151590533D01*
X131261905Y-114454819D02*
X131261905Y-113454819D01*
X131261905Y-113454819D02*
X131500000Y-113454819D01*
X131500000Y-113454819D02*
X131642857Y-113502438D01*
X131642857Y-113502438D02*
X131738095Y-113597676D01*
X131738095Y-113597676D02*
X131785714Y-113692914D01*
X131785714Y-113692914D02*
X131833333Y-113883390D01*
X131833333Y-113883390D02*
X131833333Y-114026247D01*
X131833333Y-114026247D02*
X131785714Y-114216723D01*
X131785714Y-114216723D02*
X131738095Y-114311961D01*
X131738095Y-114311961D02*
X131642857Y-114407200D01*
X131642857Y-114407200D02*
X131500000Y-114454819D01*
X131500000Y-114454819D02*
X131261905Y-114454819D01*
X132738095Y-113454819D02*
X132261905Y-113454819D01*
X132261905Y-113454819D02*
X132214286Y-113931009D01*
X132214286Y-113931009D02*
X132261905Y-113883390D01*
X132261905Y-113883390D02*
X132357143Y-113835771D01*
X132357143Y-113835771D02*
X132595238Y-113835771D01*
X132595238Y-113835771D02*
X132690476Y-113883390D01*
X132690476Y-113883390D02*
X132738095Y-113931009D01*
X132738095Y-113931009D02*
X132785714Y-114026247D01*
X132785714Y-114026247D02*
X132785714Y-114264342D01*
X132785714Y-114264342D02*
X132738095Y-114359580D01*
X132738095Y-114359580D02*
X132690476Y-114407200D01*
X132690476Y-114407200D02*
X132595238Y-114454819D01*
X132595238Y-114454819D02*
X132357143Y-114454819D01*
X132357143Y-114454819D02*
X132261905Y-114407200D01*
X132261905Y-114407200D02*
X132214286Y-114359580D01*
X128954819Y-117833333D02*
X129669104Y-117833333D01*
X129669104Y-117833333D02*
X129811961Y-117880952D01*
X129811961Y-117880952D02*
X129907200Y-117976190D01*
X129907200Y-117976190D02*
X129954819Y-118119047D01*
X129954819Y-118119047D02*
X129954819Y-118214285D01*
X128954819Y-116928571D02*
X128954819Y-117119047D01*
X128954819Y-117119047D02*
X129002438Y-117214285D01*
X129002438Y-117214285D02*
X129050057Y-117261904D01*
X129050057Y-117261904D02*
X129192914Y-117357142D01*
X129192914Y-117357142D02*
X129383390Y-117404761D01*
X129383390Y-117404761D02*
X129764342Y-117404761D01*
X129764342Y-117404761D02*
X129859580Y-117357142D01*
X129859580Y-117357142D02*
X129907200Y-117309523D01*
X129907200Y-117309523D02*
X129954819Y-117214285D01*
X129954819Y-117214285D02*
X129954819Y-117023809D01*
X129954819Y-117023809D02*
X129907200Y-116928571D01*
X129907200Y-116928571D02*
X129859580Y-116880952D01*
X129859580Y-116880952D02*
X129764342Y-116833333D01*
X129764342Y-116833333D02*
X129526247Y-116833333D01*
X129526247Y-116833333D02*
X129431009Y-116880952D01*
X129431009Y-116880952D02*
X129383390Y-116928571D01*
X129383390Y-116928571D02*
X129335771Y-117023809D01*
X129335771Y-117023809D02*
X129335771Y-117214285D01*
X129335771Y-117214285D02*
X129383390Y-117309523D01*
X129383390Y-117309523D02*
X129431009Y-117357142D01*
X129431009Y-117357142D02*
X129526247Y-117404761D01*
X170238095Y-81804819D02*
X170238095Y-82614342D01*
X170238095Y-82614342D02*
X170285714Y-82709580D01*
X170285714Y-82709580D02*
X170333333Y-82757200D01*
X170333333Y-82757200D02*
X170428571Y-82804819D01*
X170428571Y-82804819D02*
X170619047Y-82804819D01*
X170619047Y-82804819D02*
X170714285Y-82757200D01*
X170714285Y-82757200D02*
X170761904Y-82709580D01*
X170761904Y-82709580D02*
X170809523Y-82614342D01*
X170809523Y-82614342D02*
X170809523Y-81804819D01*
X171809523Y-82804819D02*
X171238095Y-82804819D01*
X171523809Y-82804819D02*
X171523809Y-81804819D01*
X171523809Y-81804819D02*
X171428571Y-81947676D01*
X171428571Y-81947676D02*
X171333333Y-82042914D01*
X171333333Y-82042914D02*
X171238095Y-82090533D01*
X165323095Y-146454819D02*
X165323095Y-145454819D01*
X165323095Y-145454819D02*
X165561190Y-145454819D01*
X165561190Y-145454819D02*
X165704047Y-145502438D01*
X165704047Y-145502438D02*
X165799285Y-145597676D01*
X165799285Y-145597676D02*
X165846904Y-145692914D01*
X165846904Y-145692914D02*
X165894523Y-145883390D01*
X165894523Y-145883390D02*
X165894523Y-146026247D01*
X165894523Y-146026247D02*
X165846904Y-146216723D01*
X165846904Y-146216723D02*
X165799285Y-146311961D01*
X165799285Y-146311961D02*
X165704047Y-146407200D01*
X165704047Y-146407200D02*
X165561190Y-146454819D01*
X165561190Y-146454819D02*
X165323095Y-146454819D01*
X166085000Y-146550057D02*
X166846904Y-146550057D01*
X166942143Y-145454819D02*
X167275476Y-146454819D01*
X167275476Y-146454819D02*
X167608809Y-145454819D01*
X167894524Y-146169104D02*
X168370714Y-146169104D01*
X167799286Y-146454819D02*
X168132619Y-145454819D01*
X168132619Y-145454819D02*
X168465952Y-146454819D01*
X169275476Y-146454819D02*
X168799286Y-146454819D01*
X168799286Y-146454819D02*
X168799286Y-145454819D01*
X169465953Y-145454819D02*
X169799286Y-146454819D01*
X169799286Y-146454819D02*
X170132619Y-145454819D01*
X170465953Y-145931009D02*
X170799286Y-145931009D01*
X170942143Y-146454819D02*
X170465953Y-146454819D01*
X170465953Y-146454819D02*
X170465953Y-145454819D01*
X170465953Y-145454819D02*
X170942143Y-145454819D01*
X171894524Y-146454819D02*
X171323096Y-146454819D01*
X171608810Y-146454819D02*
X171608810Y-145454819D01*
X171608810Y-145454819D02*
X171513572Y-145597676D01*
X171513572Y-145597676D02*
X171418334Y-145692914D01*
X171418334Y-145692914D02*
X171323096Y-145740533D01*
X197238095Y-152304819D02*
X197238095Y-151304819D01*
X197238095Y-151781009D02*
X197809523Y-151781009D01*
X197809523Y-152304819D02*
X197809523Y-151304819D01*
X198238095Y-151400057D02*
X198285714Y-151352438D01*
X198285714Y-151352438D02*
X198380952Y-151304819D01*
X198380952Y-151304819D02*
X198619047Y-151304819D01*
X198619047Y-151304819D02*
X198714285Y-151352438D01*
X198714285Y-151352438D02*
X198761904Y-151400057D01*
X198761904Y-151400057D02*
X198809523Y-151495295D01*
X198809523Y-151495295D02*
X198809523Y-151590533D01*
X198809523Y-151590533D02*
X198761904Y-151733390D01*
X198761904Y-151733390D02*
X198190476Y-152304819D01*
X198190476Y-152304819D02*
X198809523Y-152304819D01*
X131261905Y-100017319D02*
X131261905Y-99017319D01*
X131261905Y-99017319D02*
X131500000Y-99017319D01*
X131500000Y-99017319D02*
X131642857Y-99064938D01*
X131642857Y-99064938D02*
X131738095Y-99160176D01*
X131738095Y-99160176D02*
X131785714Y-99255414D01*
X131785714Y-99255414D02*
X131833333Y-99445890D01*
X131833333Y-99445890D02*
X131833333Y-99588747D01*
X131833333Y-99588747D02*
X131785714Y-99779223D01*
X131785714Y-99779223D02*
X131738095Y-99874461D01*
X131738095Y-99874461D02*
X131642857Y-99969700D01*
X131642857Y-99969700D02*
X131500000Y-100017319D01*
X131500000Y-100017319D02*
X131261905Y-100017319D01*
X132404762Y-99445890D02*
X132309524Y-99398271D01*
X132309524Y-99398271D02*
X132261905Y-99350652D01*
X132261905Y-99350652D02*
X132214286Y-99255414D01*
X132214286Y-99255414D02*
X132214286Y-99207795D01*
X132214286Y-99207795D02*
X132261905Y-99112557D01*
X132261905Y-99112557D02*
X132309524Y-99064938D01*
X132309524Y-99064938D02*
X132404762Y-99017319D01*
X132404762Y-99017319D02*
X132595238Y-99017319D01*
X132595238Y-99017319D02*
X132690476Y-99064938D01*
X132690476Y-99064938D02*
X132738095Y-99112557D01*
X132738095Y-99112557D02*
X132785714Y-99207795D01*
X132785714Y-99207795D02*
X132785714Y-99255414D01*
X132785714Y-99255414D02*
X132738095Y-99350652D01*
X132738095Y-99350652D02*
X132690476Y-99398271D01*
X132690476Y-99398271D02*
X132595238Y-99445890D01*
X132595238Y-99445890D02*
X132404762Y-99445890D01*
X132404762Y-99445890D02*
X132309524Y-99493509D01*
X132309524Y-99493509D02*
X132261905Y-99541128D01*
X132261905Y-99541128D02*
X132214286Y-99636366D01*
X132214286Y-99636366D02*
X132214286Y-99826842D01*
X132214286Y-99826842D02*
X132261905Y-99922080D01*
X132261905Y-99922080D02*
X132309524Y-99969700D01*
X132309524Y-99969700D02*
X132404762Y-100017319D01*
X132404762Y-100017319D02*
X132595238Y-100017319D01*
X132595238Y-100017319D02*
X132690476Y-99969700D01*
X132690476Y-99969700D02*
X132738095Y-99922080D01*
X132738095Y-99922080D02*
X132785714Y-99826842D01*
X132785714Y-99826842D02*
X132785714Y-99636366D01*
X132785714Y-99636366D02*
X132738095Y-99541128D01*
X132738095Y-99541128D02*
X132690476Y-99493509D01*
X132690476Y-99493509D02*
X132595238Y-99445890D01*
X147333333Y-108454819D02*
X147000000Y-107978628D01*
X146761905Y-108454819D02*
X146761905Y-107454819D01*
X146761905Y-107454819D02*
X147142857Y-107454819D01*
X147142857Y-107454819D02*
X147238095Y-107502438D01*
X147238095Y-107502438D02*
X147285714Y-107550057D01*
X147285714Y-107550057D02*
X147333333Y-107645295D01*
X147333333Y-107645295D02*
X147333333Y-107788152D01*
X147333333Y-107788152D02*
X147285714Y-107883390D01*
X147285714Y-107883390D02*
X147238095Y-107931009D01*
X147238095Y-107931009D02*
X147142857Y-107978628D01*
X147142857Y-107978628D02*
X146761905Y-107978628D01*
X148190476Y-107454819D02*
X148000000Y-107454819D01*
X148000000Y-107454819D02*
X147904762Y-107502438D01*
X147904762Y-107502438D02*
X147857143Y-107550057D01*
X147857143Y-107550057D02*
X147761905Y-107692914D01*
X147761905Y-107692914D02*
X147714286Y-107883390D01*
X147714286Y-107883390D02*
X147714286Y-108264342D01*
X147714286Y-108264342D02*
X147761905Y-108359580D01*
X147761905Y-108359580D02*
X147809524Y-108407200D01*
X147809524Y-108407200D02*
X147904762Y-108454819D01*
X147904762Y-108454819D02*
X148095238Y-108454819D01*
X148095238Y-108454819D02*
X148190476Y-108407200D01*
X148190476Y-108407200D02*
X148238095Y-108359580D01*
X148238095Y-108359580D02*
X148285714Y-108264342D01*
X148285714Y-108264342D02*
X148285714Y-108026247D01*
X148285714Y-108026247D02*
X148238095Y-107931009D01*
X148238095Y-107931009D02*
X148190476Y-107883390D01*
X148190476Y-107883390D02*
X148095238Y-107835771D01*
X148095238Y-107835771D02*
X147904762Y-107835771D01*
X147904762Y-107835771D02*
X147809524Y-107883390D01*
X147809524Y-107883390D02*
X147761905Y-107931009D01*
X147761905Y-107931009D02*
X147714286Y-108026247D01*
X150690476Y-151404819D02*
X150690476Y-152119104D01*
X150690476Y-152119104D02*
X150642857Y-152261961D01*
X150642857Y-152261961D02*
X150547619Y-152357200D01*
X150547619Y-152357200D02*
X150404762Y-152404819D01*
X150404762Y-152404819D02*
X150309524Y-152404819D01*
X150928572Y-152500057D02*
X151690476Y-152500057D01*
X151928572Y-152404819D02*
X151928572Y-151404819D01*
X151928572Y-151404819D02*
X152309524Y-151404819D01*
X152309524Y-151404819D02*
X152404762Y-151452438D01*
X152404762Y-151452438D02*
X152452381Y-151500057D01*
X152452381Y-151500057D02*
X152500000Y-151595295D01*
X152500000Y-151595295D02*
X152500000Y-151738152D01*
X152500000Y-151738152D02*
X152452381Y-151833390D01*
X152452381Y-151833390D02*
X152404762Y-151881009D01*
X152404762Y-151881009D02*
X152309524Y-151928628D01*
X152309524Y-151928628D02*
X151928572Y-151928628D01*
X152928572Y-151404819D02*
X152928572Y-152214342D01*
X152928572Y-152214342D02*
X152976191Y-152309580D01*
X152976191Y-152309580D02*
X153023810Y-152357200D01*
X153023810Y-152357200D02*
X153119048Y-152404819D01*
X153119048Y-152404819D02*
X153309524Y-152404819D01*
X153309524Y-152404819D02*
X153404762Y-152357200D01*
X153404762Y-152357200D02*
X153452381Y-152309580D01*
X153452381Y-152309580D02*
X153500000Y-152214342D01*
X153500000Y-152214342D02*
X153500000Y-151404819D01*
X153976191Y-152404819D02*
X153976191Y-151404819D01*
X153976191Y-151404819D02*
X154309524Y-152119104D01*
X154309524Y-152119104D02*
X154642857Y-151404819D01*
X154642857Y-151404819D02*
X154642857Y-152404819D01*
X155119048Y-152404819D02*
X155119048Y-151404819D01*
X155119048Y-151404819D02*
X155500000Y-151404819D01*
X155500000Y-151404819D02*
X155595238Y-151452438D01*
X155595238Y-151452438D02*
X155642857Y-151500057D01*
X155642857Y-151500057D02*
X155690476Y-151595295D01*
X155690476Y-151595295D02*
X155690476Y-151738152D01*
X155690476Y-151738152D02*
X155642857Y-151833390D01*
X155642857Y-151833390D02*
X155595238Y-151881009D01*
X155595238Y-151881009D02*
X155500000Y-151928628D01*
X155500000Y-151928628D02*
X155119048Y-151928628D01*
X156071429Y-151500057D02*
X156119048Y-151452438D01*
X156119048Y-151452438D02*
X156214286Y-151404819D01*
X156214286Y-151404819D02*
X156452381Y-151404819D01*
X156452381Y-151404819D02*
X156547619Y-151452438D01*
X156547619Y-151452438D02*
X156595238Y-151500057D01*
X156595238Y-151500057D02*
X156642857Y-151595295D01*
X156642857Y-151595295D02*
X156642857Y-151690533D01*
X156642857Y-151690533D02*
X156595238Y-151833390D01*
X156595238Y-151833390D02*
X156023810Y-152404819D01*
X156023810Y-152404819D02*
X156642857Y-152404819D01*
X144833333Y-85859580D02*
X144785714Y-85907200D01*
X144785714Y-85907200D02*
X144642857Y-85954819D01*
X144642857Y-85954819D02*
X144547619Y-85954819D01*
X144547619Y-85954819D02*
X144404762Y-85907200D01*
X144404762Y-85907200D02*
X144309524Y-85811961D01*
X144309524Y-85811961D02*
X144261905Y-85716723D01*
X144261905Y-85716723D02*
X144214286Y-85526247D01*
X144214286Y-85526247D02*
X144214286Y-85383390D01*
X144214286Y-85383390D02*
X144261905Y-85192914D01*
X144261905Y-85192914D02*
X144309524Y-85097676D01*
X144309524Y-85097676D02*
X144404762Y-85002438D01*
X144404762Y-85002438D02*
X144547619Y-84954819D01*
X144547619Y-84954819D02*
X144642857Y-84954819D01*
X144642857Y-84954819D02*
X144785714Y-85002438D01*
X144785714Y-85002438D02*
X144833333Y-85050057D01*
X145214286Y-85050057D02*
X145261905Y-85002438D01*
X145261905Y-85002438D02*
X145357143Y-84954819D01*
X145357143Y-84954819D02*
X145595238Y-84954819D01*
X145595238Y-84954819D02*
X145690476Y-85002438D01*
X145690476Y-85002438D02*
X145738095Y-85050057D01*
X145738095Y-85050057D02*
X145785714Y-85145295D01*
X145785714Y-85145295D02*
X145785714Y-85240533D01*
X145785714Y-85240533D02*
X145738095Y-85383390D01*
X145738095Y-85383390D02*
X145166667Y-85954819D01*
X145166667Y-85954819D02*
X145785714Y-85954819D01*
X145333333Y-120059580D02*
X145285714Y-120107200D01*
X145285714Y-120107200D02*
X145142857Y-120154819D01*
X145142857Y-120154819D02*
X145047619Y-120154819D01*
X145047619Y-120154819D02*
X144904762Y-120107200D01*
X144904762Y-120107200D02*
X144809524Y-120011961D01*
X144809524Y-120011961D02*
X144761905Y-119916723D01*
X144761905Y-119916723D02*
X144714286Y-119726247D01*
X144714286Y-119726247D02*
X144714286Y-119583390D01*
X144714286Y-119583390D02*
X144761905Y-119392914D01*
X144761905Y-119392914D02*
X144809524Y-119297676D01*
X144809524Y-119297676D02*
X144904762Y-119202438D01*
X144904762Y-119202438D02*
X145047619Y-119154819D01*
X145047619Y-119154819D02*
X145142857Y-119154819D01*
X145142857Y-119154819D02*
X145285714Y-119202438D01*
X145285714Y-119202438D02*
X145333333Y-119250057D01*
X145809524Y-120154819D02*
X146000000Y-120154819D01*
X146000000Y-120154819D02*
X146095238Y-120107200D01*
X146095238Y-120107200D02*
X146142857Y-120059580D01*
X146142857Y-120059580D02*
X146238095Y-119916723D01*
X146238095Y-119916723D02*
X146285714Y-119726247D01*
X146285714Y-119726247D02*
X146285714Y-119345295D01*
X146285714Y-119345295D02*
X146238095Y-119250057D01*
X146238095Y-119250057D02*
X146190476Y-119202438D01*
X146190476Y-119202438D02*
X146095238Y-119154819D01*
X146095238Y-119154819D02*
X145904762Y-119154819D01*
X145904762Y-119154819D02*
X145809524Y-119202438D01*
X145809524Y-119202438D02*
X145761905Y-119250057D01*
X145761905Y-119250057D02*
X145714286Y-119345295D01*
X145714286Y-119345295D02*
X145714286Y-119583390D01*
X145714286Y-119583390D02*
X145761905Y-119678628D01*
X145761905Y-119678628D02*
X145809524Y-119726247D01*
X145809524Y-119726247D02*
X145904762Y-119773866D01*
X145904762Y-119773866D02*
X146095238Y-119773866D01*
X146095238Y-119773866D02*
X146190476Y-119726247D01*
X146190476Y-119726247D02*
X146238095Y-119678628D01*
X146238095Y-119678628D02*
X146285714Y-119583390D01*
X128954819Y-110833333D02*
X129669104Y-110833333D01*
X129669104Y-110833333D02*
X129811961Y-110880952D01*
X129811961Y-110880952D02*
X129907200Y-110976190D01*
X129907200Y-110976190D02*
X129954819Y-111119047D01*
X129954819Y-111119047D02*
X129954819Y-111214285D01*
X128954819Y-109880952D02*
X128954819Y-110357142D01*
X128954819Y-110357142D02*
X129431009Y-110404761D01*
X129431009Y-110404761D02*
X129383390Y-110357142D01*
X129383390Y-110357142D02*
X129335771Y-110261904D01*
X129335771Y-110261904D02*
X129335771Y-110023809D01*
X129335771Y-110023809D02*
X129383390Y-109928571D01*
X129383390Y-109928571D02*
X129431009Y-109880952D01*
X129431009Y-109880952D02*
X129526247Y-109833333D01*
X129526247Y-109833333D02*
X129764342Y-109833333D01*
X129764342Y-109833333D02*
X129859580Y-109880952D01*
X129859580Y-109880952D02*
X129907200Y-109928571D01*
X129907200Y-109928571D02*
X129954819Y-110023809D01*
X129954819Y-110023809D02*
X129954819Y-110261904D01*
X129954819Y-110261904D02*
X129907200Y-110357142D01*
X129907200Y-110357142D02*
X129859580Y-110404761D01*
X150833333Y-108454819D02*
X150500000Y-107978628D01*
X150261905Y-108454819D02*
X150261905Y-107454819D01*
X150261905Y-107454819D02*
X150642857Y-107454819D01*
X150642857Y-107454819D02*
X150738095Y-107502438D01*
X150738095Y-107502438D02*
X150785714Y-107550057D01*
X150785714Y-107550057D02*
X150833333Y-107645295D01*
X150833333Y-107645295D02*
X150833333Y-107788152D01*
X150833333Y-107788152D02*
X150785714Y-107883390D01*
X150785714Y-107883390D02*
X150738095Y-107931009D01*
X150738095Y-107931009D02*
X150642857Y-107978628D01*
X150642857Y-107978628D02*
X150261905Y-107978628D01*
X151738095Y-107454819D02*
X151261905Y-107454819D01*
X151261905Y-107454819D02*
X151214286Y-107931009D01*
X151214286Y-107931009D02*
X151261905Y-107883390D01*
X151261905Y-107883390D02*
X151357143Y-107835771D01*
X151357143Y-107835771D02*
X151595238Y-107835771D01*
X151595238Y-107835771D02*
X151690476Y-107883390D01*
X151690476Y-107883390D02*
X151738095Y-107931009D01*
X151738095Y-107931009D02*
X151785714Y-108026247D01*
X151785714Y-108026247D02*
X151785714Y-108264342D01*
X151785714Y-108264342D02*
X151738095Y-108359580D01*
X151738095Y-108359580D02*
X151690476Y-108407200D01*
X151690476Y-108407200D02*
X151595238Y-108454819D01*
X151595238Y-108454819D02*
X151357143Y-108454819D01*
X151357143Y-108454819D02*
X151261905Y-108407200D01*
X151261905Y-108407200D02*
X151214286Y-108359580D01*
X180418333Y-146454819D02*
X180418333Y-145454819D01*
X180418333Y-145454819D02*
X180656428Y-145454819D01*
X180656428Y-145454819D02*
X180799285Y-145502438D01*
X180799285Y-145502438D02*
X180894523Y-145597676D01*
X180894523Y-145597676D02*
X180942142Y-145692914D01*
X180942142Y-145692914D02*
X180989761Y-145883390D01*
X180989761Y-145883390D02*
X180989761Y-146026247D01*
X180989761Y-146026247D02*
X180942142Y-146216723D01*
X180942142Y-146216723D02*
X180894523Y-146311961D01*
X180894523Y-146311961D02*
X180799285Y-146407200D01*
X180799285Y-146407200D02*
X180656428Y-146454819D01*
X180656428Y-146454819D02*
X180418333Y-146454819D01*
X181180238Y-146550057D02*
X181942142Y-146550057D01*
X182656428Y-146454819D02*
X182180238Y-146454819D01*
X182180238Y-146454819D02*
X182180238Y-145454819D01*
X182989762Y-146454819D02*
X182989762Y-145454819D01*
X183989761Y-145502438D02*
X183894523Y-145454819D01*
X183894523Y-145454819D02*
X183751666Y-145454819D01*
X183751666Y-145454819D02*
X183608809Y-145502438D01*
X183608809Y-145502438D02*
X183513571Y-145597676D01*
X183513571Y-145597676D02*
X183465952Y-145692914D01*
X183465952Y-145692914D02*
X183418333Y-145883390D01*
X183418333Y-145883390D02*
X183418333Y-146026247D01*
X183418333Y-146026247D02*
X183465952Y-146216723D01*
X183465952Y-146216723D02*
X183513571Y-146311961D01*
X183513571Y-146311961D02*
X183608809Y-146407200D01*
X183608809Y-146407200D02*
X183751666Y-146454819D01*
X183751666Y-146454819D02*
X183846904Y-146454819D01*
X183846904Y-146454819D02*
X183989761Y-146407200D01*
X183989761Y-146407200D02*
X184037380Y-146359580D01*
X184037380Y-146359580D02*
X184037380Y-146026247D01*
X184037380Y-146026247D02*
X183846904Y-146026247D01*
X184465952Y-146454819D02*
X184465952Y-145454819D01*
X184465952Y-145931009D02*
X185037380Y-145931009D01*
X185037380Y-146454819D02*
X185037380Y-145454819D01*
X185370714Y-145454819D02*
X185942142Y-145454819D01*
X185656428Y-146454819D02*
X185656428Y-145454819D01*
X186799285Y-146454819D02*
X186227857Y-146454819D01*
X186513571Y-146454819D02*
X186513571Y-145454819D01*
X186513571Y-145454819D02*
X186418333Y-145597676D01*
X186418333Y-145597676D02*
X186323095Y-145692914D01*
X186323095Y-145692914D02*
X186227857Y-145740533D01*
X126132142Y-141289580D02*
X126084523Y-141337200D01*
X126084523Y-141337200D02*
X125941666Y-141384819D01*
X125941666Y-141384819D02*
X125846428Y-141384819D01*
X125846428Y-141384819D02*
X125703571Y-141337200D01*
X125703571Y-141337200D02*
X125608333Y-141241961D01*
X125608333Y-141241961D02*
X125560714Y-141146723D01*
X125560714Y-141146723D02*
X125513095Y-140956247D01*
X125513095Y-140956247D02*
X125513095Y-140813390D01*
X125513095Y-140813390D02*
X125560714Y-140622914D01*
X125560714Y-140622914D02*
X125608333Y-140527676D01*
X125608333Y-140527676D02*
X125703571Y-140432438D01*
X125703571Y-140432438D02*
X125846428Y-140384819D01*
X125846428Y-140384819D02*
X125941666Y-140384819D01*
X125941666Y-140384819D02*
X126084523Y-140432438D01*
X126084523Y-140432438D02*
X126132142Y-140480057D01*
X126513095Y-140480057D02*
X126560714Y-140432438D01*
X126560714Y-140432438D02*
X126655952Y-140384819D01*
X126655952Y-140384819D02*
X126894047Y-140384819D01*
X126894047Y-140384819D02*
X126989285Y-140432438D01*
X126989285Y-140432438D02*
X127036904Y-140480057D01*
X127036904Y-140480057D02*
X127084523Y-140575295D01*
X127084523Y-140575295D02*
X127084523Y-140670533D01*
X127084523Y-140670533D02*
X127036904Y-140813390D01*
X127036904Y-140813390D02*
X126465476Y-141384819D01*
X126465476Y-141384819D02*
X127084523Y-141384819D01*
X127703571Y-140384819D02*
X127798809Y-140384819D01*
X127798809Y-140384819D02*
X127894047Y-140432438D01*
X127894047Y-140432438D02*
X127941666Y-140480057D01*
X127941666Y-140480057D02*
X127989285Y-140575295D01*
X127989285Y-140575295D02*
X128036904Y-140765771D01*
X128036904Y-140765771D02*
X128036904Y-141003866D01*
X128036904Y-141003866D02*
X127989285Y-141194342D01*
X127989285Y-141194342D02*
X127941666Y-141289580D01*
X127941666Y-141289580D02*
X127894047Y-141337200D01*
X127894047Y-141337200D02*
X127798809Y-141384819D01*
X127798809Y-141384819D02*
X127703571Y-141384819D01*
X127703571Y-141384819D02*
X127608333Y-141337200D01*
X127608333Y-141337200D02*
X127560714Y-141289580D01*
X127560714Y-141289580D02*
X127513095Y-141194342D01*
X127513095Y-141194342D02*
X127465476Y-141003866D01*
X127465476Y-141003866D02*
X127465476Y-140765771D01*
X127465476Y-140765771D02*
X127513095Y-140575295D01*
X127513095Y-140575295D02*
X127560714Y-140480057D01*
X127560714Y-140480057D02*
X127608333Y-140432438D01*
X127608333Y-140432438D02*
X127703571Y-140384819D01*
X143857142Y-108859580D02*
X143809523Y-108907200D01*
X143809523Y-108907200D02*
X143666666Y-108954819D01*
X143666666Y-108954819D02*
X143571428Y-108954819D01*
X143571428Y-108954819D02*
X143428571Y-108907200D01*
X143428571Y-108907200D02*
X143333333Y-108811961D01*
X143333333Y-108811961D02*
X143285714Y-108716723D01*
X143285714Y-108716723D02*
X143238095Y-108526247D01*
X143238095Y-108526247D02*
X143238095Y-108383390D01*
X143238095Y-108383390D02*
X143285714Y-108192914D01*
X143285714Y-108192914D02*
X143333333Y-108097676D01*
X143333333Y-108097676D02*
X143428571Y-108002438D01*
X143428571Y-108002438D02*
X143571428Y-107954819D01*
X143571428Y-107954819D02*
X143666666Y-107954819D01*
X143666666Y-107954819D02*
X143809523Y-108002438D01*
X143809523Y-108002438D02*
X143857142Y-108050057D01*
X144809523Y-108954819D02*
X144238095Y-108954819D01*
X144523809Y-108954819D02*
X144523809Y-107954819D01*
X144523809Y-107954819D02*
X144428571Y-108097676D01*
X144428571Y-108097676D02*
X144333333Y-108192914D01*
X144333333Y-108192914D02*
X144238095Y-108240533D01*
X145428571Y-107954819D02*
X145523809Y-107954819D01*
X145523809Y-107954819D02*
X145619047Y-108002438D01*
X145619047Y-108002438D02*
X145666666Y-108050057D01*
X145666666Y-108050057D02*
X145714285Y-108145295D01*
X145714285Y-108145295D02*
X145761904Y-108335771D01*
X145761904Y-108335771D02*
X145761904Y-108573866D01*
X145761904Y-108573866D02*
X145714285Y-108764342D01*
X145714285Y-108764342D02*
X145666666Y-108859580D01*
X145666666Y-108859580D02*
X145619047Y-108907200D01*
X145619047Y-108907200D02*
X145523809Y-108954819D01*
X145523809Y-108954819D02*
X145428571Y-108954819D01*
X145428571Y-108954819D02*
X145333333Y-108907200D01*
X145333333Y-108907200D02*
X145285714Y-108859580D01*
X145285714Y-108859580D02*
X145238095Y-108764342D01*
X145238095Y-108764342D02*
X145190476Y-108573866D01*
X145190476Y-108573866D02*
X145190476Y-108335771D01*
X145190476Y-108335771D02*
X145238095Y-108145295D01*
X145238095Y-108145295D02*
X145285714Y-108050057D01*
X145285714Y-108050057D02*
X145333333Y-108002438D01*
X145333333Y-108002438D02*
X145428571Y-107954819D01*
X142833333Y-88954819D02*
X142500000Y-88478628D01*
X142261905Y-88954819D02*
X142261905Y-87954819D01*
X142261905Y-87954819D02*
X142642857Y-87954819D01*
X142642857Y-87954819D02*
X142738095Y-88002438D01*
X142738095Y-88002438D02*
X142785714Y-88050057D01*
X142785714Y-88050057D02*
X142833333Y-88145295D01*
X142833333Y-88145295D02*
X142833333Y-88288152D01*
X142833333Y-88288152D02*
X142785714Y-88383390D01*
X142785714Y-88383390D02*
X142738095Y-88431009D01*
X142738095Y-88431009D02*
X142642857Y-88478628D01*
X142642857Y-88478628D02*
X142261905Y-88478628D01*
X143166667Y-87954819D02*
X143833333Y-87954819D01*
X143833333Y-87954819D02*
X143404762Y-88954819D01*
X167857142Y-137929580D02*
X167809523Y-137977200D01*
X167809523Y-137977200D02*
X167666666Y-138024819D01*
X167666666Y-138024819D02*
X167571428Y-138024819D01*
X167571428Y-138024819D02*
X167428571Y-137977200D01*
X167428571Y-137977200D02*
X167333333Y-137881961D01*
X167333333Y-137881961D02*
X167285714Y-137786723D01*
X167285714Y-137786723D02*
X167238095Y-137596247D01*
X167238095Y-137596247D02*
X167238095Y-137453390D01*
X167238095Y-137453390D02*
X167285714Y-137262914D01*
X167285714Y-137262914D02*
X167333333Y-137167676D01*
X167333333Y-137167676D02*
X167428571Y-137072438D01*
X167428571Y-137072438D02*
X167571428Y-137024819D01*
X167571428Y-137024819D02*
X167666666Y-137024819D01*
X167666666Y-137024819D02*
X167809523Y-137072438D01*
X167809523Y-137072438D02*
X167857142Y-137120057D01*
X168809523Y-138024819D02*
X168238095Y-138024819D01*
X168523809Y-138024819D02*
X168523809Y-137024819D01*
X168523809Y-137024819D02*
X168428571Y-137167676D01*
X168428571Y-137167676D02*
X168333333Y-137262914D01*
X168333333Y-137262914D02*
X168238095Y-137310533D01*
X169666666Y-137024819D02*
X169476190Y-137024819D01*
X169476190Y-137024819D02*
X169380952Y-137072438D01*
X169380952Y-137072438D02*
X169333333Y-137120057D01*
X169333333Y-137120057D02*
X169238095Y-137262914D01*
X169238095Y-137262914D02*
X169190476Y-137453390D01*
X169190476Y-137453390D02*
X169190476Y-137834342D01*
X169190476Y-137834342D02*
X169238095Y-137929580D01*
X169238095Y-137929580D02*
X169285714Y-137977200D01*
X169285714Y-137977200D02*
X169380952Y-138024819D01*
X169380952Y-138024819D02*
X169571428Y-138024819D01*
X169571428Y-138024819D02*
X169666666Y-137977200D01*
X169666666Y-137977200D02*
X169714285Y-137929580D01*
X169714285Y-137929580D02*
X169761904Y-137834342D01*
X169761904Y-137834342D02*
X169761904Y-137596247D01*
X169761904Y-137596247D02*
X169714285Y-137501009D01*
X169714285Y-137501009D02*
X169666666Y-137453390D01*
X169666666Y-137453390D02*
X169571428Y-137405771D01*
X169571428Y-137405771D02*
X169380952Y-137405771D01*
X169380952Y-137405771D02*
X169285714Y-137453390D01*
X169285714Y-137453390D02*
X169238095Y-137501009D01*
X169238095Y-137501009D02*
X169190476Y-137596247D01*
X137582142Y-137929580D02*
X137534523Y-137977200D01*
X137534523Y-137977200D02*
X137391666Y-138024819D01*
X137391666Y-138024819D02*
X137296428Y-138024819D01*
X137296428Y-138024819D02*
X137153571Y-137977200D01*
X137153571Y-137977200D02*
X137058333Y-137881961D01*
X137058333Y-137881961D02*
X137010714Y-137786723D01*
X137010714Y-137786723D02*
X136963095Y-137596247D01*
X136963095Y-137596247D02*
X136963095Y-137453390D01*
X136963095Y-137453390D02*
X137010714Y-137262914D01*
X137010714Y-137262914D02*
X137058333Y-137167676D01*
X137058333Y-137167676D02*
X137153571Y-137072438D01*
X137153571Y-137072438D02*
X137296428Y-137024819D01*
X137296428Y-137024819D02*
X137391666Y-137024819D01*
X137391666Y-137024819D02*
X137534523Y-137072438D01*
X137534523Y-137072438D02*
X137582142Y-137120057D01*
X138534523Y-138024819D02*
X137963095Y-138024819D01*
X138248809Y-138024819D02*
X138248809Y-137024819D01*
X138248809Y-137024819D02*
X138153571Y-137167676D01*
X138153571Y-137167676D02*
X138058333Y-137262914D01*
X138058333Y-137262914D02*
X137963095Y-137310533D01*
X139391666Y-137358152D02*
X139391666Y-138024819D01*
X139153571Y-136977200D02*
X138915476Y-137691485D01*
X138915476Y-137691485D02*
X139534523Y-137691485D01*
X152833333Y-122134580D02*
X152785714Y-122182200D01*
X152785714Y-122182200D02*
X152642857Y-122229819D01*
X152642857Y-122229819D02*
X152547619Y-122229819D01*
X152547619Y-122229819D02*
X152404762Y-122182200D01*
X152404762Y-122182200D02*
X152309524Y-122086961D01*
X152309524Y-122086961D02*
X152261905Y-121991723D01*
X152261905Y-121991723D02*
X152214286Y-121801247D01*
X152214286Y-121801247D02*
X152214286Y-121658390D01*
X152214286Y-121658390D02*
X152261905Y-121467914D01*
X152261905Y-121467914D02*
X152309524Y-121372676D01*
X152309524Y-121372676D02*
X152404762Y-121277438D01*
X152404762Y-121277438D02*
X152547619Y-121229819D01*
X152547619Y-121229819D02*
X152642857Y-121229819D01*
X152642857Y-121229819D02*
X152785714Y-121277438D01*
X152785714Y-121277438D02*
X152833333Y-121325057D01*
X153166667Y-121229819D02*
X153833333Y-121229819D01*
X153833333Y-121229819D02*
X153404762Y-122229819D01*
X182454819Y-120578094D02*
X181454819Y-120578094D01*
X181454819Y-120578094D02*
X181454819Y-120339999D01*
X181454819Y-120339999D02*
X181502438Y-120197142D01*
X181502438Y-120197142D02*
X181597676Y-120101904D01*
X181597676Y-120101904D02*
X181692914Y-120054285D01*
X181692914Y-120054285D02*
X181883390Y-120006666D01*
X181883390Y-120006666D02*
X182026247Y-120006666D01*
X182026247Y-120006666D02*
X182216723Y-120054285D01*
X182216723Y-120054285D02*
X182311961Y-120101904D01*
X182311961Y-120101904D02*
X182407200Y-120197142D01*
X182407200Y-120197142D02*
X182454819Y-120339999D01*
X182454819Y-120339999D02*
X182454819Y-120578094D01*
X181454819Y-119673332D02*
X181454819Y-119054285D01*
X181454819Y-119054285D02*
X181835771Y-119387618D01*
X181835771Y-119387618D02*
X181835771Y-119244761D01*
X181835771Y-119244761D02*
X181883390Y-119149523D01*
X181883390Y-119149523D02*
X181931009Y-119101904D01*
X181931009Y-119101904D02*
X182026247Y-119054285D01*
X182026247Y-119054285D02*
X182264342Y-119054285D01*
X182264342Y-119054285D02*
X182359580Y-119101904D01*
X182359580Y-119101904D02*
X182407200Y-119149523D01*
X182407200Y-119149523D02*
X182454819Y-119244761D01*
X182454819Y-119244761D02*
X182454819Y-119530475D01*
X182454819Y-119530475D02*
X182407200Y-119625713D01*
X182407200Y-119625713D02*
X182359580Y-119673332D01*
X153082142Y-137929580D02*
X153034523Y-137977200D01*
X153034523Y-137977200D02*
X152891666Y-138024819D01*
X152891666Y-138024819D02*
X152796428Y-138024819D01*
X152796428Y-138024819D02*
X152653571Y-137977200D01*
X152653571Y-137977200D02*
X152558333Y-137881961D01*
X152558333Y-137881961D02*
X152510714Y-137786723D01*
X152510714Y-137786723D02*
X152463095Y-137596247D01*
X152463095Y-137596247D02*
X152463095Y-137453390D01*
X152463095Y-137453390D02*
X152510714Y-137262914D01*
X152510714Y-137262914D02*
X152558333Y-137167676D01*
X152558333Y-137167676D02*
X152653571Y-137072438D01*
X152653571Y-137072438D02*
X152796428Y-137024819D01*
X152796428Y-137024819D02*
X152891666Y-137024819D01*
X152891666Y-137024819D02*
X153034523Y-137072438D01*
X153034523Y-137072438D02*
X153082142Y-137120057D01*
X154034523Y-138024819D02*
X153463095Y-138024819D01*
X153748809Y-138024819D02*
X153748809Y-137024819D01*
X153748809Y-137024819D02*
X153653571Y-137167676D01*
X153653571Y-137167676D02*
X153558333Y-137262914D01*
X153558333Y-137262914D02*
X153463095Y-137310533D01*
X154939285Y-137024819D02*
X154463095Y-137024819D01*
X154463095Y-137024819D02*
X154415476Y-137501009D01*
X154415476Y-137501009D02*
X154463095Y-137453390D01*
X154463095Y-137453390D02*
X154558333Y-137405771D01*
X154558333Y-137405771D02*
X154796428Y-137405771D01*
X154796428Y-137405771D02*
X154891666Y-137453390D01*
X154891666Y-137453390D02*
X154939285Y-137501009D01*
X154939285Y-137501009D02*
X154986904Y-137596247D01*
X154986904Y-137596247D02*
X154986904Y-137834342D01*
X154986904Y-137834342D02*
X154939285Y-137929580D01*
X154939285Y-137929580D02*
X154891666Y-137977200D01*
X154891666Y-137977200D02*
X154796428Y-138024819D01*
X154796428Y-138024819D02*
X154558333Y-138024819D01*
X154558333Y-138024819D02*
X154463095Y-137977200D01*
X154463095Y-137977200D02*
X154415476Y-137929580D01*
X190454819Y-113666666D02*
X189978628Y-113999999D01*
X190454819Y-114238094D02*
X189454819Y-114238094D01*
X189454819Y-114238094D02*
X189454819Y-113857142D01*
X189454819Y-113857142D02*
X189502438Y-113761904D01*
X189502438Y-113761904D02*
X189550057Y-113714285D01*
X189550057Y-113714285D02*
X189645295Y-113666666D01*
X189645295Y-113666666D02*
X189788152Y-113666666D01*
X189788152Y-113666666D02*
X189883390Y-113714285D01*
X189883390Y-113714285D02*
X189931009Y-113761904D01*
X189931009Y-113761904D02*
X189978628Y-113857142D01*
X189978628Y-113857142D02*
X189978628Y-114238094D01*
X189550057Y-113285713D02*
X189502438Y-113238094D01*
X189502438Y-113238094D02*
X189454819Y-113142856D01*
X189454819Y-113142856D02*
X189454819Y-112904761D01*
X189454819Y-112904761D02*
X189502438Y-112809523D01*
X189502438Y-112809523D02*
X189550057Y-112761904D01*
X189550057Y-112761904D02*
X189645295Y-112714285D01*
X189645295Y-112714285D02*
X189740533Y-112714285D01*
X189740533Y-112714285D02*
X189883390Y-112761904D01*
X189883390Y-112761904D02*
X190454819Y-113333332D01*
X190454819Y-113333332D02*
X190454819Y-112714285D01*
X150370714Y-146454819D02*
X150370714Y-145454819D01*
X150370714Y-145454819D02*
X150608809Y-145454819D01*
X150608809Y-145454819D02*
X150751666Y-145502438D01*
X150751666Y-145502438D02*
X150846904Y-145597676D01*
X150846904Y-145597676D02*
X150894523Y-145692914D01*
X150894523Y-145692914D02*
X150942142Y-145883390D01*
X150942142Y-145883390D02*
X150942142Y-146026247D01*
X150942142Y-146026247D02*
X150894523Y-146216723D01*
X150894523Y-146216723D02*
X150846904Y-146311961D01*
X150846904Y-146311961D02*
X150751666Y-146407200D01*
X150751666Y-146407200D02*
X150608809Y-146454819D01*
X150608809Y-146454819D02*
X150370714Y-146454819D01*
X151132619Y-146550057D02*
X151894523Y-146550057D01*
X152132619Y-146454819D02*
X152132619Y-145454819D01*
X152132619Y-145454819D02*
X152513571Y-145454819D01*
X152513571Y-145454819D02*
X152608809Y-145502438D01*
X152608809Y-145502438D02*
X152656428Y-145550057D01*
X152656428Y-145550057D02*
X152704047Y-145645295D01*
X152704047Y-145645295D02*
X152704047Y-145788152D01*
X152704047Y-145788152D02*
X152656428Y-145883390D01*
X152656428Y-145883390D02*
X152608809Y-145931009D01*
X152608809Y-145931009D02*
X152513571Y-145978628D01*
X152513571Y-145978628D02*
X152132619Y-145978628D01*
X153132619Y-145454819D02*
X153132619Y-146264342D01*
X153132619Y-146264342D02*
X153180238Y-146359580D01*
X153180238Y-146359580D02*
X153227857Y-146407200D01*
X153227857Y-146407200D02*
X153323095Y-146454819D01*
X153323095Y-146454819D02*
X153513571Y-146454819D01*
X153513571Y-146454819D02*
X153608809Y-146407200D01*
X153608809Y-146407200D02*
X153656428Y-146359580D01*
X153656428Y-146359580D02*
X153704047Y-146264342D01*
X153704047Y-146264342D02*
X153704047Y-145454819D01*
X154180238Y-146454819D02*
X154180238Y-145454819D01*
X154180238Y-145454819D02*
X154513571Y-146169104D01*
X154513571Y-146169104D02*
X154846904Y-145454819D01*
X154846904Y-145454819D02*
X154846904Y-146454819D01*
X155323095Y-146454819D02*
X155323095Y-145454819D01*
X155323095Y-145454819D02*
X155704047Y-145454819D01*
X155704047Y-145454819D02*
X155799285Y-145502438D01*
X155799285Y-145502438D02*
X155846904Y-145550057D01*
X155846904Y-145550057D02*
X155894523Y-145645295D01*
X155894523Y-145645295D02*
X155894523Y-145788152D01*
X155894523Y-145788152D02*
X155846904Y-145883390D01*
X155846904Y-145883390D02*
X155799285Y-145931009D01*
X155799285Y-145931009D02*
X155704047Y-145978628D01*
X155704047Y-145978628D02*
X155323095Y-145978628D01*
X156275476Y-145550057D02*
X156323095Y-145502438D01*
X156323095Y-145502438D02*
X156418333Y-145454819D01*
X156418333Y-145454819D02*
X156656428Y-145454819D01*
X156656428Y-145454819D02*
X156751666Y-145502438D01*
X156751666Y-145502438D02*
X156799285Y-145550057D01*
X156799285Y-145550057D02*
X156846904Y-145645295D01*
X156846904Y-145645295D02*
X156846904Y-145740533D01*
X156846904Y-145740533D02*
X156799285Y-145883390D01*
X156799285Y-145883390D02*
X156227857Y-146454819D01*
X156227857Y-146454819D02*
X156846904Y-146454819D01*
X193357142Y-148859580D02*
X193309523Y-148907200D01*
X193309523Y-148907200D02*
X193166666Y-148954819D01*
X193166666Y-148954819D02*
X193071428Y-148954819D01*
X193071428Y-148954819D02*
X192928571Y-148907200D01*
X192928571Y-148907200D02*
X192833333Y-148811961D01*
X192833333Y-148811961D02*
X192785714Y-148716723D01*
X192785714Y-148716723D02*
X192738095Y-148526247D01*
X192738095Y-148526247D02*
X192738095Y-148383390D01*
X192738095Y-148383390D02*
X192785714Y-148192914D01*
X192785714Y-148192914D02*
X192833333Y-148097676D01*
X192833333Y-148097676D02*
X192928571Y-148002438D01*
X192928571Y-148002438D02*
X193071428Y-147954819D01*
X193071428Y-147954819D02*
X193166666Y-147954819D01*
X193166666Y-147954819D02*
X193309523Y-148002438D01*
X193309523Y-148002438D02*
X193357142Y-148050057D01*
X194309523Y-148954819D02*
X193738095Y-148954819D01*
X194023809Y-148954819D02*
X194023809Y-147954819D01*
X194023809Y-147954819D02*
X193928571Y-148097676D01*
X193928571Y-148097676D02*
X193833333Y-148192914D01*
X193833333Y-148192914D02*
X193738095Y-148240533D01*
X194880952Y-148383390D02*
X194785714Y-148335771D01*
X194785714Y-148335771D02*
X194738095Y-148288152D01*
X194738095Y-148288152D02*
X194690476Y-148192914D01*
X194690476Y-148192914D02*
X194690476Y-148145295D01*
X194690476Y-148145295D02*
X194738095Y-148050057D01*
X194738095Y-148050057D02*
X194785714Y-148002438D01*
X194785714Y-148002438D02*
X194880952Y-147954819D01*
X194880952Y-147954819D02*
X195071428Y-147954819D01*
X195071428Y-147954819D02*
X195166666Y-148002438D01*
X195166666Y-148002438D02*
X195214285Y-148050057D01*
X195214285Y-148050057D02*
X195261904Y-148145295D01*
X195261904Y-148145295D02*
X195261904Y-148192914D01*
X195261904Y-148192914D02*
X195214285Y-148288152D01*
X195214285Y-148288152D02*
X195166666Y-148335771D01*
X195166666Y-148335771D02*
X195071428Y-148383390D01*
X195071428Y-148383390D02*
X194880952Y-148383390D01*
X194880952Y-148383390D02*
X194785714Y-148431009D01*
X194785714Y-148431009D02*
X194738095Y-148478628D01*
X194738095Y-148478628D02*
X194690476Y-148573866D01*
X194690476Y-148573866D02*
X194690476Y-148764342D01*
X194690476Y-148764342D02*
X194738095Y-148859580D01*
X194738095Y-148859580D02*
X194785714Y-148907200D01*
X194785714Y-148907200D02*
X194880952Y-148954819D01*
X194880952Y-148954819D02*
X195071428Y-148954819D01*
X195071428Y-148954819D02*
X195166666Y-148907200D01*
X195166666Y-148907200D02*
X195214285Y-148859580D01*
X195214285Y-148859580D02*
X195261904Y-148764342D01*
X195261904Y-148764342D02*
X195261904Y-148573866D01*
X195261904Y-148573866D02*
X195214285Y-148478628D01*
X195214285Y-148478628D02*
X195166666Y-148431009D01*
X195166666Y-148431009D02*
X195071428Y-148383390D01*
X187579580Y-102242857D02*
X187627200Y-102290476D01*
X187627200Y-102290476D02*
X187674819Y-102433333D01*
X187674819Y-102433333D02*
X187674819Y-102528571D01*
X187674819Y-102528571D02*
X187627200Y-102671428D01*
X187627200Y-102671428D02*
X187531961Y-102766666D01*
X187531961Y-102766666D02*
X187436723Y-102814285D01*
X187436723Y-102814285D02*
X187246247Y-102861904D01*
X187246247Y-102861904D02*
X187103390Y-102861904D01*
X187103390Y-102861904D02*
X186912914Y-102814285D01*
X186912914Y-102814285D02*
X186817676Y-102766666D01*
X186817676Y-102766666D02*
X186722438Y-102671428D01*
X186722438Y-102671428D02*
X186674819Y-102528571D01*
X186674819Y-102528571D02*
X186674819Y-102433333D01*
X186674819Y-102433333D02*
X186722438Y-102290476D01*
X186722438Y-102290476D02*
X186770057Y-102242857D01*
X187674819Y-101290476D02*
X187674819Y-101861904D01*
X187674819Y-101576190D02*
X186674819Y-101576190D01*
X186674819Y-101576190D02*
X186817676Y-101671428D01*
X186817676Y-101671428D02*
X186912914Y-101766666D01*
X186912914Y-101766666D02*
X186960533Y-101861904D01*
X186770057Y-100909523D02*
X186722438Y-100861904D01*
X186722438Y-100861904D02*
X186674819Y-100766666D01*
X186674819Y-100766666D02*
X186674819Y-100528571D01*
X186674819Y-100528571D02*
X186722438Y-100433333D01*
X186722438Y-100433333D02*
X186770057Y-100385714D01*
X186770057Y-100385714D02*
X186865295Y-100338095D01*
X186865295Y-100338095D02*
X186960533Y-100338095D01*
X186960533Y-100338095D02*
X187103390Y-100385714D01*
X187103390Y-100385714D02*
X187674819Y-100957142D01*
X187674819Y-100957142D02*
X187674819Y-100338095D01*
X146833333Y-85859580D02*
X146785714Y-85907200D01*
X146785714Y-85907200D02*
X146642857Y-85954819D01*
X146642857Y-85954819D02*
X146547619Y-85954819D01*
X146547619Y-85954819D02*
X146404762Y-85907200D01*
X146404762Y-85907200D02*
X146309524Y-85811961D01*
X146309524Y-85811961D02*
X146261905Y-85716723D01*
X146261905Y-85716723D02*
X146214286Y-85526247D01*
X146214286Y-85526247D02*
X146214286Y-85383390D01*
X146214286Y-85383390D02*
X146261905Y-85192914D01*
X146261905Y-85192914D02*
X146309524Y-85097676D01*
X146309524Y-85097676D02*
X146404762Y-85002438D01*
X146404762Y-85002438D02*
X146547619Y-84954819D01*
X146547619Y-84954819D02*
X146642857Y-84954819D01*
X146642857Y-84954819D02*
X146785714Y-85002438D01*
X146785714Y-85002438D02*
X146833333Y-85050057D01*
X147166667Y-84954819D02*
X147785714Y-84954819D01*
X147785714Y-84954819D02*
X147452381Y-85335771D01*
X147452381Y-85335771D02*
X147595238Y-85335771D01*
X147595238Y-85335771D02*
X147690476Y-85383390D01*
X147690476Y-85383390D02*
X147738095Y-85431009D01*
X147738095Y-85431009D02*
X147785714Y-85526247D01*
X147785714Y-85526247D02*
X147785714Y-85764342D01*
X147785714Y-85764342D02*
X147738095Y-85859580D01*
X147738095Y-85859580D02*
X147690476Y-85907200D01*
X147690476Y-85907200D02*
X147595238Y-85954819D01*
X147595238Y-85954819D02*
X147309524Y-85954819D01*
X147309524Y-85954819D02*
X147214286Y-85907200D01*
X147214286Y-85907200D02*
X147166667Y-85859580D01*
X159954819Y-114738094D02*
X158954819Y-114738094D01*
X158954819Y-114738094D02*
X158954819Y-114499999D01*
X158954819Y-114499999D02*
X159002438Y-114357142D01*
X159002438Y-114357142D02*
X159097676Y-114261904D01*
X159097676Y-114261904D02*
X159192914Y-114214285D01*
X159192914Y-114214285D02*
X159383390Y-114166666D01*
X159383390Y-114166666D02*
X159526247Y-114166666D01*
X159526247Y-114166666D02*
X159716723Y-114214285D01*
X159716723Y-114214285D02*
X159811961Y-114261904D01*
X159811961Y-114261904D02*
X159907200Y-114357142D01*
X159907200Y-114357142D02*
X159954819Y-114499999D01*
X159954819Y-114499999D02*
X159954819Y-114738094D01*
X159954819Y-113690475D02*
X159954819Y-113499999D01*
X159954819Y-113499999D02*
X159907200Y-113404761D01*
X159907200Y-113404761D02*
X159859580Y-113357142D01*
X159859580Y-113357142D02*
X159716723Y-113261904D01*
X159716723Y-113261904D02*
X159526247Y-113214285D01*
X159526247Y-113214285D02*
X159145295Y-113214285D01*
X159145295Y-113214285D02*
X159050057Y-113261904D01*
X159050057Y-113261904D02*
X159002438Y-113309523D01*
X159002438Y-113309523D02*
X158954819Y-113404761D01*
X158954819Y-113404761D02*
X158954819Y-113595237D01*
X158954819Y-113595237D02*
X159002438Y-113690475D01*
X159002438Y-113690475D02*
X159050057Y-113738094D01*
X159050057Y-113738094D02*
X159145295Y-113785713D01*
X159145295Y-113785713D02*
X159383390Y-113785713D01*
X159383390Y-113785713D02*
X159478628Y-113738094D01*
X159478628Y-113738094D02*
X159526247Y-113690475D01*
X159526247Y-113690475D02*
X159573866Y-113595237D01*
X159573866Y-113595237D02*
X159573866Y-113404761D01*
X159573866Y-113404761D02*
X159526247Y-113309523D01*
X159526247Y-113309523D02*
X159478628Y-113261904D01*
X159478628Y-113261904D02*
X159383390Y-113214285D01*
X180738095Y-151404819D02*
X180738095Y-152119104D01*
X180738095Y-152119104D02*
X180690476Y-152261961D01*
X180690476Y-152261961D02*
X180595238Y-152357200D01*
X180595238Y-152357200D02*
X180452381Y-152404819D01*
X180452381Y-152404819D02*
X180357143Y-152404819D01*
X180976191Y-152500057D02*
X181738095Y-152500057D01*
X182452381Y-152404819D02*
X181976191Y-152404819D01*
X181976191Y-152404819D02*
X181976191Y-151404819D01*
X182785715Y-152404819D02*
X182785715Y-151404819D01*
X183785714Y-151452438D02*
X183690476Y-151404819D01*
X183690476Y-151404819D02*
X183547619Y-151404819D01*
X183547619Y-151404819D02*
X183404762Y-151452438D01*
X183404762Y-151452438D02*
X183309524Y-151547676D01*
X183309524Y-151547676D02*
X183261905Y-151642914D01*
X183261905Y-151642914D02*
X183214286Y-151833390D01*
X183214286Y-151833390D02*
X183214286Y-151976247D01*
X183214286Y-151976247D02*
X183261905Y-152166723D01*
X183261905Y-152166723D02*
X183309524Y-152261961D01*
X183309524Y-152261961D02*
X183404762Y-152357200D01*
X183404762Y-152357200D02*
X183547619Y-152404819D01*
X183547619Y-152404819D02*
X183642857Y-152404819D01*
X183642857Y-152404819D02*
X183785714Y-152357200D01*
X183785714Y-152357200D02*
X183833333Y-152309580D01*
X183833333Y-152309580D02*
X183833333Y-151976247D01*
X183833333Y-151976247D02*
X183642857Y-151976247D01*
X184261905Y-152404819D02*
X184261905Y-151404819D01*
X184261905Y-151881009D02*
X184833333Y-151881009D01*
X184833333Y-152404819D02*
X184833333Y-151404819D01*
X185166667Y-151404819D02*
X185738095Y-151404819D01*
X185452381Y-152404819D02*
X185452381Y-151404819D01*
X186595238Y-152404819D02*
X186023810Y-152404819D01*
X186309524Y-152404819D02*
X186309524Y-151404819D01*
X186309524Y-151404819D02*
X186214286Y-151547676D01*
X186214286Y-151547676D02*
X186119048Y-151642914D01*
X186119048Y-151642914D02*
X186023810Y-151690533D01*
X154532142Y-106524819D02*
X154198809Y-106048628D01*
X153960714Y-106524819D02*
X153960714Y-105524819D01*
X153960714Y-105524819D02*
X154341666Y-105524819D01*
X154341666Y-105524819D02*
X154436904Y-105572438D01*
X154436904Y-105572438D02*
X154484523Y-105620057D01*
X154484523Y-105620057D02*
X154532142Y-105715295D01*
X154532142Y-105715295D02*
X154532142Y-105858152D01*
X154532142Y-105858152D02*
X154484523Y-105953390D01*
X154484523Y-105953390D02*
X154436904Y-106001009D01*
X154436904Y-106001009D02*
X154341666Y-106048628D01*
X154341666Y-106048628D02*
X153960714Y-106048628D01*
X155484523Y-106524819D02*
X154913095Y-106524819D01*
X155198809Y-106524819D02*
X155198809Y-105524819D01*
X155198809Y-105524819D02*
X155103571Y-105667676D01*
X155103571Y-105667676D02*
X155008333Y-105762914D01*
X155008333Y-105762914D02*
X154913095Y-105810533D01*
X155865476Y-105620057D02*
X155913095Y-105572438D01*
X155913095Y-105572438D02*
X156008333Y-105524819D01*
X156008333Y-105524819D02*
X156246428Y-105524819D01*
X156246428Y-105524819D02*
X156341666Y-105572438D01*
X156341666Y-105572438D02*
X156389285Y-105620057D01*
X156389285Y-105620057D02*
X156436904Y-105715295D01*
X156436904Y-105715295D02*
X156436904Y-105810533D01*
X156436904Y-105810533D02*
X156389285Y-105953390D01*
X156389285Y-105953390D02*
X155817857Y-106524819D01*
X155817857Y-106524819D02*
X156436904Y-106524819D01*
X146833333Y-93524819D02*
X146500000Y-93048628D01*
X146261905Y-93524819D02*
X146261905Y-92524819D01*
X146261905Y-92524819D02*
X146642857Y-92524819D01*
X146642857Y-92524819D02*
X146738095Y-92572438D01*
X146738095Y-92572438D02*
X146785714Y-92620057D01*
X146785714Y-92620057D02*
X146833333Y-92715295D01*
X146833333Y-92715295D02*
X146833333Y-92858152D01*
X146833333Y-92858152D02*
X146785714Y-92953390D01*
X146785714Y-92953390D02*
X146738095Y-93001009D01*
X146738095Y-93001009D02*
X146642857Y-93048628D01*
X146642857Y-93048628D02*
X146261905Y-93048628D01*
X147309524Y-93524819D02*
X147500000Y-93524819D01*
X147500000Y-93524819D02*
X147595238Y-93477200D01*
X147595238Y-93477200D02*
X147642857Y-93429580D01*
X147642857Y-93429580D02*
X147738095Y-93286723D01*
X147738095Y-93286723D02*
X147785714Y-93096247D01*
X147785714Y-93096247D02*
X147785714Y-92715295D01*
X147785714Y-92715295D02*
X147738095Y-92620057D01*
X147738095Y-92620057D02*
X147690476Y-92572438D01*
X147690476Y-92572438D02*
X147595238Y-92524819D01*
X147595238Y-92524819D02*
X147404762Y-92524819D01*
X147404762Y-92524819D02*
X147309524Y-92572438D01*
X147309524Y-92572438D02*
X147261905Y-92620057D01*
X147261905Y-92620057D02*
X147214286Y-92715295D01*
X147214286Y-92715295D02*
X147214286Y-92953390D01*
X147214286Y-92953390D02*
X147261905Y-93048628D01*
X147261905Y-93048628D02*
X147309524Y-93096247D01*
X147309524Y-93096247D02*
X147404762Y-93143866D01*
X147404762Y-93143866D02*
X147595238Y-93143866D01*
X147595238Y-93143866D02*
X147690476Y-93096247D01*
X147690476Y-93096247D02*
X147738095Y-93048628D01*
X147738095Y-93048628D02*
X147785714Y-92953390D01*
X167333333Y-122859580D02*
X167285714Y-122907200D01*
X167285714Y-122907200D02*
X167142857Y-122954819D01*
X167142857Y-122954819D02*
X167047619Y-122954819D01*
X167047619Y-122954819D02*
X166904762Y-122907200D01*
X166904762Y-122907200D02*
X166809524Y-122811961D01*
X166809524Y-122811961D02*
X166761905Y-122716723D01*
X166761905Y-122716723D02*
X166714286Y-122526247D01*
X166714286Y-122526247D02*
X166714286Y-122383390D01*
X166714286Y-122383390D02*
X166761905Y-122192914D01*
X166761905Y-122192914D02*
X166809524Y-122097676D01*
X166809524Y-122097676D02*
X166904762Y-122002438D01*
X166904762Y-122002438D02*
X167047619Y-121954819D01*
X167047619Y-121954819D02*
X167142857Y-121954819D01*
X167142857Y-121954819D02*
X167285714Y-122002438D01*
X167285714Y-122002438D02*
X167333333Y-122050057D01*
X168190476Y-121954819D02*
X168000000Y-121954819D01*
X168000000Y-121954819D02*
X167904762Y-122002438D01*
X167904762Y-122002438D02*
X167857143Y-122050057D01*
X167857143Y-122050057D02*
X167761905Y-122192914D01*
X167761905Y-122192914D02*
X167714286Y-122383390D01*
X167714286Y-122383390D02*
X167714286Y-122764342D01*
X167714286Y-122764342D02*
X167761905Y-122859580D01*
X167761905Y-122859580D02*
X167809524Y-122907200D01*
X167809524Y-122907200D02*
X167904762Y-122954819D01*
X167904762Y-122954819D02*
X168095238Y-122954819D01*
X168095238Y-122954819D02*
X168190476Y-122907200D01*
X168190476Y-122907200D02*
X168238095Y-122859580D01*
X168238095Y-122859580D02*
X168285714Y-122764342D01*
X168285714Y-122764342D02*
X168285714Y-122526247D01*
X168285714Y-122526247D02*
X168238095Y-122431009D01*
X168238095Y-122431009D02*
X168190476Y-122383390D01*
X168190476Y-122383390D02*
X168095238Y-122335771D01*
X168095238Y-122335771D02*
X167904762Y-122335771D01*
X167904762Y-122335771D02*
X167809524Y-122383390D01*
X167809524Y-122383390D02*
X167761905Y-122431009D01*
X167761905Y-122431009D02*
X167714286Y-122526247D01*
X183761905Y-118874819D02*
X183761905Y-117874819D01*
X183761905Y-117874819D02*
X184000000Y-117874819D01*
X184000000Y-117874819D02*
X184142857Y-117922438D01*
X184142857Y-117922438D02*
X184238095Y-118017676D01*
X184238095Y-118017676D02*
X184285714Y-118112914D01*
X184285714Y-118112914D02*
X184333333Y-118303390D01*
X184333333Y-118303390D02*
X184333333Y-118446247D01*
X184333333Y-118446247D02*
X184285714Y-118636723D01*
X184285714Y-118636723D02*
X184238095Y-118731961D01*
X184238095Y-118731961D02*
X184142857Y-118827200D01*
X184142857Y-118827200D02*
X184000000Y-118874819D01*
X184000000Y-118874819D02*
X183761905Y-118874819D01*
X184714286Y-117970057D02*
X184761905Y-117922438D01*
X184761905Y-117922438D02*
X184857143Y-117874819D01*
X184857143Y-117874819D02*
X185095238Y-117874819D01*
X185095238Y-117874819D02*
X185190476Y-117922438D01*
X185190476Y-117922438D02*
X185238095Y-117970057D01*
X185238095Y-117970057D02*
X185285714Y-118065295D01*
X185285714Y-118065295D02*
X185285714Y-118160533D01*
X185285714Y-118160533D02*
X185238095Y-118303390D01*
X185238095Y-118303390D02*
X184666667Y-118874819D01*
X184666667Y-118874819D02*
X185285714Y-118874819D01*
X129238095Y-85454819D02*
X129238095Y-84454819D01*
X129238095Y-84931009D02*
X129809523Y-84931009D01*
X129809523Y-85454819D02*
X129809523Y-84454819D01*
X130190476Y-84454819D02*
X130809523Y-84454819D01*
X130809523Y-84454819D02*
X130476190Y-84835771D01*
X130476190Y-84835771D02*
X130619047Y-84835771D01*
X130619047Y-84835771D02*
X130714285Y-84883390D01*
X130714285Y-84883390D02*
X130761904Y-84931009D01*
X130761904Y-84931009D02*
X130809523Y-85026247D01*
X130809523Y-85026247D02*
X130809523Y-85264342D01*
X130809523Y-85264342D02*
X130761904Y-85359580D01*
X130761904Y-85359580D02*
X130714285Y-85407200D01*
X130714285Y-85407200D02*
X130619047Y-85454819D01*
X130619047Y-85454819D02*
X130333333Y-85454819D01*
X130333333Y-85454819D02*
X130238095Y-85407200D01*
X130238095Y-85407200D02*
X130190476Y-85359580D01*
X177683333Y-95407200D02*
X177826190Y-95454819D01*
X177826190Y-95454819D02*
X178064285Y-95454819D01*
X178064285Y-95454819D02*
X178159523Y-95407200D01*
X178159523Y-95407200D02*
X178207142Y-95359580D01*
X178207142Y-95359580D02*
X178254761Y-95264342D01*
X178254761Y-95264342D02*
X178254761Y-95169104D01*
X178254761Y-95169104D02*
X178207142Y-95073866D01*
X178207142Y-95073866D02*
X178159523Y-95026247D01*
X178159523Y-95026247D02*
X178064285Y-94978628D01*
X178064285Y-94978628D02*
X177873809Y-94931009D01*
X177873809Y-94931009D02*
X177778571Y-94883390D01*
X177778571Y-94883390D02*
X177730952Y-94835771D01*
X177730952Y-94835771D02*
X177683333Y-94740533D01*
X177683333Y-94740533D02*
X177683333Y-94645295D01*
X177683333Y-94645295D02*
X177730952Y-94550057D01*
X177730952Y-94550057D02*
X177778571Y-94502438D01*
X177778571Y-94502438D02*
X177873809Y-94454819D01*
X177873809Y-94454819D02*
X178111904Y-94454819D01*
X178111904Y-94454819D02*
X178254761Y-94502438D01*
X178588095Y-94454819D02*
X178826190Y-95454819D01*
X178826190Y-95454819D02*
X179016666Y-94740533D01*
X179016666Y-94740533D02*
X179207142Y-95454819D01*
X179207142Y-95454819D02*
X179445238Y-94454819D01*
X179588095Y-95550057D02*
X180349999Y-95550057D01*
X180588095Y-95454819D02*
X180588095Y-94454819D01*
X180588095Y-94454819D02*
X180921428Y-95169104D01*
X180921428Y-95169104D02*
X181254761Y-94454819D01*
X181254761Y-94454819D02*
X181254761Y-95454819D01*
X182302380Y-95359580D02*
X182254761Y-95407200D01*
X182254761Y-95407200D02*
X182111904Y-95454819D01*
X182111904Y-95454819D02*
X182016666Y-95454819D01*
X182016666Y-95454819D02*
X181873809Y-95407200D01*
X181873809Y-95407200D02*
X181778571Y-95311961D01*
X181778571Y-95311961D02*
X181730952Y-95216723D01*
X181730952Y-95216723D02*
X181683333Y-95026247D01*
X181683333Y-95026247D02*
X181683333Y-94883390D01*
X181683333Y-94883390D02*
X181730952Y-94692914D01*
X181730952Y-94692914D02*
X181778571Y-94597676D01*
X181778571Y-94597676D02*
X181873809Y-94502438D01*
X181873809Y-94502438D02*
X182016666Y-94454819D01*
X182016666Y-94454819D02*
X182111904Y-94454819D01*
X182111904Y-94454819D02*
X182254761Y-94502438D01*
X182254761Y-94502438D02*
X182302380Y-94550057D01*
X182730952Y-94454819D02*
X182730952Y-95264342D01*
X182730952Y-95264342D02*
X182778571Y-95359580D01*
X182778571Y-95359580D02*
X182826190Y-95407200D01*
X182826190Y-95407200D02*
X182921428Y-95454819D01*
X182921428Y-95454819D02*
X183111904Y-95454819D01*
X183111904Y-95454819D02*
X183207142Y-95407200D01*
X183207142Y-95407200D02*
X183254761Y-95359580D01*
X183254761Y-95359580D02*
X183302380Y-95264342D01*
X183302380Y-95264342D02*
X183302380Y-94454819D01*
X183540476Y-95550057D02*
X184302380Y-95550057D01*
X184540476Y-94931009D02*
X184873809Y-94931009D01*
X185016666Y-95454819D02*
X184540476Y-95454819D01*
X184540476Y-95454819D02*
X184540476Y-94454819D01*
X184540476Y-94454819D02*
X185016666Y-94454819D01*
X185445238Y-95454819D02*
X185445238Y-94454819D01*
X185445238Y-94454819D02*
X186016666Y-95454819D01*
X186016666Y-95454819D02*
X186016666Y-94454819D01*
X187016666Y-95454819D02*
X186445238Y-95454819D01*
X186730952Y-95454819D02*
X186730952Y-94454819D01*
X186730952Y-94454819D02*
X186635714Y-94597676D01*
X186635714Y-94597676D02*
X186540476Y-94692914D01*
X186540476Y-94692914D02*
X186445238Y-94740533D01*
%TO.C,J3*%
D12*
X121780000Y-93840000D02*
X128220000Y-93840000D01*
X121780000Y-99620000D02*
X121780000Y-93840000D01*
X122300000Y-99620000D02*
X122300000Y-93840000D01*
X127600000Y-94430000D02*
X127600000Y-93840000D01*
X127600000Y-96970000D02*
X127600000Y-96490000D01*
X127600000Y-99620000D02*
X127600000Y-99030000D01*
X128220000Y-93840000D02*
X128220000Y-94430000D01*
X128220000Y-96490000D02*
X128220000Y-96970000D01*
X128220000Y-99030000D02*
X128220000Y-99620000D01*
X128220000Y-99620000D02*
X121780000Y-99620000D01*
X128570000Y-98000000D02*
X129180000Y-97560000D01*
X129180000Y-98440000D01*
X128570000Y-98000000D01*
G36*
X129180000Y-98440000D02*
G01*
X128570000Y-98000000D01*
X129180000Y-97560000D01*
X129180000Y-98440000D01*
G37*
%TO.C,C11*%
X139990000Y-85859420D02*
X139990000Y-86140580D01*
X141010000Y-85859420D02*
X141010000Y-86140580D01*
%TO.C,R1*%
X187977500Y-119262742D02*
X187977500Y-119737258D01*
X189022500Y-119262742D02*
X189022500Y-119737258D01*
%TO.C,J_VALVE1*%
X163150000Y-152750000D02*
X163150000Y-154000000D01*
X163450000Y-155300000D02*
X164200000Y-155300000D01*
X164200000Y-155300000D02*
X164200000Y-158250000D01*
X164200000Y-158250000D02*
X168500000Y-158250000D01*
X164400000Y-152750000D02*
X163150000Y-152750000D01*
X172800000Y-155300000D02*
X172800000Y-158250000D01*
X172800000Y-158250000D02*
X168500000Y-158250000D01*
X173550000Y-155300000D02*
X172800000Y-155300000D01*
X163440000Y-153040000D02*
X173560000Y-153040000D01*
X173560000Y-159010000D01*
X163440000Y-159010000D01*
X163440000Y-153040000D01*
X163450000Y-153050000D02*
X165250000Y-153050000D01*
X165250000Y-153800000D01*
X163450000Y-153800000D01*
X163450000Y-153050000D01*
X166750000Y-153050000D02*
X170250000Y-153050000D01*
X170250000Y-153800000D01*
X166750000Y-153800000D01*
X166750000Y-153050000D01*
X171750000Y-153050000D02*
X173550000Y-153050000D01*
X173550000Y-153800000D01*
X171750000Y-153800000D01*
X171750000Y-153050000D01*
%TO.C,C13*%
X188490000Y-90859420D02*
X188490000Y-91140580D01*
X189510000Y-90859420D02*
X189510000Y-91140580D01*
%TO.C,C1*%
X142490000Y-82859420D02*
X142490000Y-83140580D01*
X143510000Y-82859420D02*
X143510000Y-83140580D01*
%TO.C,D_SYS1*%
X180400000Y-86650000D02*
X180400000Y-84650000D01*
X180400000Y-86650000D02*
X183600000Y-86650000D01*
X180700000Y-84350000D02*
X180400000Y-84650000D01*
X180700000Y-84350000D02*
X183600000Y-84350000D01*
X183600000Y-84350000D02*
X183600000Y-86650000D01*
%TO.C,C19*%
X177490000Y-85359420D02*
X177490000Y-85640580D01*
X178510000Y-85359420D02*
X178510000Y-85640580D01*
%TO.C,U2*%
X158940000Y-123440000D02*
X159035000Y-123440000D01*
X158940000Y-127560000D02*
X158940000Y-123440000D01*
X159035000Y-127560000D02*
X158940000Y-127560000D01*
X163965000Y-123440000D02*
X164060000Y-123440000D01*
X164060000Y-123440000D02*
X164060000Y-127560000D01*
X164060000Y-127560000D02*
X163965000Y-127560000D01*
X163970000Y-122900000D02*
X164300000Y-122660000D01*
X164300000Y-123140000D01*
X163970000Y-122900000D01*
G36*
X164300000Y-123140000D02*
G01*
X163970000Y-122900000D01*
X164300000Y-122660000D01*
X164300000Y-123140000D01*
G37*
%TO.C,R4*%
X147977500Y-100237258D02*
X147977500Y-99762742D01*
X149022500Y-100237258D02*
X149022500Y-99762742D01*
%TO.C,D6*%
X130440000Y-117302500D02*
X131440000Y-117302500D01*
X130440000Y-118822500D02*
X130440000Y-117302500D01*
X130490000Y-118822500D02*
X130440000Y-118822500D01*
X132390000Y-118822500D02*
X131610000Y-118822500D01*
X132560000Y-117302500D02*
X133560000Y-117302500D01*
X133560000Y-117302500D02*
X133560000Y-118822500D01*
X133560000Y-118822500D02*
X133510000Y-118822500D01*
X131620000Y-119362500D02*
X131950000Y-119122500D01*
X131950000Y-119602500D01*
X131620000Y-119362500D01*
G36*
X131950000Y-119602500D02*
G01*
X131620000Y-119362500D01*
X131950000Y-119122500D01*
X131950000Y-119602500D01*
G37*
%TO.C,R10*%
X146762742Y-86477500D02*
X147237258Y-86477500D01*
X146762742Y-87522500D02*
X147237258Y-87522500D01*
%TO.C,D1*%
X185100000Y-120420000D02*
X185100000Y-119060000D01*
X185900000Y-119060000D02*
X185100000Y-119060000D01*
X185900000Y-120420000D02*
X185900000Y-119060000D01*
%TO.C,J2*%
X195600000Y-111980000D02*
X197600000Y-111980000D01*
X195600000Y-121380000D02*
X197600000Y-121380000D01*
X199500000Y-111980000D02*
X201400000Y-111980000D01*
X199500000Y-121380000D02*
X201400000Y-121380000D01*
X201400000Y-121380000D02*
X201400000Y-111980000D01*
%TO.C,R8*%
X157477500Y-104412258D02*
X157477500Y-103937742D01*
X158522500Y-104412258D02*
X158522500Y-103937742D01*
%TO.C,J_PUMP1*%
X133150000Y-152750000D02*
X133150000Y-154000000D01*
X133450000Y-155300000D02*
X134200000Y-155300000D01*
X134200000Y-155300000D02*
X134200000Y-158250000D01*
X134200000Y-158250000D02*
X138500000Y-158250000D01*
X134400000Y-152750000D02*
X133150000Y-152750000D01*
X142800000Y-155300000D02*
X142800000Y-158250000D01*
X142800000Y-158250000D02*
X138500000Y-158250000D01*
X143550000Y-155300000D02*
X142800000Y-155300000D01*
X133440000Y-153040000D02*
X143560000Y-153040000D01*
X143560000Y-159010000D01*
X133440000Y-159010000D01*
X133440000Y-153040000D01*
X133450000Y-153050000D02*
X135250000Y-153050000D01*
X135250000Y-153800000D01*
X133450000Y-153800000D01*
X133450000Y-153050000D01*
X136750000Y-153050000D02*
X140250000Y-153050000D01*
X140250000Y-153800000D01*
X136750000Y-153800000D01*
X136750000Y-153050000D01*
X141750000Y-153050000D02*
X143550000Y-153050000D01*
X143550000Y-153800000D01*
X141750000Y-153800000D01*
X141750000Y-153050000D01*
%TO.C,J4*%
X121740000Y-100840000D02*
X128180000Y-100840000D01*
X121740000Y-106620000D02*
X121740000Y-100840000D01*
X122260000Y-106620000D02*
X122260000Y-100840000D01*
X127560000Y-101430000D02*
X127560000Y-100840000D01*
X127560000Y-103970000D02*
X127560000Y-103490000D01*
X127560000Y-106620000D02*
X127560000Y-106030000D01*
X128180000Y-100840000D02*
X128180000Y-101430000D01*
X128180000Y-103490000D02*
X128180000Y-103970000D01*
X128180000Y-106030000D02*
X128180000Y-106620000D01*
X128180000Y-106620000D02*
X121740000Y-106620000D01*
X128530000Y-105000000D02*
X129140000Y-104560000D01*
X129140000Y-105440000D01*
X128530000Y-105000000D01*
G36*
X129140000Y-105440000D02*
G01*
X128530000Y-105000000D01*
X129140000Y-104560000D01*
X129140000Y-105440000D01*
G37*
%TO.C,C8*%
X170090000Y-123654437D02*
X170090000Y-129410000D01*
X170090000Y-129410000D02*
X172440000Y-129410000D01*
X171154437Y-122590000D02*
X170090000Y-123654437D01*
X171154437Y-122590000D02*
X172440000Y-122590000D01*
X175347500Y-121562500D02*
X175347500Y-122350000D01*
X175741250Y-121956250D02*
X174953750Y-121956250D01*
X175845563Y-122590000D02*
X174560000Y-122590000D01*
X175845563Y-122590000D02*
X176910000Y-123654437D01*
X176910000Y-123654437D02*
X176910000Y-129410000D01*
X176910000Y-129410000D02*
X174560000Y-129410000D01*
%TO.C,D7*%
X186940000Y-136740000D02*
X187940000Y-136740000D01*
X186940000Y-138260000D02*
X186940000Y-136740000D01*
X186990000Y-138260000D02*
X186940000Y-138260000D01*
X188890000Y-138260000D02*
X188110000Y-138260000D01*
X189060000Y-136740000D02*
X190060000Y-136740000D01*
X190060000Y-136740000D02*
X190060000Y-138260000D01*
X190060000Y-138260000D02*
X190010000Y-138260000D01*
X188120000Y-138800000D02*
X188450000Y-138560000D01*
X188450000Y-139040000D01*
X188120000Y-138800000D01*
G36*
X188450000Y-139040000D02*
G01*
X188120000Y-138800000D01*
X188450000Y-138560000D01*
X188450000Y-139040000D01*
G37*
%TO.C,C17*%
X183584420Y-138490000D02*
X183865580Y-138490000D01*
X183584420Y-139510000D02*
X183865580Y-139510000D01*
%TO.C,D_PUMP1*%
X136815000Y-145150000D02*
X136815000Y-142850000D01*
X139715000Y-145150000D02*
X136815000Y-145150000D01*
X139715000Y-145150000D02*
X140015000Y-144850000D01*
X140015000Y-142850000D02*
X136815000Y-142850000D01*
X140015000Y-142850000D02*
X140015000Y-144850000D01*
%TO.C,J7*%
X193280000Y-132340000D02*
X199720000Y-132340000D01*
X193280000Y-132930000D02*
X193280000Y-132340000D01*
X193280000Y-135470000D02*
X193280000Y-134990000D01*
X193280000Y-138120000D02*
X193280000Y-137530000D01*
X193900000Y-132340000D02*
X193900000Y-132930000D01*
X193900000Y-134990000D02*
X193900000Y-135470000D01*
X193900000Y-137530000D02*
X193900000Y-138120000D01*
X199200000Y-132340000D02*
X199200000Y-138120000D01*
X199720000Y-132340000D02*
X199720000Y-138120000D01*
X199720000Y-138120000D02*
X193280000Y-138120000D01*
X192930000Y-133960000D02*
X192320000Y-134400000D01*
X192320000Y-133520000D01*
X192930000Y-133960000D01*
G36*
X192930000Y-133960000D02*
G01*
X192320000Y-134400000D01*
X192320000Y-133520000D01*
X192930000Y-133960000D01*
G37*
%TO.C,SW_GPIO0*%
X179250000Y-102000000D02*
X179250000Y-100000000D01*
X180300000Y-98700000D02*
X180750000Y-98250000D01*
X180300000Y-103300000D02*
X180750000Y-103750000D01*
X183250000Y-98250000D02*
X180750000Y-98250000D01*
X183250000Y-103750000D02*
X180750000Y-103750000D01*
X183700000Y-98700000D02*
X183250000Y-98250000D01*
X183700000Y-103300000D02*
X183250000Y-103750000D01*
X184750000Y-102000000D02*
X184750000Y-100000000D01*
%TO.C,D_FLOAT1*%
X195400000Y-145150000D02*
X195400000Y-142850000D01*
X198300000Y-145150000D02*
X195400000Y-145150000D01*
X198300000Y-145150000D02*
X198600000Y-144850000D01*
X198600000Y-142850000D02*
X195400000Y-142850000D01*
X198600000Y-142850000D02*
X198600000Y-144850000D01*
%TO.C,L1*%
X150300000Y-110450000D02*
X152000000Y-110450000D01*
X150300000Y-117050000D02*
X150300000Y-110450000D01*
X152000000Y-117050000D02*
X150300000Y-117050000D01*
X155000000Y-110450000D02*
X156700000Y-110450000D01*
X156700000Y-110450000D02*
X156700000Y-117050000D01*
X156700000Y-117050000D02*
X155000000Y-117050000D01*
%TO.C,R11*%
X146762742Y-90977500D02*
X147237258Y-90977500D01*
X146762742Y-92022500D02*
X147237258Y-92022500D01*
%TO.C,R3*%
X145977500Y-100237258D02*
X145977500Y-99762742D01*
X147022500Y-100237258D02*
X147022500Y-99762742D01*
%TO.C,J1*%
X195080000Y-106920000D02*
X195080000Y-94000000D01*
X197730000Y-104270000D02*
X197730000Y-106920000D01*
X197730000Y-106920000D02*
X195080000Y-106920000D01*
X200380000Y-94000000D02*
X195080000Y-94000000D01*
X200380000Y-104270000D02*
X197730000Y-104270000D01*
X200380000Y-104270000D02*
X200380000Y-94000000D01*
X200380000Y-105540000D02*
X200380000Y-106920000D01*
X200380000Y-106920000D02*
X199000000Y-106920000D01*
%TO.C,C5*%
X179990000Y-116359420D02*
X179990000Y-116640580D01*
X181010000Y-116359420D02*
X181010000Y-116640580D01*
%TO.C,D4*%
X130490000Y-102740000D02*
X131490000Y-102740000D01*
X130490000Y-104260000D02*
X130490000Y-102740000D01*
X130540000Y-104260000D02*
X130490000Y-104260000D01*
X132440000Y-104260000D02*
X131660000Y-104260000D01*
X132610000Y-102740000D02*
X133610000Y-102740000D01*
X133610000Y-102740000D02*
X133610000Y-104260000D01*
X133610000Y-104260000D02*
X133560000Y-104260000D01*
X131670000Y-104800000D02*
X132000000Y-104560000D01*
X132000000Y-105040000D01*
X131670000Y-104800000D01*
G36*
X132000000Y-105040000D02*
G01*
X131670000Y-104800000D01*
X132000000Y-104560000D01*
X132000000Y-105040000D01*
G37*
%TO.C,SW_RESET1*%
X124150000Y-132600000D02*
X124150000Y-135100000D01*
X124600000Y-132150000D02*
X124150000Y-132600000D01*
X124600000Y-135550000D02*
X124150000Y-135100000D01*
X127900000Y-131100000D02*
X125900000Y-131100000D01*
X127900000Y-136600000D02*
X125900000Y-136600000D01*
X129200000Y-132150000D02*
X129650000Y-132600000D01*
X129200000Y-135550000D02*
X129650000Y-135100000D01*
X129650000Y-132600000D02*
X129650000Y-135100000D01*
%TO.C,C4*%
X147990000Y-82859420D02*
X147990000Y-83140580D01*
X149010000Y-82859420D02*
X149010000Y-83140580D01*
%TO.C,D5*%
X130440000Y-110240000D02*
X131440000Y-110240000D01*
X130440000Y-111760000D02*
X130440000Y-110240000D01*
X130490000Y-111760000D02*
X130440000Y-111760000D01*
X132390000Y-111760000D02*
X131610000Y-111760000D01*
X132560000Y-110240000D02*
X133560000Y-110240000D01*
X133560000Y-110240000D02*
X133560000Y-111760000D01*
X133560000Y-111760000D02*
X133510000Y-111760000D01*
X131620000Y-112300000D02*
X131950000Y-112060000D01*
X131950000Y-112540000D01*
X131620000Y-112300000D01*
G36*
X131950000Y-112540000D02*
G01*
X131620000Y-112300000D01*
X131950000Y-112060000D01*
X131950000Y-112540000D01*
G37*
%TO.C,J6*%
X121740000Y-114840000D02*
X128180000Y-114840000D01*
X121740000Y-120620000D02*
X121740000Y-114840000D01*
X122260000Y-120620000D02*
X122260000Y-114840000D01*
X127560000Y-115430000D02*
X127560000Y-114840000D01*
X127560000Y-117970000D02*
X127560000Y-117490000D01*
X127560000Y-120620000D02*
X127560000Y-120030000D01*
X128180000Y-114840000D02*
X128180000Y-115430000D01*
X128180000Y-117490000D02*
X128180000Y-117970000D01*
X128180000Y-120030000D02*
X128180000Y-120620000D01*
X128180000Y-120620000D02*
X121740000Y-120620000D01*
X128530000Y-119000000D02*
X129140000Y-118560000D01*
X129140000Y-119440000D01*
X128530000Y-119000000D01*
G36*
X129140000Y-119440000D02*
G01*
X128530000Y-119000000D01*
X129140000Y-118560000D01*
X129140000Y-119440000D01*
G37*
%TO.C,U1*%
X150550000Y-74780000D02*
X150550000Y-80980000D01*
X150550000Y-74780000D02*
X168950000Y-74780000D01*
X150550000Y-99630000D02*
X150550000Y-100630000D01*
X150550000Y-100630000D02*
X152050000Y-100630000D01*
X168950000Y-74780000D02*
X168950000Y-80980000D01*
X168950000Y-100630000D02*
X167450000Y-100630000D01*
X168950000Y-100630000D02*
X168950000Y-99630000D01*
X150550000Y-81655000D02*
X150050000Y-81655000D01*
X150550000Y-81155000D01*
X150550000Y-81655000D01*
G36*
X150550000Y-81655000D02*
G01*
X150050000Y-81655000D01*
X150550000Y-81155000D01*
X150550000Y-81655000D01*
G37*
%TO.C,D_VALVE1*%
X166985000Y-145150000D02*
X166985000Y-142850000D01*
X169885000Y-145150000D02*
X166985000Y-145150000D01*
X169885000Y-145150000D02*
X170185000Y-144850000D01*
X170185000Y-142850000D02*
X166985000Y-142850000D01*
X170185000Y-142850000D02*
X170185000Y-144850000D01*
%TO.C,D8*%
X130440000Y-95802500D02*
X131440000Y-95802500D01*
X130440000Y-97322500D02*
X130440000Y-95802500D01*
X130490000Y-97322500D02*
X130440000Y-97322500D01*
X132390000Y-97322500D02*
X131610000Y-97322500D01*
X132560000Y-95802500D02*
X133560000Y-95802500D01*
X133560000Y-95802500D02*
X133560000Y-97322500D01*
X133560000Y-97322500D02*
X133510000Y-97322500D01*
X131620000Y-97862500D02*
X131950000Y-97622500D01*
X131950000Y-98102500D01*
X131620000Y-97862500D01*
G36*
X131950000Y-98102500D02*
G01*
X131620000Y-97862500D01*
X131950000Y-97622500D01*
X131950000Y-98102500D01*
G37*
%TO.C,R6*%
X146977500Y-105912258D02*
X146977500Y-105437742D01*
X148022500Y-105912258D02*
X148022500Y-105437742D01*
%TO.C,J_PUMP2*%
X148150000Y-152750000D02*
X148150000Y-154000000D01*
X148450000Y-155300000D02*
X149200000Y-155300000D01*
X149200000Y-155300000D02*
X149200000Y-158250000D01*
X149200000Y-158250000D02*
X153500000Y-158250000D01*
X149400000Y-152750000D02*
X148150000Y-152750000D01*
X157800000Y-155300000D02*
X157800000Y-158250000D01*
X157800000Y-158250000D02*
X153500000Y-158250000D01*
X158550000Y-155300000D02*
X157800000Y-155300000D01*
X148440000Y-153040000D02*
X158560000Y-153040000D01*
X158560000Y-159010000D01*
X148440000Y-159010000D01*
X148440000Y-153040000D01*
X148450000Y-153050000D02*
X150250000Y-153050000D01*
X150250000Y-153800000D01*
X148450000Y-153800000D01*
X148450000Y-153050000D01*
X151750000Y-153050000D02*
X155250000Y-153050000D01*
X155250000Y-153800000D01*
X151750000Y-153800000D01*
X151750000Y-153050000D01*
X156750000Y-153050000D02*
X158550000Y-153050000D01*
X158550000Y-153800000D01*
X156750000Y-153800000D01*
X156750000Y-153050000D01*
%TO.C,C2*%
X144990000Y-82859420D02*
X144990000Y-83140580D01*
X146010000Y-82859420D02*
X146010000Y-83140580D01*
%TO.C,C9*%
X142090000Y-123154437D02*
X142090000Y-128910000D01*
X142090000Y-128910000D02*
X144440000Y-128910000D01*
X143154437Y-122090000D02*
X142090000Y-123154437D01*
X143154437Y-122090000D02*
X144440000Y-122090000D01*
X147347500Y-121062500D02*
X147347500Y-121850000D01*
X147741250Y-121456250D02*
X146953750Y-121456250D01*
X147845563Y-122090000D02*
X146560000Y-122090000D01*
X147845563Y-122090000D02*
X148910000Y-123154437D01*
X148910000Y-123154437D02*
X148910000Y-128910000D01*
X148910000Y-128910000D02*
X146560000Y-128910000D01*
%TO.C,J5*%
X121740000Y-107840000D02*
X128180000Y-107840000D01*
X121740000Y-113620000D02*
X121740000Y-107840000D01*
X122260000Y-113620000D02*
X122260000Y-107840000D01*
X127560000Y-108430000D02*
X127560000Y-107840000D01*
X127560000Y-110970000D02*
X127560000Y-110490000D01*
X127560000Y-113620000D02*
X127560000Y-113030000D01*
X128180000Y-107840000D02*
X128180000Y-108430000D01*
X128180000Y-110490000D02*
X128180000Y-110970000D01*
X128180000Y-113030000D02*
X128180000Y-113620000D01*
X128180000Y-113620000D02*
X121740000Y-113620000D01*
X128530000Y-112000000D02*
X129140000Y-111560000D01*
X129140000Y-112440000D01*
X128530000Y-112000000D01*
G36*
X129140000Y-112440000D02*
G01*
X128530000Y-112000000D01*
X129140000Y-111560000D01*
X129140000Y-112440000D01*
G37*
%TO.C,R5*%
X150477500Y-105437742D02*
X150477500Y-105912258D01*
X151522500Y-105437742D02*
X151522500Y-105912258D01*
%TO.C,D_LIGHT1*%
X181985000Y-145150000D02*
X181985000Y-142850000D01*
X184885000Y-145150000D02*
X181985000Y-145150000D01*
X184885000Y-145150000D02*
X185185000Y-144850000D01*
X185185000Y-142850000D02*
X181985000Y-142850000D01*
X185185000Y-142850000D02*
X185185000Y-144850000D01*
%TO.C,C20*%
X126915580Y-138990000D02*
X126634420Y-138990000D01*
X126915580Y-140010000D02*
X126634420Y-140010000D01*
%TO.C,C10*%
X143990000Y-105584420D02*
X143990000Y-105865580D01*
X145010000Y-105584420D02*
X145010000Y-105865580D01*
%TO.C,R7*%
X142477500Y-86237258D02*
X142477500Y-85762742D01*
X143522500Y-86237258D02*
X143522500Y-85762742D01*
%TO.C,C16*%
X168359420Y-138490000D02*
X168640580Y-138490000D01*
X168359420Y-139510000D02*
X168640580Y-139510000D01*
%TO.C,C14*%
X138084420Y-138490000D02*
X138365580Y-138490000D01*
X138084420Y-139510000D02*
X138365580Y-139510000D01*
%TO.C,C7*%
X152490000Y-124359420D02*
X152490000Y-124640580D01*
X153510000Y-124359420D02*
X153510000Y-124640580D01*
%TO.C,D3*%
X183100000Y-120420000D02*
X183100000Y-119060000D01*
X183900000Y-119060000D02*
X183100000Y-119060000D01*
X183900000Y-120420000D02*
X183900000Y-119060000D01*
%TO.C,C15*%
X153584420Y-138490000D02*
X153865580Y-138490000D01*
X153584420Y-139510000D02*
X153865580Y-139510000D01*
%TO.C,R2*%
X187977500Y-113737258D02*
X187977500Y-113262742D01*
X189022500Y-113737258D02*
X189022500Y-113262742D01*
%TO.C,D_PUMP2*%
X151985000Y-145150000D02*
X151985000Y-142850000D01*
X154885000Y-145150000D02*
X151985000Y-145150000D01*
X154885000Y-145150000D02*
X155185000Y-144850000D01*
X155185000Y-142850000D02*
X151985000Y-142850000D01*
X155185000Y-142850000D02*
X155185000Y-144850000D01*
%TO.C,C18*%
X196859420Y-147990000D02*
X197140580Y-147990000D01*
X196859420Y-149010000D02*
X197140580Y-149010000D01*
%TO.C,C12*%
X188140000Y-101740580D02*
X188140000Y-101459420D01*
X189160000Y-101740580D02*
X189160000Y-101459420D01*
%TO.C,C3*%
X146490000Y-82859420D02*
X146490000Y-83140580D01*
X147510000Y-82859420D02*
X147510000Y-83140580D01*
%TO.C,D9*%
X160350000Y-117510000D02*
X160350000Y-112000000D01*
X160350000Y-117510000D02*
X163650000Y-117510000D01*
X163650000Y-117510000D02*
X163650000Y-112000000D01*
%TO.C,J_LIGHT1*%
X178150000Y-152750000D02*
X178150000Y-154000000D01*
X178450000Y-155300000D02*
X179200000Y-155300000D01*
X179200000Y-155300000D02*
X179200000Y-158250000D01*
X179200000Y-158250000D02*
X183500000Y-158250000D01*
X179400000Y-152750000D02*
X178150000Y-152750000D01*
X187800000Y-155300000D02*
X187800000Y-158250000D01*
X187800000Y-158250000D02*
X183500000Y-158250000D01*
X188550000Y-155300000D02*
X187800000Y-155300000D01*
X178440000Y-153040000D02*
X188560000Y-153040000D01*
X188560000Y-159010000D01*
X178440000Y-159010000D01*
X178440000Y-153040000D01*
X178450000Y-153050000D02*
X180250000Y-153050000D01*
X180250000Y-153800000D01*
X178450000Y-153800000D01*
X178450000Y-153050000D01*
X181750000Y-153050000D02*
X185250000Y-153050000D01*
X185250000Y-153800000D01*
X181750000Y-153800000D01*
X181750000Y-153050000D01*
X186750000Y-153050000D02*
X188550000Y-153050000D01*
X188550000Y-153800000D01*
X186750000Y-153800000D01*
X186750000Y-153050000D01*
%TO.C,R12*%
X154937742Y-106977500D02*
X155412258Y-106977500D01*
X154937742Y-108022500D02*
X155412258Y-108022500D01*
%TO.C,R9*%
X146762742Y-93977500D02*
X147237258Y-93977500D01*
X146762742Y-95022500D02*
X147237258Y-95022500D01*
%TO.C,C6*%
X166990000Y-124859420D02*
X166990000Y-125140580D01*
X168010000Y-124859420D02*
X168010000Y-125140580D01*
%TO.C,D2*%
X184100000Y-120420000D02*
X184100000Y-119060000D01*
X184900000Y-119060000D02*
X184100000Y-119060000D01*
X184900000Y-120420000D02*
X184900000Y-119060000D01*
%TO.C,SW_MCU_EN1*%
X179600000Y-90100000D02*
X179600000Y-92100000D01*
X180650000Y-88800000D02*
X181100000Y-88350000D01*
X180650000Y-93400000D02*
X181100000Y-93850000D01*
X181100000Y-88350000D02*
X183600000Y-88350000D01*
X181100000Y-93850000D02*
X183600000Y-93850000D01*
X184050000Y-88800000D02*
X183600000Y-88350000D01*
X184050000Y-93400000D02*
X183600000Y-93850000D01*
X185100000Y-90100000D02*
X185100000Y-92100000D01*
%TD*%
%LPC*%
D13*
%TO.C,J3*%
X127540000Y-98000000D03*
X127540000Y-95460000D03*
D14*
X125000000Y-98000000D03*
D15*
X125000000Y-95460000D03*
%TD*%
D16*
%TO.C,C11*%
X140500000Y-85225000D03*
X140500000Y-86775000D03*
%TD*%
D17*
%TO.C,R1*%
X188500000Y-118675000D03*
X188500000Y-120325000D03*
%TD*%
D18*
%TO.C,J_VALVE1*%
X166000000Y-155500000D03*
D19*
X168500000Y-155500000D03*
X171000000Y-155500000D03*
%TD*%
D16*
%TO.C,C13*%
X189000000Y-90225000D03*
X189000000Y-91775000D03*
%TD*%
%TO.C,C1*%
X143000000Y-82225000D03*
X143000000Y-83775000D03*
%TD*%
D20*
%TO.C,D_SYS1*%
X181085000Y-84950000D03*
X181085000Y-86050000D03*
X182915000Y-86050000D03*
X182915000Y-84950000D03*
%TD*%
D16*
%TO.C,C19*%
X178000000Y-84725000D03*
X178000000Y-86275000D03*
%TD*%
D21*
%TO.C,U2*%
X163405000Y-123025000D03*
X162135000Y-123025000D03*
X160865000Y-123025000D03*
X159595000Y-123025000D03*
X159595000Y-127975000D03*
X160865000Y-127975000D03*
X162135000Y-127975000D03*
X163405000Y-127975000D03*
%TD*%
D22*
%TO.C,R4*%
X148500000Y-100825000D03*
X148500000Y-99175000D03*
%TD*%
D23*
%TO.C,D6*%
X131050000Y-119000000D03*
X132950000Y-119000000D03*
X132000000Y-117125000D03*
%TD*%
D24*
%TO.C,R10*%
X146175000Y-87000000D03*
X147825000Y-87000000D03*
%TD*%
D25*
%TO.C,D1*%
X185500000Y-119500000D03*
X185500000Y-120340000D03*
%TD*%
D26*
%TO.C,J2*%
X194900000Y-119570000D03*
X194900000Y-113790000D03*
D27*
X193455000Y-119930000D03*
X193455000Y-119130000D03*
D28*
X193455000Y-117930000D03*
X193455000Y-116930000D03*
X193455000Y-116430000D03*
X193455000Y-115430000D03*
D27*
X193455000Y-114230000D03*
X193455000Y-113430000D03*
X193455000Y-113430000D03*
X193455000Y-114230000D03*
D28*
X193455000Y-114930000D03*
X193455000Y-115930000D03*
X193455000Y-117430000D03*
X193455000Y-118430000D03*
D27*
X193455000Y-119130000D03*
X193455000Y-119930000D03*
D29*
X194370000Y-121000000D03*
D30*
X198550000Y-121000000D03*
D29*
X194370000Y-112360000D03*
D30*
X198550000Y-112360000D03*
%TD*%
D22*
%TO.C,R8*%
X158000000Y-105000000D03*
X158000000Y-103350000D03*
%TD*%
D18*
%TO.C,J_PUMP1*%
X136000000Y-155500000D03*
D19*
X138500000Y-155500000D03*
X141000000Y-155500000D03*
%TD*%
D13*
%TO.C,J4*%
X127500000Y-105000000D03*
X127500000Y-102460000D03*
D14*
X124960000Y-105000000D03*
D15*
X124960000Y-102460000D03*
%TD*%
D31*
%TO.C,C8*%
X173500000Y-123300000D03*
X173500000Y-128700000D03*
%TD*%
D23*
%TO.C,D7*%
X187550000Y-138437500D03*
X189450000Y-138437500D03*
X188500000Y-136562500D03*
%TD*%
D32*
%TO.C,C17*%
X182950000Y-139000000D03*
X184500000Y-139000000D03*
%TD*%
D20*
%TO.C,D_PUMP1*%
X139330000Y-144550000D03*
X139330000Y-143450000D03*
X137500000Y-143450000D03*
X137500000Y-144550000D03*
%TD*%
D13*
%TO.C,J7*%
X193960000Y-133960000D03*
X193960000Y-136500000D03*
D33*
X196500000Y-133960000D03*
D15*
X196500000Y-136500000D03*
%TD*%
D34*
%TO.C,SW_GPIO0*%
X185150000Y-102900000D03*
X178850000Y-102900000D03*
X185150000Y-99100000D03*
X178850000Y-99100000D03*
%TD*%
D20*
%TO.C,D_FLOAT1*%
X197915000Y-144550000D03*
X197915000Y-143450000D03*
X196085000Y-143450000D03*
X196085000Y-144550000D03*
%TD*%
D35*
%TO.C,L1*%
X153500000Y-111000000D03*
X153500000Y-116500000D03*
%TD*%
D24*
%TO.C,R11*%
X146175000Y-91500000D03*
X147825000Y-91500000D03*
%TD*%
D22*
%TO.C,R3*%
X146500000Y-100825000D03*
X146500000Y-99175000D03*
%TD*%
D36*
%TO.C,H4*%
X198000000Y-85000000D03*
%TD*%
D37*
%TO.C,J1*%
X199000000Y-105540000D03*
D38*
X196460000Y-105540000D03*
X199000000Y-103000000D03*
X196460000Y-103000000D03*
X199000000Y-100460000D03*
X196460000Y-100460000D03*
X199000000Y-97920000D03*
X196460000Y-97920000D03*
X199000000Y-95380000D03*
X196460000Y-95380000D03*
%TD*%
D16*
%TO.C,C5*%
X180500000Y-115725000D03*
X180500000Y-117275000D03*
%TD*%
D23*
%TO.C,D4*%
X131100000Y-104437500D03*
X133000000Y-104437500D03*
X132050000Y-102562500D03*
%TD*%
D39*
%TO.C,SW_RESET1*%
X128800000Y-130700000D03*
X128800000Y-137000000D03*
X125000000Y-130700000D03*
X125000000Y-137000000D03*
%TD*%
D16*
%TO.C,C4*%
X148500000Y-82225000D03*
X148500000Y-83775000D03*
%TD*%
D36*
%TO.C,H1*%
X124500000Y-156000000D03*
%TD*%
D23*
%TO.C,D5*%
X131050000Y-111937500D03*
X132950000Y-111937500D03*
X132000000Y-110062500D03*
%TD*%
D13*
%TO.C,J6*%
X127500000Y-119000000D03*
X127500000Y-116460000D03*
D14*
X124960000Y-119000000D03*
D15*
X124960000Y-116460000D03*
%TD*%
D40*
%TO.C,U1*%
X151000000Y-82420000D03*
X151000000Y-83690000D03*
X151000000Y-84960000D03*
X151000000Y-86230000D03*
X151000000Y-87500000D03*
X151000000Y-88770000D03*
X151000000Y-90040000D03*
X151000000Y-91310000D03*
X151000000Y-92580000D03*
X151000000Y-93850000D03*
X151000000Y-95120000D03*
X151000000Y-96390000D03*
X151000000Y-97660000D03*
X151000000Y-98930000D03*
D41*
X152765000Y-100180000D03*
X154035000Y-100180000D03*
X155305000Y-100180000D03*
X156575000Y-100180000D03*
X157845000Y-100180000D03*
X159115000Y-100180000D03*
X160385000Y-100180000D03*
X161655000Y-100180000D03*
X162925000Y-100180000D03*
X164195000Y-100180000D03*
X165465000Y-100180000D03*
X166735000Y-100180000D03*
D40*
X168500000Y-98930000D03*
X168500000Y-97660000D03*
X168500000Y-96390000D03*
X168500000Y-95120000D03*
X168500000Y-93850000D03*
X168500000Y-92580000D03*
X168500000Y-91310000D03*
X168500000Y-90040000D03*
X168500000Y-88770000D03*
X168500000Y-87500000D03*
X168500000Y-86230000D03*
X168500000Y-84960000D03*
X168500000Y-83690000D03*
X168500000Y-82420000D03*
D42*
X156850000Y-89440000D03*
X156850000Y-90840000D03*
X157550000Y-88740000D03*
X157550000Y-90140000D03*
X157550000Y-91540000D03*
X158250000Y-89440000D03*
D43*
X158250000Y-90140000D03*
D42*
X158250000Y-90840000D03*
X158950000Y-88740000D03*
X158950000Y-90140000D03*
X158950000Y-91540000D03*
X159650000Y-89440000D03*
X159650000Y-90840000D03*
%TD*%
D20*
%TO.C,D_VALVE1*%
X169500000Y-144550000D03*
X169500000Y-143450000D03*
X167670000Y-143450000D03*
X167670000Y-144550000D03*
%TD*%
D36*
%TO.C,H2*%
X198000000Y-156000000D03*
%TD*%
D23*
%TO.C,D8*%
X131050000Y-97500000D03*
X132950000Y-97500000D03*
X132000000Y-95625000D03*
%TD*%
D22*
%TO.C,R6*%
X147500000Y-106500000D03*
X147500000Y-104850000D03*
%TD*%
D18*
%TO.C,J_PUMP2*%
X151000000Y-155500000D03*
D19*
X153500000Y-155500000D03*
X156000000Y-155500000D03*
%TD*%
D16*
%TO.C,C2*%
X145500000Y-82225000D03*
X145500000Y-83775000D03*
%TD*%
D31*
%TO.C,C9*%
X145500000Y-122800000D03*
X145500000Y-128200000D03*
%TD*%
D13*
%TO.C,J5*%
X127500000Y-112000000D03*
X127500000Y-109460000D03*
D14*
X124960000Y-112000000D03*
D15*
X124960000Y-109460000D03*
%TD*%
D17*
%TO.C,R5*%
X151000000Y-104850000D03*
X151000000Y-106500000D03*
%TD*%
D20*
%TO.C,D_LIGHT1*%
X184500000Y-144550000D03*
X184500000Y-143450000D03*
X182670000Y-143450000D03*
X182670000Y-144550000D03*
%TD*%
D44*
%TO.C,C20*%
X127550000Y-139500000D03*
X126000000Y-139500000D03*
%TD*%
D16*
%TO.C,C10*%
X144500000Y-104950000D03*
X144500000Y-106500000D03*
%TD*%
D22*
%TO.C,R7*%
X143000000Y-86825000D03*
X143000000Y-85175000D03*
%TD*%
D32*
%TO.C,C16*%
X167725000Y-139000000D03*
X169275000Y-139000000D03*
%TD*%
%TO.C,C14*%
X137450000Y-139000000D03*
X139000000Y-139000000D03*
%TD*%
D16*
%TO.C,C7*%
X153000000Y-123725000D03*
X153000000Y-125275000D03*
%TD*%
D25*
%TO.C,D3*%
X183500000Y-119500000D03*
X183500000Y-120340000D03*
%TD*%
D32*
%TO.C,C15*%
X152950000Y-139000000D03*
X154500000Y-139000000D03*
%TD*%
D22*
%TO.C,R2*%
X188500000Y-114325000D03*
X188500000Y-112675000D03*
%TD*%
D20*
%TO.C,D_PUMP2*%
X154500000Y-144550000D03*
X154500000Y-143450000D03*
X152670000Y-143450000D03*
X152670000Y-144550000D03*
%TD*%
D32*
%TO.C,C18*%
X196225000Y-148500000D03*
X197775000Y-148500000D03*
%TD*%
D45*
%TO.C,C12*%
X188650000Y-102375000D03*
X188650000Y-100825000D03*
%TD*%
D16*
%TO.C,C3*%
X147000000Y-82225000D03*
X147000000Y-83775000D03*
%TD*%
D46*
%TO.C,D9*%
X162000000Y-116000000D03*
X162000000Y-112000000D03*
%TD*%
D18*
%TO.C,J_LIGHT1*%
X181000000Y-155500000D03*
D19*
X183500000Y-155500000D03*
X186000000Y-155500000D03*
%TD*%
D24*
%TO.C,R12*%
X154350000Y-107500000D03*
X156000000Y-107500000D03*
%TD*%
%TO.C,R9*%
X146175000Y-94500000D03*
X147825000Y-94500000D03*
%TD*%
D16*
%TO.C,C6*%
X167500000Y-124225000D03*
X167500000Y-125775000D03*
%TD*%
D25*
%TO.C,D2*%
X184500000Y-119500000D03*
X184500000Y-120340000D03*
%TD*%
D36*
%TO.C,H3*%
X124500000Y-85000000D03*
%TD*%
D34*
%TO.C,SW_MCU_EN1*%
X179200000Y-89200000D03*
X185500000Y-89200000D03*
X179200000Y-93000000D03*
X185500000Y-93000000D03*
%TD*%
%LPD*%
M02*
